{
.formatVersion = 3;
axes = (
{
name = Weight;
tag = wght;
},
{
name = Width;
tag = wdth;
}
);
classes = (
{
code = "space numbersign dollar cent currency Euro percent plus comma period semicolon less equal greater g o x asciitilde sterling section logicalnot plusminus multiply agrave aacute acircumflex atilde adieresis aring ae divide dotlessi aogonek abreve Tcedilla tcedilla Scedilla scedilla amacron gcommaaccent gbreve greaterequal lessequal approxequal notequal one.tf two.tf three.tf four.tf five.tf six.tf seven.tf eight.tf nine.tf period.tf comma.tf colon.tf semicolon.tf numbersign.tf colon.time space.tf cent.tf currency.tf dollar.tf Euro.tf sterling.tf plus.tf minus.tf multiply.tf divide.tf equal.tf notequal.tf greater.tf less.tf greaterequal.tf lessequal.tf plusminus.tf approxequal.tf logicalnot.tf percent.tf section.tf zeroslash zeroslash.tf acaron gdotaccent adotbelow baht-thai baht-thai.tf indianrupee won indianrupee.tf won.tf";
name = aalt;
},
{
code = "space.tf numbersign.tf dollar.tf cent.tf currency.tf Euro.tf percent.tf plus.tf comma.tf period.tf semicolon.tf less.tf equal.tf greater.tf g.alt ordmasculine xsupmod wiggle.medium sterling.tf section.tf logicalnot.tf plusminus.tf multiply.tf agrave.alt aacute.alt acircumflex.alt atilde.alt adieresis.alt aring.alt ae.alt divide.tf i aogonek.alt abreve.alt Tcommaaccent tcommaaccent Scommaaccent scommaaccent amacron.alt gcommaaccent.alt gbreve.alt greaterequal.tf lessequal.tf approxequal.tf notequal.tf one two three four five six seven eight nine period comma colon semicolon numbersign colon.tf space cent currency dollar Euro sterling plus minus multiply divide equal notequal greater less greaterequal lessequal plusminus approxequal logicalnot percent section zeroslash.tf zeroslash acaron.alt gdotaccent.alt adotbelow.alt baht-thai.tf baht-thai indianrupee.tf won.tf indianrupee won";
name = aalt2;
},
{
code = "zero one two three four five six seven eight nine zeroslash";
name = calt_ordn;
},
{

glyphs = (
{
glyphname = .notdef;
layers = (
{
layerId = "B9481DB1-5939-4760-8C0A-E1CA4C5276BA";
shapes = (
{
closed = 1;
nodes = (
(144,0,l),
(144,1432,l),
(996,1432,l),
(996,0,l)
);
},
{
closed = 1;
nodes = (
(272,120,l),
(868,120,l),
(868,1312,l),
(272,1312,l)
);
}
);
width = 1140;
}
);
},
{
glyphname = exclam;
layers = (
{
layerId = "FBB1375C-3A63-4BAF-915A-A70EF4A52AF6";
shapes = (
{
closed = 1;
nodes = (
(194,506,l),
(194,506,o),
(194,506,o),
(194,506,q),
(134,1432,l),
(134,1432,o),
(134,1432,o),
(134,1432,q),
(597,1432,l),
(597,1432,o),
(597,1432,o),
(597,1432,q),
(535,506,l),
(535,506,o),
(535,506,o),
(535,506,q)
);
},
{
closed = 1;
nodes = (
(266,-26,o),
(132,106,o),
(132,200,qs),
(132,294,o),
(267,422,o),
(365,422,qs),
(462,422,o),
(599,294,o),
(599,200,qs),
(599,106,o),
(463,-26,o),
(365,-26,qs)
);
}
);
width = 730;
},
{
layerId = "76B034D3-4D70-4D21-802E-5635595471DF";
shapes = (
{
closed = 1;
nodes = (
(183,506,l),
(183,506,o),
(183,506,o),
(183,506,q),
(125,1432,l),
(125,1432,o),
(125,1432,o),
(125,1432,q),
(578,1432,l),
(578,1432,o),
(578,1432,o),
(578,1432,q),
(518,506,l),
(518,506,o),
(518,506,o),
(518,506,q)
);
},
{
closed = 1;
nodes = (
(253,-25,o),
(121,106,o),
(121,199,qs),
(121,292,o),
(254,420,o),
(350,420,qs),
(447,420,o),
(582,293,o),
(582,199,qs),
(582,106,o),
(448,-25,o),
(351,-25,qs)
);
}
);
width = 702;
},
{
layerId = "B9481DB1-5939-4760-8C0A-E1CA4C5276BA";
shapes = (
{
closed = 1;
nodes = (
(219,427,l),
(219,427,o),
(219,427,o),
(219,427,q),
(200,1432,l),
(200,1432,o),
(200,1432,o),
(200,1432,q),
(409,1432,l),
(409,1432,o),
(409,1432,o),
(409,1432,q),
(388,427,l),
(388,427,o),
(388,427,o),
(388,427,q)
);
},
{
closed = 1;
nodes = (
(245,-15,o),
(164,67,o),
(164,128,qs),
(164,185,o),
(245,266,o),
(304,266,qs),
(362,266,o),
(445,185,o),
(445,128,qs),
(445,67,o),
(362,-15,o),
(304,-15,qs)
);
}
);
width = 609;
},
{
layerId = "2B9CF20A-12EE-404A-A917-16C5B0FAAE67";
shapes = (
{
closed = 1;
nodes = (
(200,427,l),
(200,427,o),
(200,427,o),
(200,427,q),
(182,1432,l),
(182,1432,o),
(182,1432,o),
(182,1432,q),
(385,1432,l),
(385,1432,o),
(385,1432,o),
(385,1432,q),
(365,427,l),
(365,427,o),
(365,427,o),
(365,427,q)
);
},
{
closed = 1;
nodes = (
(225,-14,o),
(145,67,o),
(145,127,qs),
(145,183,o),
(225,263,o),
(283,263,qs),
(340,263,o),
(422,183,o),
(422,127,qs),
(422,67,o),
(341,-14,o),
(283,-14,qs)
);
}
);
width = 567;
},
{
layerId = "B44B52C7-1267-447A-96E2-7C7AAD20E5C8";
shapes = (
{
closed = 1;
nodes = (
(241,380,l),
(241,380,o),
(241,380,o),
(241,380,q),
(234,1432,l),
(234,1432,o),
(234,1432,o),
(234,1432,q),
(306,1432,l),
(306,1432,o),
(306,1432,o),
(306,1432,q),
(298,380,l),
(298,380,o),
(298,380,o),
(298,380,q)
);
},
{
closed = 1;
nodes = (
(230,-12,o),
(177,42,o),
(177,83,qs),
(177,121,o),
(230,175,o),
(269,175,qs),
(308,175,o),
(363,121,o),
(363,83,qs),
(363,42,o),
(308,-12,o),
(270,-12,qs)
);
}
);
width = 540;
},
{
layerId = "6ABF3C13-8B80-436D-8B0B-86D4B5DD3694";
shapes = (
{
closed = 1;
nodes = (
(227,380,l),
(227,380,o),
(227,380,o),
(227,380,q),
(221,1432,l),
(221,1432,o),
(221,1432,o),
(221,1432,q),
(292,1432,l),
(292,1432,o),
(292,1432,o),
(292,1432,q),
(285,380,l),
(285,380,o),
(285,380,o),
(285,380,q)
);
},
{
closed = 1;
nodes = (
(217,-11,o),
(165,43,o),
(165,83,qs),
(165,120,o),
(217,174,o),
(255,174,qs),
(294,174,o),
(348,121,o),
(348,83,qs),
(348,43,o),
(295,-11,o),
(256,-11,qs)
);
}
);
width = 513;
}
);
unicode = 33;
},
{
glyphname = quotedbl;
layers = (
{
layerId = "FBB1375C-3A63-4BAF-915A-A70EF4A52AF6";
shapes = (
{
closed = 1;
nodes = (
(165,878,l),
(165,878,o),
(165,878,o),
(165,878,q),
(165,1473,l),
(165,1473,o),
(165,1473,o),
(165,1473,q),
(504,1473,l),
(504,1473,o),
(504,1473,o),
(504,1473,q),
(504,878,l),
(504,878,o),
(504,878,o),
(504,878,q)
);
},
{
closed = 1;
nodes = (
(629,878,l),
(629,878,o),
(629,878,o),
(629,878,q),
(629,1473,l),
(629,1473,o),
(629,1473,o),
(629,1473,q),
(968,1473,l),
(968,1473,o),
(968,1473,o),
(968,1473,q),
(968,878,l),
(968,878,o),
(968,878,o),
(968,878,q)
);
}
);
width = 1132;
},
{
layerId = "76B034D3-4D70-4D21-802E-5635595471DF";
shapes = (
{
closed = 1;
nodes = (
(154,892,l),
(154,892,o),
(154,892,o),
(154,892,q),
(154,1473,l),
(154,1473,o),
(154,1473,o),
(154,1473,q),
(481,1473,l),
(481,1473,o),
(481,1473,o),
(481,1473,q),
(481,892,l),
(481,892,o),
(481,892,o),
(481,892,q)
);
},
{
closed = 1;
nodes = (
(603,892,l),
(603,892,o),
(603,892,o),
(603,892,q),
(603,1473,l),
(603,1473,o),
(603,1473,o),
(603,1473,q),
(930,1473,l),
(930,1473,o),
(930,1473,o),
(930,1473,q),
(930,892,l),
(930,892,o),
(930,892,o),
(930,892,q)
);
}
);
width = 1083;
},
{
layerId = "B9481DB1-5939-4760-8C0A-E1CA4C5276BA";
shapes = (
{
closed = 1;
nodes = (
(177,941,l),
(177,941,o),
(177,941,o),
(177,941,q),
(177,1473,l),
(177,1473,o),
(177,1473,o),
(177,1473,q),
(347,1473,l),
(347,1473,o),
(347,1473,o),
(347,1473,q),
(347,941,l),
(347,941,o),
(347,941,o),
(347,941,q)
);
},
{
closed = 1;
nodes = (
(536,941,l),
(536,941,o),
(536,941,o),
(536,941,q),
(536,1473,l),
(536,1473,o),
(536,1473,o),
(536,1473,q),
(706,1473,l),
(706,1473,o),
(706,1473,o),
(706,1473,q),
(706,941,l),
(706,941,o),
(706,941,o),
(706,941,q)
);
}
);
width = 883;
},
{
layerId = "2B9CF20A-12EE-404A-A917-16C5B0FAAE67";
shapes = (
{
closed = 1;
nodes = (
(170,953,l),
(170,953,o),
(170,953,o),
(170,953,q),
(170,1473,l),
(170,1473,o),
(170,1473,o),
(170,1473,q),
(337,1473,l),
(337,1473,o),
(337,1473,o),
(337,1473,q),
(337,953,l),
(337,953,o),
(337,953,o),
(337,953,q)
);
},
{
closed = 1;
nodes = (
(509,953,l),
(509,953,o),
(509,953,o),
(509,953,q),
(509,1473,l),
(509,1473,o),
(509,1473,o),
(509,1473,q),
(675,1473,l),
(675,1473,o),
(675,1473,o),
(675,1473,q),
(675,953,l),
(675,953,o),
(675,953,o),
(675,953,q)
);
}
);
width = 845;
},
{
layerId = "B44B52C7-1267-447A-96E2-7C7AAD20E5C8";
shapes = (
{
closed = 1;
nodes = (
(228,976,l),
(228,976,o),
(228,976,o),
(228,976,q),
(228,1473,l),
(228,1473,o),
(228,1473,o),
(228,1473,q),
(295,1473,l),
(295,1473,o),
(295,1473,o),
(295,1473,q),
(295,976,l),
(295,976,o),
(295,976,o),
(295,976,q)
);
},
{
closed = 1;
nodes = (
(562,976,l),
(562,976,o),
(562,976,o),
(562,976,q),
(562,1473,l),
(562,1473,o),
(562,1473,o),
(562,1473,q),
(629,1473,l),
(629,1473,o),
(629,1473,o),
(629,1473,q),
(629,976,l),
(629,976,o),
(629,976,o),
(629,976,q)
);
}
);
width = 857;
},
{
layerId = "6ABF3C13-8B80-436D-8B0B-86D4B5DD3694";
shapes = (
{
closed = 1;
nodes = (
(215,986,l),
(215,986,o),
(215,986,o),
(215,986,q),
(215,1473,l),
(215,1473,o),
(215,1473,o),
(215,1473,q),
(282,1473,l),
(282,1473,o),
(282,1473,o),
(282,1473,q),
(282,986,l),
(282,986,o),
(282,986,o),
(282,986,q)
);
},
{
closed = 1;
nodes = (
(530,986,l),
(530,986,o),
(530,986,o),
(530,986,q),
(530,1473,l),
(530,1473,o),
(530,1473,o),
(530,1473,q),
(596,1473,l),
(596,1473,o),
(596,1473,o),
(596,1473,q),
(596,986,l),
(596,986,o),
(596,986,o),
(596,986,q)
);
}
);
width = 811;
}
);
leftKerningGroup = quotedbl2;
rightKerningGroup = quotedbl;
unicode = 34;
},
{
glyphname = numbersign;
layers = (
{
layerId = "FBB1375C-3A63-4BAF-915A-A70EF4A52AF6";
shapes = (
{
closed = 1;
nodes = (
(739,-23,l),
(739,-23,o),
(739,-23,o),
(739,-23,q),
(968,1456,l),
(968,1456,o),
(968,1456,o),
(968,1456,q),
(1273,1456,l),
(1273,1456,o),
(1273,1456,o),
(1273,1456,q),
(1042,-23,l),
(1042,-23,o),
(1042,-23,o),
(1042,-23,q)
);
},
{
closed = 1;
nodes = (
(228,-23,l),
(228,-23,o),
(228,-23,o),
(228,-23,q),
(458,1456,l),
(458,1456,o),
(458,1456,o),
(458,1456,q),
(763,1456,l),
(763,1456,o),
(763,1456,o),
(763,1456,q),
(532,-23,l),
(532,-23,o),
(532,-23,o),
(532,-23,q)
);
},
{
closed = 1;
nodes = (
(37,266,l),
(37,266,o),
(37,266,o),
(37,266,q),
(86,569,l),
(86,569,o),
(86,569,o),
(86,569,q),
(1374,569,l),
(1374,569,o),
(1374,569,o),
(1374,569,q),
(1329,266,l),
(1329,266,o),
(1329,266,o),
(1329,266,q)
);
},
{
closed = 1;
nodes = (
(128,851,l),
(128,851,o),
(128,851,o),
(128,851,q),
(173,1153,l),
(173,1153,o),
(173,1153,o),
(173,1153,q),
(1462,1153,l),
(1462,1153,o),
(1462,1153,o),
(1462,1153,q),
(1419,851,l),
(1419,851,o),
(1419,851,o),
(1419,851,q)
);
}
);
width = 1503;
},
{
layerId = "76B034D3-4D70-4D21-802E-5635595471DF";
shapes = (
{
closed = 1;
nodes = (
(697,-22,l),
(697,-22,o),
(697,-22,o),
(697,-22,q),
(917,1455,l),
(917,1455,o),
(917,1455,o),
(917,1455,q),
(1214,1455,l),
(1214,1455,o),
(1214,1455,o),
(1214,1455,q),
(993,-22,l),
(993,-22,o),
(993,-22,o),
(993,-22,q)
);
},
{
closed = 1;
nodes = (
(210,-22,l),
(210,-22,o),
(210,-22,o),
(210,-22,q),
(431,1455,l),
(431,1455,o),
(431,1455,o),
(431,1455,q),
(728,1455,l),
(728,1455,o),
(728,1455,o),
(728,1455,q),
(506,-22,l),
(506,-22,o),
(506,-22,o),
(506,-22,q)
);
},
{
closed = 1;
nodes = (
(36,270,l),
(36,270,o),
(36,270,o),
(36,270,q),
(80,569,l),
(80,569,o),
(80,569,o),
(80,569,q),
(1300,569,l),
(1300,569,o),
(1300,569,o),
(1300,569,q),
(1258,270,l),
(1258,270,o),
(1258,270,o),
(1258,270,q)
);
},
{
closed = 1;
nodes = (
(125,852,l),
(125,852,o),
(125,852,o),
(125,852,q),
(168,1151,l),
(168,1151,o),
(168,1151,o),
(168,1151,q),
(1387,1151,l),
(1387,1151,o),
(1387,1151,o),
(1387,1151,q),
(1346,852,l),
(1346,852,o),
(1346,852,o),
(1346,852,q)
);
}
);
width = 1426;
},
{
layerId = "B9481DB1-5939-4760-8C0A-E1CA4C5276BA";
shapes = (
{
closed = 1;
nodes = (
(743,-22,l),
(743,-22,o),
(743,-22,o),
(743,-22,q),
(962,1455,l),
(962,1455,o),
(962,1455,o),
(962,1455,q),
(1116,1455,l),
(1116,1455,o),
(1116,1455,o),
(1116,1455,q),
(897,-22,l),
(897,-22,o),
(897,-22,o),
(897,-22,q)
);
},
{
closed = 1;
nodes = (
(264,-22,l),
(264,-22,o),
(264,-22,o),
(264,-22,q),
(484,1455,l),
(484,1455,o),
(484,1455,o),
(484,1455,q),
(638,1455,l),
(638,1455,o),
(638,1455,o),
(638,1455,q),
(419,-22,l),
(419,-22,o),
(419,-22,o),
(419,-22,q)
);
},
{
closed = 1;
nodes = (
(70,378,l),
(70,378,o),
(70,378,o),
(70,378,q),
(94,534,l),
(94,534,o),
(94,534,o),
(94,534,q),
(1234,534,l),
(1234,534,o),
(1234,534,o),
(1234,534,q),
(1210,378,l),
(1210,378,o),
(1210,378,o),
(1210,378,q)
);
},
{
closed = 1;
nodes = (
(147,886,l),
(147,886,o),
(147,886,o),
(147,886,q),
(170,1042,l),
(170,1042,o),
(170,1042,o),
(170,1042,q),
(1309,1042,l),
(1309,1042,o),
(1309,1042,o),
(1309,1042,q),
(1286,886,l),
(1286,886,o),
(1286,886,o),
(1286,886,q)
);
}
);
width = 1379;
},
{
layerId = "2B9CF20A-12EE-404A-A917-16C5B0FAAE67";
shapes = (
{
closed = 1;
nodes = (
(660,-20,l),
(660,-20,o),
(660,-20,o),
(660,-20,q),
(869,1453,l),
(869,1453,o),
(869,1453,o),
(869,1453,q),
(1026,1453,l),
(1026,1453,o),
(1026,1453,o),
(1026,1453,q),
(817,-20,l),
(817,-20,o),
(817,-20,o),
(817,-20,q)
);
},
{
closed = 1;
nodes = (
(227,-20,l),
(227,-20,o),
(227,-20,o),
(227,-20,q),
(437,1453,l),
(437,1453,o),
(437,1453,o),
(437,1453,q),
(593,1453,l),
(593,1453,o),
(593,1453,o),
(593,1453,q),
(384,-20,l),
(384,-20,o),
(384,-20,o),
(384,-20,q)
);
},
{
closed = 1;
nodes = (
(49,381,l),
(49,381,o),
(49,381,o),
(49,381,q),
(73,536,l),
(73,536,o),
(73,536,o),
(73,536,q),
(1132,536,l),
(1132,536,o),
(1132,536,o),
(1132,536,q),
(1107,381,l),
(1107,381,o),
(1107,381,o),
(1107,381,q)
);
},
{
closed = 1;
nodes = (
(122,887,l),
(122,887,o),
(122,887,o),
(122,887,q),
(146,1043,l),
(146,1043,o),
(146,1043,o),
(146,1043,q),
(1203,1043,l),
(1203,1043,o),
(1203,1043,o),
(1203,1043,q),
(1179,887,l),
(1179,887,o),
(1179,887,o),
(1179,887,q)
);
}
);
width = 1252;
},
{
layerId = "B44B52C7-1267-447A-96E2-7C7AAD20E5C8";
shapes = (
{
closed = 1;
nodes = (
(758,-18,l),
(758,-18,o),
(758,-18,o),
(758,-18,q),
(972,1451,l),
(972,1451,o),
(972,1451,o),
(972,1451,q),
(1036,1451,l),
(1036,1451,o),
(1036,1451,o),
(1036,1451,q),
(822,-18,l),
(822,-18,o),
(822,-18,o),
(822,-18,q)
);
},
{
closed = 1;
nodes = (
(298,-18,l),
(298,-18,o),
(298,-18,o),
(298,-18,q),
(512,1452,l),
(512,1452,o),
(512,1452,o),
(512,1452,q),
(576,1452,l),
(576,1452,o),
(576,1452,o),
(576,1452,q),
(363,-18,l),
(363,-18,o),
(363,-18,o),
(363,-18,q)
);
},
{
closed = 1;
nodes = (
(80,440,l),
(80,440,o),
(80,440,o),
(80,440,q),
(89,498,l),
(89,498,o),
(89,498,o),
(89,498,q),
(1178,498,l),
(1178,498,o),
(1178,498,o),
(1178,498,q),
(1167,440,l),
(1167,440,o),
(1167,440,o),
(1167,440,q)
);
},
{
closed = 1;
nodes = (
(153,928,l),
(153,928,o),
(153,928,o),
(153,928,q),
(162,986,l),
(162,986,o),
(162,986,o),
(162,986,q),
(1248,986,l),
(1248,986,o),
(1248,986,o),
(1248,986,q),
(1239,928,l),
(1239,928,o),
(1239,928,o),
(1239,928,q)
);
}
);
width = 1328;
},
{
layerId = "6ABF3C13-8B80-436D-8B0B-86D4B5DD3694";
shapes = (
{
closed = 1;
nodes = (
(677,-16,l),
(677,-16,o),
(677,-16,o),
(677,-16,q),
(882,1449,l),
(882,1449,o),
(882,1449,o),
(882,1449,q),
(946,1449,l),
(946,1449,o),
(946,1449,o),
(946,1449,q),
(741,-16,l),
(741,-16,o),
(741,-16,o),
(741,-16,q)
);
},
{
closed = 1;
nodes = (
(258,-16,l),
(258,-16,o),
(258,-16,o),
(258,-16,q),
(463,1450,l),
(463,1450,o),
(463,1450,o),
(463,1450,q),
(526,1450,l),
(526,1450,o),
(526,1450,o),
(526,1450,q),
(322,-16,l),
(322,-16,o),
(322,-16,o),
(322,-16,q)
);
},
{
closed = 1;
nodes = (
(63,443,l),
(63,443,o),
(63,443,o),
(63,443,q),
(72,501,l),
(72,501,o),
(72,501,o),
(72,501,q),
(1070,501,l),
(1070,501,o),
(1070,501,o),
(1070,501,q),
(1059,443,l),
(1059,443,o),
(1059,443,o),
(1059,443,q)
);
},
{
closed = 1;
nodes = (
(132,926,l),
(132,926,o),
(132,926,o),
(132,926,q),
(142,984,l),
(142,984,o),
(142,984,o),
(142,984,q),
(1136,984,l),
(1136,984,o),
(1136,984,o),
(1136,984,q),
(1127,926,l),
(1127,926,o),
(1127,926,o),
(1127,926,q)
);
}
);
width = 1199;
}
);
unicode = 35;
},
{
glyphname = dollar;
layers = (
{
layerId = "FBB1375C-3A63-4BAF-915A-A70EF4A52AF6";
shapes = (
{
closed = 1;
nodes = (
(543,-1,o),
(339,56,o),
(175,157,o),
(70,282,o),
(70,282,o),
(70,282,q),
(367,513,l),
(367,513,o),
(367,513,o),
(427,447,o),
(514,383,o),
(626,346,o),
(686,346,qs),
(775,346,o),
(862,392,o),
(862,431,q),
(862,431,l),
(862,481,o),
(734,534,o),
(556,585,qs),
(326,651,o),
(122,841,o),
(122,1007,q),
(122,1007,l),
(122,1196,o),
(431,1432,o),
(695,1432,qs),
(811,1432,o),
(1006,1377,o),
(1160,1276,o),
(1244,1182,o),
(1244,1182,o),
(1244,1182,q),
(970,967,l),
(970,967,o),
(970,967,o),
(913,1014,o),
(824,1070,o),
(728,1098,o),
(675,1098,qs),
(601,1098,o),
(539,1059,o),
(539,1025,q),
(539,1025,l),
(539,985,o),
(665,931,o),
(854,878,q),
(1063,818,o),
(1279,625,o),
(1279,463,q),
(1279,463,l),
(1279,261,o),
(961,-1,o),
(684,-1,qs)
);
},
{
closed = 1;
nodes = (
(588,1272,l),
(588,1598,l),
(588,1598,o),
(588,1598,o),
(588,1598,q),
(823,1598,l),
(823,1598,o),
(823,1598,o),
(823,1598,q),
(823,1272,l)
);
},
{
closed = 1;
nodes = (
(585,-166,l),
(585,-166,o),
(585,-166,o),
(585,-166,q),
(585,177,l),
(819,177,l),
(819,-166,l),
(819,-166,o),
(819,-166,o),
(819,-166,q)
);
}
);
width = 1359;
},
{
layerId = "76B034D3-4D70-4D21-802E-5635595471DF";
shapes = (
{
closed = 1;
nodes = (
(500,-1,o),
(301,62,o),
(151,177,o),
(62,317,o),
(62,317,o),
(62,317,q),
(373,513,l),
(373,513,o),
(373,513,o),
(426,440,o),
(497,379,o),
(589,345,o),
(639,345,qs),
(713,345,o),
(787,390,o),
(787,428,q),
(787,427,l),
(787,477,o),
(678,532,o),
(512,591,qs),
(298,668,o),
(115,856,o),
(115,1014,q),
(115,1014,l),
(115,1198,o),
(403,1432,o),
(650,1432,qs),
(769,1432,o),
(956,1373,o),
(1098,1264,o),
(1170,1147,o),
(1170,1147,o),
(1170,1147,q),
(875,966,l),
(875,966,o),
(875,966,o),
(829,1019,o),
(760,1071,o),
(683,1096,o),
(640,1096,qs),
(581,1096,o),
(526,1058,o),
(526,1025,q),
(526,1025,l),
(526,983,o),
(641,924,o),
(814,862,q),
(1005,792,o),
(1196,604,o),
(1196,447,q),
(1196,447,l),
(1196,251,o),
(900,-1,o),
(641,-1,qs)
);
},
{
closed = 1;
nodes = (
(545,1279,l),
(545,1598,l),
(545,1598,o),
(545,1598,o),
(545,1598,q),
(778,1598,l),
(778,1598,o),
(778,1598,o),
(778,1598,q),
(778,1279,l)
);
},
{
closed = 1;
nodes = (
(540,-166,l),
(540,-166,o),
(540,-166,o),
(540,-166,q),
(540,172,l),
(773,172,l),
(773,-166,l),
(773,-166,o),
(773,-166,o),
(773,-166,q)
);
}
);
width = 1270;
},
{
layerId = "CEF0965B-BFB2-4479-A8C5-61F1C3DDEF07";
partSelection = {
Wd = 2;
Wt = 2;
};
name = ":wd=100,wt=600";
shapes = (
{
closed = 1;
nodes = (
(529,0,o),
(325,61,o),
(173,173,o),
(85,317,o),
(85,317,o),
(85,317,q),
(319,468,l),
(319,468,o),
(319,468,o),
(386,368,o),
(477,296,o),
(594,257,o),
(664,257,qs),
(783,257,o),
(899,344,o),
(899,412,qs),
(899,414,ls),
(899,487,o),
(789,571,o),
(600,618,q),
(344,684,o),
(140,879,o),
(140,1036,q),
(140,1036,l),
(140,1211,o),
(415,1432,o),
(656,1432,qs),
(773,1432,o),
(949,1379,o),
(1088,1284,o),
(1171,1171,o),
(1171,1171,o),
(1171,1171,q),
(953,1022,l),
(953,1022,o),
(953,1022,o),
(896,1087,o),
(810,1151,o),
(711,1181,o),
(645,1181,qs),
(540,1181,o),
(443,1109,o),
(443,1051,q),
(443,1051,l),
(443,983,o),
(560,911,o),
(766,855,qs),
(1012,788,o),
(1203,594,o),
(1203,434,q),
(1203,434,l),
(1203,243,o),
(915,0,o),
(662,0,qs)
);
},
{
closed = 1;
nodes = (
(575,1247,l),
(575,1598,l),
(575,1598,o),
(575,1598,o),
(575,1598,q),
(761,1598,l),
(761,1598,o),
(761,1598,o),
(761,1598,q),
(761,1247,l)
);
},
{
closed = 1;
nodes = (
(574,-166,l),
(574,-166,o),
(574,-166,o),
(574,-166,q),
(574,188,l),
(761,188,l),
(761,-166,l),
(761,-166,o),
(761,-166,o),
(761,-166,q)
);
}
);
width = 1299;
},
{
layerId = "8619D593-138D-4541-B8B6-29B01E3CE4C7";
partSelection = {
Wd = 2;
Wt = 2;
};
name = ":wd=75,wt=600";
shapes = (
{
closed = 1;
nodes = (
(473,0,o),
(281,66,o),
(146,186,o),
(73,333,o),
(73,333,o),
(73,333,q),
(313,464,l),
(313,464,o),
(313,464,o),
(370,360,o),
(444,292,o),
(543,255,o),
(604,255,qs),
(706,255,o),
(803,335,o),
(803,398,qs),
(803,407,ls),
(803,484,o),
(693,575,o),
(521,638,q),
(298,714,o),
(126,902,o),
(126,1045,qs),
(126,1051,ls),
(126,1218,o),
(378,1432,o),
(600,1432,qs),
(713,1432,o),
(879,1377,o),
(1004,1277,o),
(1074,1150,o),
(1074,1150,o),
(1074,1150,q),
(847,1023,l),
(847,1023,o),
(847,1023,o),
(800,1093,o),
(731,1153,o),
(649,1181,o),
(593,1181,qs),
(506,1181,o),
(424,1116,o),
(424,1062,qs),
(424,1057,ls),
(424,990,o),
(532,913,o),
(717,845,q),
(932,768,o),
(1102,575,o),
(1102,424,qs),
(1102,417,ls),
(1102,231,o),
(839,0,o),
(604,0,qs)
);
},
{
closed = 1;
nodes = (
(525,1243,l),
(525,1598,l),
(525,1598,o),
(525,1598,o),
(525,1598,q),
(698,1598,l),
(698,1598,o),
(698,1598,o),
(698,1598,q),
(698,1243,l)
);
},
{
closed = 1;
nodes = (
(523,-166,l),
(523,-166,o),
(523,-166,o),
(523,-166,q),
(523,177,l),
(697,177,l),
(697,-166,l),
(697,-166,o),
(697,-166,o),
(697,-166,q)
);
}
);
width = 1186;
},
{
layerId = "59C958D3-6A78-4F65-8339-2D9A5DB60795";
partSelection = {
Wd = 2;
Wt = 2;
};
name = Bold;
shapes = (
{
closed = 1;
nodes = (
(529,0,o),
(325,61,o),
(171,175,o),
(85,317,o),
(85,317,o),
(85,317,q),
(319,468,l),
(319,468,o),
(319,468,o),
(385,368,o),
(477,296,o),
(594,257,o),
(664,257,qs),
(783,257,o),
(899,344,o),
(899,412,qs),
(899,414,ls),
(899,494,o),
(760,581,o),
(571,629,qs),
(341,687,o),
(140,879,o),
(140,1035,q),
(140,1035,l),
(140,1211,o),
(415,1432,o),
(656,1432,qs),
(773,1432,o),
(949,1379,o),
(1089,1284,o),
(1171,1171,o),
(1171,1171,o),
(1171,1171,q),
(953,1022,l),
(953,1022,o),
(953,1022,o),
(896,1087,o),
(810,1151,o),
(711,1181,o),
(645,1181,qs),
(540,1181,o),
(443,1109,o),
(443,1051,q),
(443,1051,l),
(443,980,o),
(567,909,o),
(776,852,qs),
(1008,789,o),
(1203,594,o),
(1203,434,q),
(1203,434,l),
(1203,243,o),
(915,0,o),
(662,0,qs)
);
},
{
closed = 1;
nodes = (
(575,810,l),
(575,1598,l),
(575,1598,o),
(575,1598,o),
(575,1598,q),
(761,1598,l),
(761,1598,o),
(761,1598,o),
(761,1598,q),
(761,810,l)
);
},
{
closed = 1;
nodes = (
(574,-166,l),
(574,-166,o),
(574,-166,o),
(574,-166,q),
(574,735,l),
(761,735,l),
(761,-166,l),
(761,-166,o),
(761,-166,o),
(761,-166,q)
);
}
);
width = 1299;
},
{
layerId = "49BE5530-6436-4DEF-AB33-C56410641787";
partSelection = {
Wd = 2;
Wt = 2;
};
name = CondensedBold;
shapes = (
{
closed = 1;
nodes = (
(473,0,o),
(281,66,o),
(145,187,o),
(73,333,o),
(73,333,o),
(73,333,q),
(313,464,l),
(313,464,o),
(313,464,o),
(369,360,o),
(444,292,o),
(543,255,o),
(604,255,qs),
(706,255,o),
(803,335,o),
(803,398,qs),
(803,407,ls),
(803,489,o),
(674,582,o),
(501,645,q),
(296,716,o),
(126,901,o),
(126,1044,qs),
(126,1050,ls),
(126,1218,o),
(378,1432,o),
(600,1432,qs),
(713,1432,o),
(879,1377,o),
(1005,1277,o),
(1074,1150,o),
(1074,1150,o),
(1074,1150,q),
(847,1023,l),
(847,1023,o),
(847,1023,o),
(800,1093,o),
(731,1153,o),
(649,1181,o),
(593,1181,qs),
(506,1181,o),
(424,1116,o),
(424,1062,qs),
(424,1057,ls),
(424,988,o),
(537,911,o),
(724,843,qs),
(929,769,o),
(1102,575,o),
(1102,424,qs),
(1102,417,ls),
(1102,231,o),
(839,0,o),
(604,0,qs)
);
},
{
closed = 1;
nodes = (
(526,800,l),
(526,1598,l),
(526,1598,o),
(526,1598,o),
(526,1598,q),
(695,1598,l),
(695,1598,o),
(695,1598,o),
(695,1598,q),
(695,800,l)
);
},
{
closed = 1;
nodes = (
(524,-166,l),
(524,-166,o),
(524,-166,o),
(524,-166,q),
(524,743,l),
(693,743,l),
(693,-166,l),
(693,-166,o),
(693,-166,o),
(693,-166,q)
);
}
);
width = 1186;
},
{
layerId = "B9481DB1-5939-4760-8C0A-E1CA4C5276BA";
shapes = (
{
closed = 1;
nodes = (
(540,0,o),
(344,68,o),
(209,196,o),
(141,352,o),
(141,352,o),
(141,352,q),
(311,424,l),
(311,424,o),
(311,424,o),
(368,302,o),
(459,214,o),
(588,169,o),
(679,169,qs),
(831,169,o),
(977,296,o),
(977,394,qs),
(977,397,ls),
(977,495,o),
(854,608,o),
(657,658,q),
(387,729,o),
(198,914,o),
(198,1061,q),
(198,1061,l),
(198,1226,o),
(440,1432,o),
(656,1432,qs),
(783,1432,o),
(947,1379,o),
(1072,1275,o),
(1138,1160,o),
(1138,1160,o),
(1138,1160,q),
(977,1077,l),
(977,1077,o),
(977,1077,o),
(925,1155,o),
(846,1227,o),
(739,1263,o),
(656,1263,qs),
(519,1263,o),
(386,1159,o),
(386,1076,q),
(386,1076,l),
(386,970,o),
(537,879,o),
(745,822,qs),
(986,756,o),
(1168,557,o),
(1168,405,q),
(1168,405,l),
(1168,226,o),
(910,0,o),
(676,0,qs)
);
},
{
closed = 1;
nodes = (
(603,756,l),
(603,1598,l),
(603,1598,o),
(603,1598,o),
(603,1598,q),
(742,1598,l),
(742,1598,o),
(742,1598,o),
(742,1598,q),
(742,756,l)
);
},
{
closed = 1;
nodes = (
(603,-166,l),
(603,-166,o),
(603,-166,o),
(603,-166,q),
(603,727,l),
(742,727,l),
(742,-166,l),
(742,-166,o),
(742,-166,o),
(742,-166,q)
);
}
);
width = 1299;
},
{
layerId = "2B9CF20A-12EE-404A-A917-16C5B0FAAE67";
shapes = (
{
closed = 1;
nodes = (
(476,0,o),
(299,67,o),
(179,193,o),
(122,350,o),
(122,350,o),
(122,350,q),
(289,417,l),
(289,417,o),
(289,417,o),
(337,292,o),
(414,208,o),
(525,166,o),
(604,166,qs),
(736,166,o),
(857,280,o),
(857,370,qs),
(857,387,ls),
(857,491,o),
(740,611,o),
(561,682,q),
(330,768,o),
(173,944,o),
(173,1073,qs),
(173,1084,ls),
(173,1239,o),
(390,1432,o),
(586,1432,qs),
(699,1432,o),
(848,1380,o),
(958,1278,o),
(1015,1153,o),
(1015,1153,o),
(1015,1153,q),
(856,1079,l),
(856,1079,o),
(856,1079,o),
(811,1164,o),
(745,1232,o),
(655,1265,o),
(584,1265,qs),
(467,1265,o),
(358,1173,o),
(358,1098,qs),
(358,1089,ls),
(358,994,o),
(486,898,o),
(672,823,qs),
(890,735,o),
(1045,540,o),
(1045,401,qs),
(1045,387,ls),
(1045,213,o),
(816,0,o),
(602,0,qs)
);
},
{
closed = 1;
nodes = (
(535,771,l),
(535,1598,l),
(535,1598,o),
(535,1598,o),
(535,1598,q),
(664,1598,l),
(664,1598,o),
(664,1598,o),
(664,1598,q),
(664,771,l)
);
},
{
closed = 1;
nodes = (
(535,-166,l),
(535,-166,o),
(535,-166,o),
(535,-166,q),
(535,739,l),
(664,739,l),
(664,-166,l),
(664,-166,o),
(664,-166,o),
(664,-166,q)
);
}
);
width = 1161;
},
{
layerId = "B44B52C7-1267-447A-96E2-7C7AAD20E5C8";
shapes = (
{
closed = 1;
nodes = (
(424,0,o),
(224,99,o),
(113,241,o),
(77,349,o),
(77,349,o),
(77,349,q),
(135,371,l),
(135,371,o),
(135,371,o),
(172,274,o),
(268,147,o),
(447,61,o),
(583,61,qs),
(762,61,o),
(966,235,o),
(966,373,q),
(966,373,l),
(966,523,o),
(792,666,o),
(571,727,qs),
(327,795,o),
(146,958,o),
(146,1098,q),
(146,1098,l),
(146,1249,o),
(371,1432,o),
(560,1432,qs),
(694,1432,o),
(868,1355,o),
(969,1242,o),
(1008,1160,o),
(1008,1160,o),
(1008,1160,q),
(949,1137,l),
(949,1137,o),
(949,1137,o),
(909,1215,o),
(819,1311,o),
(663,1372,o),
(559,1372,qs),
(394,1372,o),
(214,1217,o),
(214,1099,q),
(214,1099,l),
(214,971,o),
(399,847,o),
(588,792,q),
(839,721,o),
(1034,543,o),
(1034,384,q),
(1034,384,l),
(1034,214,o),
(796,0,o),
(583,0,qs)
);
},
{
closed = 1;
nodes = (
(539,751,l),
(539,1598,l),
(539,1598,o),
(539,1598,o),
(539,1598,q),
(598,1598,l),
(598,1598,o),
(598,1598,o),
(598,1598,q),
(598,751,l)
);
},
{
closed = 1;
nodes = (
(539,-166,l),
(539,-166,o),
(539,-166,o),
(539,-166,q),
(539,750,l),
(598,750,l),
(598,-166,l),
(598,-166,o),
(598,-166,o),
(598,-166,q)
);
}
);
width = 1105;
},
{
layerId = "6ABF3C13-8B80-436D-8B0B-86D4B5DD3694";
shapes = (
{
closed = 1;
nodes = (
(382,0,o),
(203,102,o),
(112,247,o),
(85,347,o),
(85,347,o),
(85,347,q),
(144,367,l),
(144,367,o),
(144,367,o),
(172,275,o),
(250,149,o),
(405,60,o),
(527,60,qs),
(683,60,o),
(857,222,o),
(857,352,qs),
(857,362,ls),
(857,499,o),
(705,650,o),
(511,732,q),
(306,816,o),
(141,981,o),
(141,1112,qs),
(141,1121,ls),
(141,1262,o),
(341,1432,o),
(507,1432,qs),
(628,1432,o),
(784,1350,o),
(867,1233,o),
(896,1151,o),
(896,1151,o),
(896,1151,q),
(839,1131,l),
(839,1131,o),
(839,1131,o),
(807,1208,o),
(733,1310,o),
(601,1373,o),
(506,1373,qs),
(363,1373,o),
(208,1231,o),
(208,1122,qs),
(208,1115,ls),
(208,999,o),
(367,865,o),
(535,793,q),
(745,707,o),
(924,520,o),
(924,371,qs),
(924,359,ls),
(924,201,o),
(716,0,o),
(527,0,qs)
);
},
{
closed = 1;
nodes = (
(487,760,l),
(487,1598,l),
(487,1598,o),
(487,1598,o),
(487,1598,q),
(545,1598,l),
(545,1598,o),
(545,1598,o),
(545,1598,q),
(545,760,l)
);
},
{
closed = 1;
nodes = (
(486,-166,l),
(486,-166,o),
(486,-166,o),
(486,-166,q),
(486,753,l),
(545,753,l),
(545,-166,l),
(545,-166,o),
(545,-166,o),
(545,-166,q)
);
}
);
width = 1008;
},
{
layerId = "59C958D3-6A78-4F65-8339-2D9A5DB60795";
partSelection = {
Wd = 2;
Wt = 2;
};
name = Bold;
shapes = (
{
closed = 1;
nodes = (
(529,0,o),
(325,61,o),
(171,175,o),
(85,317,o),
(85,317,o),
(85,317,q),
(319,468,l),
(319,468,o),
(319,468,o),
(385,368,o),
(477,296,o),
(594,257,o),
(664,257,qs),
(783,257,o),
(899,344,o),
(899,412,qs),
(899,414,ls),
(899,494,o),
(760,581,o),
(571,629,qs),
(341,687,o),
(140,879,o),
(140,1035,q),
(140,1035,l),
(140,1211,o),
(415,1432,o),
(656,1432,qs),
(773,1432,o),
(949,1379,o),
(1089,1284,o),
(1171,1171,o),
(1171,1171,o),
(1171,1171,q),
(953,1022,l),
(953,1022,o),
(953,1022,o),
(896,1087,o),
(810,1151,o),
(711,1181,o),
(645,1181,qs),
(540,1181,o),
(443,1109,o),
(443,1051,q),
(443,1051,l),
(443,980,o),
(567,909,o),
(776,852,qs),
(1008,789,o),
(1203,594,o),
(1203,434,q),
(1203,434,l),
(1203,243,o),
(915,0,o),
(662,0,qs)
);
},
{
closed = 1;
nodes = (
(575,810,l),
(575,1598,l),
(575,1598,o),
(575,1598,o),
(575,1598,q),
(761,1598,l),
(761,1598,o),
(761,1598,o),
(761,1598,q),
(761,810,l)
);
},
{
closed = 1;
nodes = (
(574,-166,l),
(574,-166,o),
(574,-166,o),
(574,-166,q),
(574,735,l),
(761,735,l),
(761,-166,l),
(761,-166,o),
(761,-166,o),
(761,-166,q)
);
}
);
width = 1299;
},
{
layerId = "49BE5530-6436-4DEF-AB33-C56410641787";
partSelection = {
Wd = 2;
Wt = 2;
};
name = CondensedBold;
shapes = (
{
closed = 1;
nodes = (
(473,0,o),
(281,66,o),
(145,187,o),
(73,333,o),
(73,333,o),
(73,333,q),
(313,464,l),
(313,464,o),
(313,464,o),
(369,360,o),
(444,292,o),
(543,255,o),
(604,255,qs),
(706,255,o),
(803,335,o),
(803,398,qs),
(803,407,ls),
(803,489,o),
(674,582,o),
(501,645,q),
(296,716,o),
(126,901,o),
(126,1044,qs),
(126,1050,ls),
(126,1218,o),
(378,1432,o),
(600,1432,qs),
(713,1432,o),
(879,1377,o),
(1005,1277,o),
(1074,1150,o),
(1074,1150,o),
(1074,1150,q),
(847,1023,l),
(847,1023,o),
(847,1023,o),
(800,1093,o),
(731,1153,o),
(649,1181,o),
(593,1181,qs),
(506,1181,o),
(424,1116,o),
(424,1062,qs),
(424,1057,ls),
(424,988,o),
(537,911,o),
(724,843,qs),
(929,769,o),
(1102,575,o),
(1102,424,qs),
(1102,417,ls),
(1102,231,o),
(839,0,o),
(604,0,qs)
);
},
{
closed = 1;
nodes = (
(526,800,l),
(526,1598,l),
(526,1598,o),
(526,1598,o),
(526,1598,q),
(695,1598,l),
(695,1598,o),
(695,1598,o),
(695,1598,q),
(695,800,l)
);
},
{
closed = 1;
nodes = (
(524,-166,l),
(524,-166,o),
(524,-166,o),
(524,-166,q),
(524,743,l),
(693,743,l),
(693,-166,l),
(693,-166,o),
(693,-166,o),
(693,-166,q)
);
}
);
width = 1186;
}
);
partsSettings = (
{
bottomValue = 0;
name = Wd;
topValue = 1000;
},
{
bottomValue = 0;
name = Wt;
topValue = 1000;
}
);
unicode = 36;
},
{
glyphname = cent;
layers = (
{
layerId = "FBB1375C-3A63-4BAF-915A-A70EF4A52AF6";
shapes = (
{
closed = 1;
nodes = (
(383,159,o),
(78,453,o),
(78,684,q),
(78,684,l),
(78,906,o),
(369,1211,o),
(624,1212,q),
(733,1212,o),
(911,1151,o),
(1044,1038,o),
(1107,917,o),
(1107,917,o),
(1107,917,q),
(810,775,l),
(810,775,o),
(810,775,o),
(785,823,o),
(746,859,o),
(693,881,o),
(651,881,qs),
(571,881,o),
(469,775,o),
(468,683,q),
(468,683,l),
(468,600,o),
(567,489,o),
(647,489,qs),
(682,489,o),
(738,507,o),
(778,541,o),
(809,588,o),
(809,588,o),
(809,588,q),
(1112,466,l),
(1112,466,o),
(1112,466,o),
(1053,346,o),
(912,224,o),
(740,159,o),
(624,159,qs)
);
},
{
closed = 1;
nodes = (
(510,1032,l),
(510,1365,l),
(510,1365,o),
(510,1365,o),
(510,1365,q),
(767,1365,l),
(767,1365,o),
(767,1365,o),
(767,1365,q),
(767,1032,l)
);
},
{
closed = 1;
nodes = (
(510,0,l),
(510,0,o),
(510,0,o),
(510,0,q),
(510,337,l),
(767,337,l),
(767,0,l),
(767,0,o),
(767,0,o),
(767,0,q)
);
}
);
width = 1182;
},
{
layerId = "76B034D3-4D70-4D21-802E-5635595471DF";
shapes = (
{
closed = 1;
nodes = (
(364,159,o),
(73,454,o),
(73,686,q),
(73,685,l),
(73,911,o),
(356,1214,o),
(603,1215,q),
(710,1215,o),
(876,1156,o),
(1001,1047,o),
(1062,928,o),
(1062,928,o),
(1062,928,q),
(772,784,l),
(772,784,o),
(772,784,o),
(749,829,o),
(712,866,o),
(664,886,o),
(625,886,qs),
(551,886,o),
(458,787,o),
(457,695,q),
(457,675,ls),
(457,593,o),
(546,488,o),
(622,488,qs),
(656,488,o),
(706,506,o),
(743,541,o),
(770,585,o),
(770,585,o),
(770,585,q),
(1064,455,l),
(1064,455,o),
(1064,455,o),
(1005,335,o),
(876,220,o),
(713,159,o),
(601,159,qs)
);
},
{
closed = 1;
nodes = (
(492,1037,l),
(492,1365,l),
(492,1365,o),
(492,1365,o),
(492,1365,q),
(736,1365,l),
(736,1365,o),
(736,1365,o),
(736,1365,q),
(736,1037,l)
);
},
{
closed = 1;
nodes = (
(492,0,l),
(492,0,o),
(492,0,o),
(492,0,q),
(492,336,l),
(736,336,l),
(736,0,l),
(736,0,o),
(736,0,o),
(736,0,q)
);
}
);
width = 1139;
},
{
layerId = "CEF0965B-BFB2-4479-A8C5-61F1C3DDEF07";
partSelection = {
Wd = 2;
Wt = 2;
};
name = ":wd=100,wt=600";
shapes = (
{
closed = 1;
nodes = (
(376,163,o),
(85,460,o),
(85,688,q),
(85,688,l),
(85,910,o),
(368,1211,o),
(608,1211,qs),
(711,1211,o),
(875,1151,o),
(1001,1044,o),
(1063,928,o),
(1063,928,o),
(1063,928,q),
(842,820,l),
(842,820,o),
(842,820,o),
(808,883,o),
(750,936,o),
(675,965,o),
(620,965,q),
(508,966,o),
(371,813,o),
(370,687,q),
(370,687,l),
(370,567,o),
(508,408,o),
(618,408,qs),
(669,408,o),
(747,434,o),
(807,485,o),
(845,546,o),
(845,546,o),
(845,546,q),
(1069,450,l),
(1069,450,o),
(1069,450,o),
(1009,337,o),
(878,225,o),
(714,163,o),
(608,163,qs)
);
},
{
closed = 1;
nodes = (
(523,1011,l),
(523,1365,l),
(523,1365,o),
(523,1365,o),
(523,1365,q),
(704,1365,l),
(704,1365,o),
(704,1365,o),
(704,1365,q),
(704,1011,l)
);
},
{
closed = 1;
nodes = (
(523,0,l),
(523,0,o),
(523,0,o),
(523,0,q),
(523,384,l),
(703,384,l),
(703,0,l),
(703,0,o),
(703,0,o),
(703,0,q)
);
}
);
width = 1140;
},
{
layerId = "8619D593-138D-4541-B8B6-29B01E3CE4C7";
partSelection = {
Wd = 2;
Wt = 2;
};
name = ":wd=75,wt=600";
shapes = (
{
closed = 1;
nodes = (
(367,164,o),
(93,461,o),
(93,684,qs),
(93,694,ls),
(93,915,o),
(364,1212,o),
(591,1212,qs),
(688,1212,o),
(837,1156,o),
(953,1056,o),
(1015,944,o),
(1015,944,o),
(1015,944,q),
(805,831,l),
(805,831,o),
(806,831,o),
(773,894,o),
(719,944,o),
(650,970,o),
(601,970,q),
(498,972,o),
(373,821,o),
(372,694,q),
(372,681,ls),
(372,561,o),
(495,406,o),
(599,406,qs),
(645,406,o),
(716,430,o),
(771,478,o),
(808,539,o),
(808,539,o),
(808,539,q),
(1019,435,l),
(1019,435,o),
(1019,435,o),
(958,323,o),
(839,220,o),
(690,164,o),
(591,164,qs)
);
},
{
closed = 1;
nodes = (
(511,1015,l),
(511,1366,l),
(511,1366,o),
(511,1366,o),
(511,1366,q),
(679,1366,l),
(679,1366,o),
(679,1366,o),
(679,1366,q),
(679,1015,l)
);
},
{
closed = 1;
nodes = (
(511,0,l),
(511,0,o),
(511,0,o),
(511,0,q),
(511,370,l),
(678,370,l),
(678,0,l),
(678,0,o),
(678,0,o),
(678,0,q)
);
}
);
width = 1103;
},
{
layerId = "59C958D3-6A78-4F65-8339-2D9A5DB60795";
partSelection = {
Wd = 2;
Wt = 2;
};
name = Bold;
shapes = (
{
closed = 1;
nodes = (
(376,163,o),
(85,460,o),
(85,688,q),
(85,688,l),
(85,910,o),
(368,1211,o),
(608,1211,qs),
(711,1211,o),
(875,1151,o),
(1002,1044,o),
(1063,928,o),
(1063,928,o),
(1063,928,q),
(842,820,l),
(842,820,o),
(842,820,o),
(808,883,o),
(750,936,o),
(675,965,o),
(620,965,q),
(508,966,o),
(371,813,o),
(370,687,q),
(370,687,l),
(370,567,o),
(508,408,o),
(618,408,qs),
(669,408,o),
(747,434,o),
(807,485,o),
(845,546,o),
(845,546,o),
(845,546,q),
(1069,450,l),
(1069,450,o),
(1069,450,o),
(1009,337,o),
(878,225,o),
(714,163,o),
(608,163,qs)
);
},
{
closed = 1;
nodes = (
(523,687,l),
(523,1365,l),
(523,1365,o),
(523,1365,o),
(523,1365,q),
(704,1365,l),
(704,1365,o),
(704,1365,o),
(704,1365,q),
(704,687,l)
);
},
{
closed = 1;
nodes = (
(523,0,l),
(523,0,o),
(523,0,o),
(523,0,q),
(523,687,l),
(703,687,l),
(703,0,l),
(703,0,o),
(703,0,o),
(703,0,q)
);
}
);
width = 1140;
},
{
layerId = "49BE5530-6436-4DEF-AB33-C56410641787";
partSelection = {
Wd = 2;
Wt = 2;
};
name = CondensedBold;
shapes = (
{
closed = 1;
nodes = (
(367,164,o),
(93,461,o),
(93,684,qs),
(93,694,ls),
(93,915,o),
(364,1212,o),
(591,1212,qs),
(688,1212,o),
(837,1156,o),
(954,1056,o),
(1015,944,o),
(1015,944,o),
(1015,944,q),
(805,831,l),
(805,831,o),
(806,831,o),
(773,894,o),
(719,944,o),
(650,970,o),
(601,970,q),
(498,972,o),
(373,821,o),
(372,694,q),
(372,681,ls),
(372,562,o),
(495,406,o),
(599,406,qs),
(645,406,o),
(716,430,o),
(771,478,o),
(808,539,o),
(808,539,o),
(808,539,q),
(1019,435,l),
(1019,435,o),
(1019,435,o),
(958,323,o),
(839,220,o),
(690,164,o),
(591,164,qs)
);
},
{
closed = 1;
nodes = (
(511,687,l),
(511,1366,l),
(511,1366,o),
(511,1366,o),
(511,1366,q),
(679,1366,l),
(679,1366,o),
(679,1366,o),
(679,1366,q),
(679,687,l)
);
},
{
closed = 1;
nodes = (
(511,0,l),
(511,0,o),
(511,0,o),
(511,0,q),
(511,687,l),
(678,687,l),
(678,0,l),
(678,0,o),
(678,0,o),
(678,0,q)
);
}
);
width = 1103;
},
{
layerId = "B9481DB1-5939-4760-8C0A-E1CA4C5276BA";
shapes = (
{
closed = 1;
nodes = (
(402,166,o),
(125,467,o),
(125,692,q),
(125,692,l),
(125,914,o),
(401,1209,o),
(626,1209,qs),
(724,1209,o),
(873,1152,o),
(995,1050,o),
(1053,938,o),
(1053,938,o),
(1053,938,q),
(908,864,l),
(908,864,o),
(908,864,o),
(859,945,o),
(787,1011,o),
(692,1048,o),
(624,1048,q),
(481,1050,o),
(308,851,o),
(307,691,q),
(307,691,l),
(307,534,o),
(484,327,o),
(624,327,qs),
(690,327,o),
(788,363,o),
(864,427,o),
(915,506,o),
(915,506,o),
(915,506,q),
(1060,434,l),
(1060,434,o),
(1060,434,o),
(1001,328,o),
(877,224,o),
(723,166,o),
(626,166,qs)
);
},
{
closed = 1;
nodes = (
(553,690,l),
(553,1365,l),
(553,1365,o),
(553,1365,o),
(553,1365,q),
(692,1365,l),
(692,1365,o),
(692,1365,o),
(692,1365,q),
(692,690,l)
);
},
{
closed = 1;
nodes = (
(553,0,l),
(553,0,o),
(553,0,o),
(553,0,q),
(553,690,l),
(691,690,l),
(691,0,l),
(691,0,o),
(691,0,o),
(691,0,q)
);
}
);
width = 1140;
},
{
layerId = "2B9CF20A-12EE-404A-A917-16C5B0FAAE67";
shapes = (
{
closed = 1;
nodes = (
(371,166,o),
(125,449,o),
(125,658,qs),
(125,722,ls),
(125,934,o),
(375,1208,o),
(577,1208,qs),
(667,1208,o),
(803,1153,o),
(911,1054,o),
(963,944,o),
(963,944,o),
(963,944,q),
(822,873,l),
(822,873,o),
(822,873,o),
(779,957,o),
(716,1018,o),
(633,1050,o),
(575,1050,q),
(451,1052,o),
(303,868,o),
(302,722,q),
(302,656,ls),
(302,511,o),
(452,323,o),
(574,323,qs),
(632,323,o),
(717,356,o),
(783,416,o),
(829,500,o),
(829,500,o),
(829,500,q),
(969,432,l),
(969,432,o),
(969,432,o),
(915,323,o),
(805,222,o),
(666,166,o),
(576,166,qs)
);
},
{
closed = 1;
nodes = (
(510,692,l),
(510,1365,l),
(510,1365,o),
(510,1365,o),
(510,1365,q),
(638,1365,l),
(638,1365,o),
(638,1365,o),
(638,1365,q),
(638,692,l)
);
},
{
closed = 1;
nodes = (
(510,0,l),
(510,0,o),
(510,0,o),
(510,0,q),
(510,692,l),
(637,692,l),
(637,0,l),
(637,0,o),
(637,0,o),
(637,0,q)
);
}
);
width = 1055;
},
{
layerId = "B44B52C7-1267-447A-96E2-7C7AAD20E5C8";
shapes = (
{
closed = 1;
nodes = (
(376,166,o),
(122,471,o),
(122,694,q),
(122,694,l),
(122,917,o),
(384,1212,o),
(599,1212,qs),
(711,1212,o),
(864,1143,o),
(966,1035,o),
(1014,939,o),
(1014,939,o),
(1014,939,q),
(955,915,l),
(955,915,o),
(955,915,o),
(908,1006,o),
(821,1099,o),
(690,1153,o),
(592,1153,q),
(403,1154,o),
(187,896,o),
(186,693,q),
(186,693,l),
(186,490,o),
(409,224,o),
(592,224,qs),
(683,224,o),
(823,284,o),
(916,379,o),
(961,464,o),
(961,464,o),
(961,464,q),
(1021,442,l),
(1021,442,o),
(1021,442,o),
(969,344,o),
(861,236,o),
(701,166,o),
(598,166,qs)
);
},
{
closed = 1;
nodes = (
(563,685,l),
(563,1365,l),
(563,1365,o),
(563,1365,o),
(563,1365,q),
(624,1365,l),
(624,1365,o),
(624,1365,o),
(624,1365,q),
(624,685,l)
);
},
{
closed = 1;
nodes = (
(563,0,l),
(563,0,o),
(563,0,o),
(563,0,q),
(563,685,l),
(623,685,l),
(623,0,l),
(623,0,o),
(623,0,o),
(623,0,q)
);
}
);
width = 1119;
},
{
layerId = "6ABF3C13-8B80-436D-8B0B-86D4B5DD3694";
shapes = (
{
closed = 1;
nodes = (
(341,166,o),
(122,451,o),
(122,660,qs),
(122,724,ls),
(122,934,o),
(351,1208,o),
(539,1209,q),
(641,1209,o),
(780,1136,o),
(867,1031,o),
(906,939,o),
(906,939,o),
(906,939,q),
(849,916,l),
(849,916,o),
(849,916,o),
(811,1004,o),
(736,1096,o),
(621,1150,o),
(533,1150,q),
(369,1151,o),
(186,908,o),
(184,720,q),
(184,660,ls),
(184,470,o),
(374,224,o),
(535,224,qs),
(615,224,o),
(739,284,o),
(818,378,o),
(854,462,o),
(854,462,o),
(854,462,q),
(912,442,l),
(912,442,o),
(912,442,o),
(872,347,o),
(780,240,o),
(635,166,o),
(540,166,qs)
);
},
{
closed = 1;
nodes = (
(506,692,l),
(506,1365,l),
(506,1365,o),
(506,1365,o),
(506,1365,q),
(565,1365,l),
(565,1365,o),
(565,1365,o),
(565,1365,q),
(565,692,l)
);
},
{
closed = 1;
nodes = (
(506,0,l),
(506,0,o),
(506,0,o),
(506,0,q),
(506,692,l),
(564,692,l),
(564,0,l),
(564,0,o),
(564,0,o),
(564,0,q)
);
}
);
width = 1009;
},
{
layerId = "59C958D3-6A78-4F65-8339-2D9A5DB60795";
partSelection = {
Wd = 2;
Wt = 2;
};
name = Bold;
shapes = (
{
closed = 1;
nodes = (
(376,163,o),
(85,460,o),
(85,688,q),
(85,688,l),
(85,910,o),
(368,1211,o),
(608,1211,qs),
(711,1211,o),
(875,1151,o),
(1002,1044,o),
(1063,928,o),
(1063,928,o),
(1063,928,q),
(842,820,l),
(842,820,o),
(842,820,o),
(808,883,o),
(750,936,o),
(675,965,o),
(620,965,q),
(508,966,o),
(371,813,o),
(370,687,q),
(370,687,l),
(370,567,o),
(508,408,o),
(618,408,qs),
(669,408,o),
(747,434,o),
(807,485,o),
(845,546,o),
(845,546,o),
(845,546,q),
(1069,450,l),
(1069,450,o),
(1069,450,o),
(1009,337,o),
(878,225,o),
(714,163,o),
(608,163,qs)
);
},
{
closed = 1;
nodes = (
(523,687,l),
(523,1365,l),
(523,1365,o),
(523,1365,o),
(523,1365,q),
(704,1365,l),
(704,1365,o),
(704,1365,o),
(704,1365,q),
(704,687,l)
);
},
{
closed = 1;
nodes = (
(523,0,l),
(523,0,o),
(523,0,o),
(523,0,q),
(523,687,l),
(703,687,l),
(703,0,l),
(703,0,o),
(703,0,o),
(703,0,q)
);
}
);
width = 1140;
},
{
layerId = "49BE5530-6436-4DEF-AB33-C56410641787";
partSelection = {
Wd = 2;
Wt = 2;
};
name = CondensedBold;
shapes = (
{
closed = 1;
nodes = (
(367,164,o),
(93,461,o),
(93,684,qs),
(93,694,ls),
(93,915,o),
(364,1212,o),
(591,1212,qs),
(688,1212,o),
(837,1156,o),
(954,1056,o),
(1015,944,o),
(1015,944,o),
(1015,944,q),
(805,831,l),
(805,831,o),
(806,831,o),
(773,894,o),
(719,944,o),
(650,970,o),
(601,970,q),
(498,972,o),
(373,821,o),
(372,694,q),
(372,681,ls),
(372,562,o),
(495,406,o),
(599,406,qs),
(645,406,o),
(716,430,o),
(771,478,o),
(808,539,o),
(808,539,o),
(808,539,q),
(1019,435,l),
(1019,435,o),
(1019,435,o),
(958,323,o),
(839,220,o),
(690,164,o),
(591,164,qs)
);
},
{
closed = 1;
nodes = (
(511,687,l),
(511,1366,l),
(511,1366,o),
(511,1366,o),
(511,1366,q),
(679,1366,l),
(679,1366,o),
(679,1366,o),
(679,1366,q),
(679,687,l)
);
},
{
closed = 1;
nodes = (
(511,0,l),
(511,0,o),
(511,0,o),
(511,0,q),
(511,687,l),
(678,687,l),
(678,0,l),
(678,0,o),
(678,0,o),
(678,0,q)
);
}
);
width = 1103;
}
);
partsSettings = (
{
bottomValue = 0;
name = Wd;
topValue = 1000;
},
{
bottomValue = 0;
name = Wt;
topValue = 1000;
}
);
unicode = 162;
},
{
glyphname = currency;
layers = (
{
layerId = "FBB1375C-3A63-4BAF-915A-A70EF4A52AF6";
shapes = (
{
closed = 1;
nodes = (
(423,124,o),
(162,403,o),
(162,578,qs),
(162,753,o),
(423,1031,o),
(631,1031,qs),
(839,1031,o),
(1098,753,o),
(1098,578,qs),
(1098,403,o),
(838,124,o),
(630,124,qs)
);
},
{
closed = 1;
nodes = (
(699,425,o),
(781,508,o),
(781,578,qs),
(781,647,o),
(699,731,o),
(630,731,qs),
(563,731,o),
(477,647,o),
(477,578,qs),
(477,508,o),
(564,425,o),
(632,425,qs)
);
},
{
closed = 1;
nodes = (
(356,652,l),
(84,922,l),
(84,922,o),
(84,922,o),
(84,922,q),
(275,1109,l),
(275,1109,o),
(275,1109,o),
(275,1109,q),
(545,842,l)
);
},
{
closed = 1;
nodes = (
(904,652,l),
(715,841,l),
(985,1110,l),
(985,1110,o),
(985,1110,o),
(985,1110,q),
(1175,921,l),
(1175,921,o),
(1175,921,o),
(1175,921,q)
);
},
{
closed = 1;
nodes = (
(272,45,l),
(272,45,o),
(272,45,o),
(272,45,q),
(84,236,l),
(84,236,o),
(84,236,o),
(84,236,q),
(354,503,l),
(543,314,l)
);
},
{
closed = 1;
nodes = (
(715,313,l),
(904,503,l),
(1175,235,l),
(1175,235,o),
(1175,235,o),
(1175,235,q),
(986,45,l),
(986,45,o),
(986,45,o),
(986,45,q)
);
}
);
width = 1259;
},
{
layerId = "76B034D3-4D70-4D21-802E-5635595471DF";
shapes = (
{
closed = 1;
nodes = (
(402,126,o),
(152,399,o),
(152,579,qs),
(152,758,o),
(402,1029,o),
(599,1029,qs),
(795,1029,o),
(1042,758,o),
(1042,579,qs),
(1042,399,o),
(794,126,o),
(597,126,qs)
);
},
{
closed = 1;
nodes = (
(658,426,o),
(729,504,o),
(729,578,qs),
(729,651,o),
(658,729,o),
(597,729,qs),
(538,729,o),
(464,651,o),
(464,578,qs),
(464,504,o),
(539,426,o),
(599,426,qs)
);
},
{
closed = 1;
nodes = (
(328,667,l),
(77,925,l),
(77,925,o),
(77,925,o),
(77,925,q),
(268,1108,l),
(268,1108,o),
(268,1108,o),
(268,1108,q),
(517,854,l)
);
},
{
closed = 1;
nodes = (
(866,667,l),
(677,852,l),
(925,1109,l),
(925,1109,o),
(925,1109,o),
(925,1109,q),
(1116,925,l),
(1116,925,o),
(1116,925,o),
(1116,925,q)
);
},
{
closed = 1;
nodes = (
(267,47,l),
(267,47,o),
(267,47,o),
(267,47,q),
(77,232,l),
(77,232,o),
(77,232,o),
(77,232,q),
(326,486,l),
(515,302,l)
);
},
{
closed = 1;
nodes = (
(677,300,l),
(867,486,l),
(1116,231,l),
(1116,231,o),
(1116,231,o),
(1116,231,q),
(925,46,l),
(925,46,o),
(925,46,o),
(925,46,q)
);
}
);
width = 1193;
},
{
layerId = "B9481DB1-5939-4760-8C0A-E1CA4C5276BA";
shapes = (
{
closed = 1;
nodes = (
(428,133,o),
(177,404,o),
(177,578,qs),
(177,752,o),
(428,1022,o),
(620,1022,qs),
(813,1022,o),
(1063,752,o),
(1063,578,qs),
(1063,404,o),
(813,133,o),
(620,133,qs)
);
},
{
closed = 1;
nodes = (
(730,305,o),
(883,463,o),
(883,578,qs),
(883,692,o),
(730,851,o),
(620,851,qs),
(511,851,o),
(357,692,o),
(357,578,qs),
(357,463,o),
(512,305,o),
(621,305,qs)
);
},
{
closed = 1;
nodes = (
(323,756,l),
(112,967,l),
(112,967,o),
(112,967,o),
(112,967,q),
(231,1080,l),
(231,1080,o),
(231,1080,o),
(231,1080,q),
(439,875,l)
);
},
{
closed = 1;
nodes = (
(921,753,l),
(803,869,l),
(1013,1080,l),
(1013,1080,o),
(1013,1080,o),
(1013,1080,q),
(1127,962,l),
(1127,962,o),
(1127,962,o),
(1127,962,q)
);
},
{
closed = 1;
nodes = (
(225,74,l),
(225,74,o),
(225,74,o),
(225,74,q),
(112,193,l),
(112,193,o),
(112,193,o),
(112,193,q),
(318,401,l),
(436,285,l)
);
},
{
closed = 1;
nodes = (
(800,279,l),
(916,398,l),
(1127,187,l),
(1127,187,o),
(1127,187,o),
(1127,187,q),
(1008,74,l),
(1008,74,o),
(1008,74,o),
(1008,74,q)
);
}
);
width = 1240;
},
{
layerId = "2B9CF20A-12EE-404A-A917-16C5B0FAAE67";
shapes = (
{
closed = 1;
nodes = (
(384,134,o),
(161,388,o),
(161,579,qs),
(161,769,o),
(384,1021,o),
(559,1021,qs),
(735,1021,o),
(957,769,o),
(957,579,qs),
(957,388,o),
(735,134,o),
(559,134,qs)
);
},
{
closed = 1;
nodes = (
(657,302,o),
(782,450,o),
(782,578,qs),
(782,705,o),
(657,854,o),
(559,854,qs),
(462,854,o),
(336,705,o),
(336,578,qs),
(336,450,o),
(463,302,o),
(560,302,qs)
);
},
{
closed = 1;
nodes = (
(283,784,l),
(100,972,l),
(100,972,o),
(100,972,o),
(100,972,q),
(214,1079,l),
(214,1079,o),
(214,1079,o),
(214,1079,q),
(395,895,l)
);
},
{
closed = 1;
nodes = (
(837,782,l),
(724,890,l),
(906,1079,l),
(906,1079,o),
(906,1079,o),
(906,1079,q),
(1016,969,l),
(1016,969,o),
(1016,969,o),
(1016,969,q)
);
},
{
closed = 1;
nodes = (
(209,76,l),
(209,76,o),
(209,76,o),
(209,76,q),
(100,185,l),
(100,185,o),
(100,185,o),
(100,185,q),
(278,370,l),
(390,263,l)
);
},
{
closed = 1;
nodes = (
(722,259,l),
(834,370,l),
(1016,182,l),
(1016,182,o),
(1016,182,o),
(1016,182,q),
(902,75,l),
(902,75,o),
(902,75,o),
(902,75,q)
);
}
);
width = 1117;
},
{
layerId = "B44B52C7-1267-447A-96E2-7C7AAD20E5C8";
shapes = (
{
closed = 1;
nodes = (
(435,148,o),
(200,403,o),
(200,578,qs),
(200,753,o),
(435,1007,o),
(613,1007,qs),
(792,1007,o),
(1025,753,o),
(1025,578,qs),
(1025,403,o),
(792,148,o),
(613,148,qs)
);
},
{
closed = 1;
nodes = (
(759,209,o),
(958,419,o),
(958,578,qs),
(958,737,o),
(759,948,o),
(613,948,qs),
(469,948,o),
(267,737,o),
(267,578,qs),
(267,419,o),
(470,209,o),
(615,209,qs)
);
},
{
closed = 1;
nodes = (
(328,836,l),
(151,1015,l),
(151,1015,o),
(151,1015,o),
(151,1015,q),
(195,1060,l),
(195,1060,o),
(195,1060,o),
(195,1060,q),
(373,884,l)
);
},
{
closed = 1;
nodes = (
(896,836,l),
(853,884,l),
(1030,1060,l),
(1030,1060,o),
(1030,1060,o),
(1030,1060,q),
(1073,1015,l),
(1073,1015,o),
(1073,1015,o),
(1073,1015,q)
);
},
{
closed = 1;
nodes = (
(195,93,l),
(195,93,o),
(195,93,o),
(195,93,q),
(150,138,l),
(150,138,o),
(150,138,o),
(150,138,q),
(329,319,l),
(373,271,l)
);
},
{
closed = 1;
nodes = (
(851,269,l),
(896,318,l),
(1073,138,l),
(1073,138,o),
(1073,138,o),
(1073,138,q),
(1029,93,l),
(1029,93,o),
(1029,93,o),
(1029,93,q)
);
}
);
width = 1224;
},
{
layerId = "6ABF3C13-8B80-436D-8B0B-86D4B5DD3694";
shapes = (
{
closed = 1;
nodes = (
(395,149,o),
(189,392,o),
(189,579,qs),
(189,765,o),
(395,1006,o),
(559,1006,qs),
(723,1006,o),
(926,765,o),
(926,579,qs),
(926,392,o),
(723,149,o),
(559,149,qs)
);
},
{
closed = 1;
nodes = (
(692,209,o),
(860,411,o),
(860,578,qs),
(860,745,o),
(692,948,o),
(558,948,qs),
(426,948,o),
(255,745,o),
(255,578,qs),
(255,411,o),
(427,209,o),
(560,209,qs)
);
},
{
closed = 1;
nodes = (
(303,847,l),
(141,1017,l),
(141,1017,o),
(141,1017,o),
(141,1017,q),
(186,1061,l),
(186,1061,o),
(186,1061,o),
(186,1061,q),
(349,894,l)
);
},
{
closed = 1;
nodes = (
(811,848,l),
(768,893,l),
(929,1060,l),
(929,1060,o),
(929,1060,o),
(929,1060,q),
(973,1017,l),
(973,1017,o),
(973,1017,o),
(973,1017,q)
);
},
{
closed = 1;
nodes = (
(186,93,l),
(186,93,o),
(186,93,o),
(186,93,q),
(139,137,l),
(139,137,o),
(139,137,o),
(139,137,q),
(303,307,l),
(348,262,l)
);
},
{
closed = 1;
nodes = (
(765,260,l),
(811,307,l),
(973,137,l),
(973,137,o),
(973,137,o),
(973,137,q),
(928,93,l),
(928,93,o),
(928,93,o),
(928,93,q)
);
}
);
width = 1114;
}
);
unicode = 164;
},
{
glyphname = Euro;
layers = (
{
layerId = "FBB1375C-3A63-4BAF-915A-A70EF4A52AF6";
shapes = (
{
closed = 1;
nodes = (
(530,-37,o),
(178,356,o),
(178,718,q),
(178,718,l),
(178,1077,o),
(546,1471,o),
(839,1471,qs),
(944,1471,o),
(1095,1430,o),
(1230,1352,o),
(1320,1267,o),
(1320,1267,o),
(1320,1267,q),
(1046,1002,l),
(1046,1002,o),
(1046,1002,o),
(1005,1034,o),
(946,1064,o),
(884,1079,o),
(855,1079,qs),
(737,1079,o),
(606,912,o),
(606,718,q),
(606,718,l),
(606,523,o),
(735,353,o),
(849,353,qs),
(891,353,o),
(957,370,o),
(1014,402,o),
(1050,429,o),
(1050,429,o),
(1050,429,q),
(1321,163,l),
(1321,163,o),
(1321,163,o),
(1238,82,o),
(1098,4,o),
(929,-37,o),
(820,-37,qs)
);
},
{
closed = 1;
nodes = (
(58,761,l),
(58,761,o),
(58,761,o),
(58,761,q),
(58,953,l),
(58,953,o),
(58,953,o),
(58,953,q),
(985,953,l),
(985,953,o),
(985,953,o),
(985,953,q),
(985,761,l),
(985,761,o),
(985,761,o),
(985,761,q)
);
},
{
closed = 1;
nodes = (
(58,485,l),
(58,485,o),
(58,485,o),
(58,485,q),
(58,678,l),
(58,678,o),
(58,678,o),
(58,678,q),
(985,678,l),
(985,678,o),
(985,678,o),
(985,678,q),
(985,485,l),
(985,485,o),
(985,485,o),
(985,485,q)
);
}
);
width = 1374;
},
{
layerId = "76B034D3-4D70-4D21-802E-5635595471DF";
shapes = (
{
closed = 1;
nodes = (
(489,-34,o),
(164,347,o),
(164,719,q),
(164,718,l),
(164,1084,o),
(498,1468,o),
(773,1468,qs),
(879,1468,o),
(1032,1420,o),
(1160,1326,o),
(1238,1232,o),
(1238,1232,o),
(1238,1232,q),
(951,1002,l),
(951,1002,o),
(951,1002,o),
(917,1037,o),
(868,1067,o),
(816,1083,o),
(789,1083,qs),
(693,1083,o),
(586,938,o),
(586,750,qs),
(586,687,ls),
(586,498,o),
(693,349,o),
(786,349,qs),
(822,349,o),
(876,365,o),
(923,398,o),
(953,427,o),
(953,427,o),
(953,427,q),
(1239,196,l),
(1239,196,o),
(1239,196,o),
(1164,102,o),
(1033,13,o),
(869,-34,o),
(762,-34,qs)
);
},
{
closed = 1;
nodes = (
(54,761,l),
(54,761,o),
(54,761,o),
(54,761,q),
(54,951,l),
(54,951,o),
(54,951,o),
(54,951,q),
(951,951,l),
(951,951,o),
(951,951,o),
(951,951,q),
(951,761,l),
(951,761,o),
(951,761,o),
(951,761,q)
);
},
{
closed = 1;
nodes = (
(54,488,l),
(54,488,o),
(54,488,o),
(54,488,q),
(54,679,l),
(54,679,o),
(54,679,o),
(54,679,q),
(951,679,l),
(951,679,o),
(951,679,o),
(951,679,q),
(951,488,l),
(951,488,o),
(951,488,o),
(951,488,q)
);
}
);
width = 1289;
},
{
layerId = "B9481DB1-5939-4760-8C0A-E1CA4C5276BA";
shapes = (
{
closed = 1;
nodes = (
(499,-34,o),
(173,349,o),
(173,722,q),
(173,722,l),
(173,1075,o),
(488,1467,o),
(736,1467,qs),
(825,1467,o),
(979,1423,o),
(1108,1338,o),
(1184,1254,o),
(1184,1254,o),
(1184,1254,q),
(1039,1130,l),
(1039,1130,o),
(1039,1130,o),
(985,1190,o),
(898,1251,o),
(801,1281,o),
(740,1281,qs),
(573,1281,o),
(372,984,o),
(372,723,q),
(372,723,l),
(372,450,o),
(572,151,o),
(744,151,qs),
(805,151,o),
(898,180,o),
(986,236,o),
(1044,300,o),
(1044,300,o),
(1044,300,q),
(1190,182,l),
(1190,182,o),
(1190,182,o),
(1112,93,o),
(983,9,o),
(833,-34,o),
(742,-34,qs)
);
},
{
closed = 1;
nodes = (
(75,795,l),
(75,795,o),
(75,795,o),
(75,795,q),
(75,929,l),
(75,929,o),
(75,929,o),
(75,929,q),
(977,929,l),
(977,929,o),
(977,929,o),
(977,929,q),
(977,795,l),
(977,795,o),
(977,795,o),
(977,795,q)
);
},
{
closed = 1;
nodes = (
(75,510,l),
(75,510,o),
(75,510,o),
(75,510,q),
(75,644,l),
(75,644,o),
(75,644,o),
(75,644,q),
(977,644,l),
(977,644,o),
(977,644,o),
(977,644,q),
(977,510,l),
(977,510,o),
(977,510,o),
(977,510,q)
);
}
);
width = 1247;
},
{
layerId = "2B9CF20A-12EE-404A-A917-16C5B0FAAE67";
shapes = (
{
closed = 1;
nodes = (
(441,-30,o),
(159,317,o),
(159,672,qs),
(159,772,ls),
(159,1104,o),
(434,1463,o),
(655,1463,qs),
(741,1463,o),
(881,1417,o),
(994,1327,o),
(1058,1237,o),
(1058,1237,o),
(1058,1237,q),
(910,1129,l),
(910,1129,o),
(910,1129,o),
(864,1194,o),
(792,1254,o),
(712,1283,o),
(658,1283,qs),
(516,1283,o),
(352,1018,o),
(352,778,qs),
(352,665,ls),
(352,415,o),
(515,149,o),
(660,149,qs),
(713,149,o),
(792,177,o),
(865,235,o),
(916,307,o),
(916,307,o),
(916,307,q),
(1063,201,l),
(1063,201,o),
(1063,201,o),
(997,106,o),
(882,16,o),
(743,-30,o),
(657,-30,qs)
);
},
{
closed = 1;
nodes = (
(65,792,l),
(65,792,o),
(65,792,o),
(65,792,q),
(65,926,l),
(65,926,o),
(65,926,o),
(65,926,q),
(862,926,l),
(862,926,o),
(862,926,o),
(862,926,q),
(862,792,l),
(862,792,o),
(862,792,o),
(862,792,q)
);
},
{
closed = 1;
nodes = (
(65,513,l),
(65,513,o),
(65,513,o),
(65,513,q),
(65,647,l),
(65,647,o),
(65,647,o),
(65,647,q),
(862,647,l),
(862,647,o),
(862,647,o),
(862,647,q),
(862,513,l),
(862,513,o),
(862,513,o),
(862,513,q)
);
}
);
width = 1119;
},
{
layerId = "B44B52C7-1267-447A-96E2-7C7AAD20E5C8";
shapes = (
{
closed = 1;
nodes = (
(516,-29,o),
(224,361,o),
(224,721,q),
(224,721,l),
(224,1076,o),
(515,1462,o),
(744,1462,qs),
(838,1462,o),
(990,1406,o),
(1109,1310,o),
(1164,1242,o),
(1164,1242,o),
(1164,1242,q),
(1114,1202,l),
(1114,1202,o),
(1114,1202,o),
(1060,1270,o),
(956,1354,o),
(824,1400,o),
(745,1400,qs),
(541,1400,o),
(291,1043,o),
(291,722,q),
(291,722,l),
(291,397,o),
(542,32,o),
(748,32,qs),
(820,32,o),
(944,74,o),
(1052,154,o),
(1116,228,o),
(1116,228,o),
(1116,228,q),
(1166,191,l),
(1166,191,o),
(1166,191,o),
(1100,108,o),
(978,17,o),
(832,-29,o),
(748,-29,qs)
);
},
{
closed = 1;
nodes = (
(119,830,l),
(119,830,o),
(119,830,o),
(119,830,q),
(119,891,l),
(119,891,o),
(119,891,o),
(119,891,q),
(994,891,l),
(994,891,o),
(994,891,o),
(994,891,q),
(994,830,l),
(994,830,o),
(994,830,o),
(994,830,q)
);
},
{
closed = 1;
nodes = (
(119,549,l),
(119,549,o),
(119,549,o),
(119,549,q),
(119,610,l),
(119,610,o),
(119,610,o),
(119,610,q),
(994,610,l),
(994,610,o),
(994,610,o),
(994,610,q),
(994,549,l),
(994,549,o),
(994,549,o),
(994,549,q)
);
}
);
width = 1286;
},
{
layerId = "6ABF3C13-8B80-436D-8B0B-86D4B5DD3694";
shapes = (
{
closed = 1;
nodes = (
(461,-25,o),
(210,323,o),
(210,666,qs),
(210,776,ls),
(210,1113,o),
(461,1458,o),
(660,1458,qs),
(745,1458,o),
(881,1403,o),
(983,1305,o),
(1030,1230,o),
(1030,1230,o),
(1030,1230,q),
(979,1194,l),
(979,1194,o),
(979,1194,o),
(934,1266,o),
(846,1352,o),
(733,1397,o),
(661,1397,qs),
(489,1397,o),
(275,1083,o),
(275,777,qs),
(275,665,ls),
(275,356,o),
(488,35,o),
(665,35,qs),
(732,35,o),
(840,79,o),
(929,162,o),
(981,240,o),
(981,240,o),
(981,240,q),
(1032,206,l),
(1032,206,o),
(1032,206,o),
(979,120,o),
(876,25,o),
(744,-25,o),
(663,-25,qs)
);
},
{
closed = 1;
nodes = (
(108,827,l),
(108,827,o),
(108,827,o),
(108,827,q),
(108,888,l),
(108,888,o),
(108,888,o),
(108,888,q),
(875,888,l),
(875,888,o),
(875,888,o),
(875,888,q),
(875,827,l),
(875,827,o),
(875,827,o),
(875,827,q)
);
},
{
closed = 1;
nodes = (
(108,552,l),
(108,552,o),
(108,552,o),
(108,552,q),
(108,613,l),
(108,613,o),
(108,613,o),
(108,613,q),
(875,613,l),
(875,613,o),
(875,613,o),
(875,613,q),
(875,552,l),
(875,552,o),
(875,552,o),
(875,552,q)
);
}
);
width = 1142;
}
);
unicode = 8364;
},
{
glyphname = ampersand;
layers = (
{
layerId = "FBB1375C-3A63-4BAF-915A-A70EF4A52AF6";
shapes = (
{
closed = 1;
nodes = (
(1233,-63,l),
(1233,-63,o),
(1233,-63,o),
(1233,-63,q),
(437,777,ls),
(364,854,o),
(271,1010,o),
(271,1105,q),
(271,1105,l),
(271,1257,o),
(532,1471,o),
(748,1471,qs),
(856,1471,o),
(1032,1410,o),
(1170,1298,o),
(1236,1210,o),
(1236,1210,o),
(1236,1210,q),
(944,1038,l),
(944,1038,o),
(944,1038,o),
(915,1078,o),
(879,1113,o),
(829,1137,o),
(800,1137,qs),
(761,1137,o),
(717,1096,o),
(717,1066,q),
(717,1066,l),
(717,1035,o),
(763,978,o),
(807,933,qs),
(1520,192,l),
(1520,192,o),
(1520,192,o),
(1520,192,q)
);
},
{
closed = 1;
nodes = (
(417,-37,o),
(72,255,o),
(72,472,q),
(72,472,l),
(72,634,o),
(274,877,o),
(445,942,q),
(660,664,l),
(577,632,o),
(507,544,o),
(507,483,q),
(507,483,l),
(507,417,o),
(619,317,o),
(731,317,qs),
(833,317,o),
(1010,427,o),
(1137,591,o),
(1211,775,o),
(1211,775,o),
(1211,775,q),
(1542,656,l),
(1542,656,o),
(1542,656,o),
(1446,401,o),
(1238,138,o),
(925,-37,o),
(725,-37,qs)
);
}
);
width = 1579;
},
{
layerId = "76B034D3-4D70-4D21-802E-5635595471DF";
shapes = (
{
closed = 1;
nodes = (
(1137,-59,l),
(1137,-59,o),
(1137,-59,o),
(1137,-59,q),
(403,781,ls),
(334,861,o),
(248,1015,o),
(248,1107,q),
(248,1107,l),
(248,1259,o),
(499,1468,o),
(704,1468,qs),
(807,1468,o),
(972,1409,o),
(1100,1301,o),
(1168,1200,o),
(1168,1200,o),
(1168,1200,q),
(880,1040,l),
(880,1040,o),
(880,1040,o),
(852,1082,o),
(820,1117,o),
(776,1140,o),
(751,1140,qs),
(713,1140,o),
(671,1100,o),
(671,1069,q),
(671,1069,l),
(671,1038,o),
(713,980,o),
(755,935,q),
(1426,181,l),
(1426,181,o),
(1426,181,o),
(1426,181,q)
);
},
{
closed = 1;
nodes = (
(389,-34,o),
(65,248,o),
(65,470,q),
(65,469,l),
(65,631,o),
(255,871,o),
(420,938,q),
(621,658,l),
(549,628,o),
(484,541,o),
(484,480,q),
(484,480,l),
(484,412,o),
(585,316,o),
(684,316,qs),
(774,316,o),
(939,427,o),
(1055,590,o),
(1116,773,o),
(1116,773,o),
(1116,773,q),
(1439,668,l),
(1439,668,o),
(1439,668,o),
(1360,416,o),
(1168,146,o),
(865,-34,o),
(674,-34,qs)
);
}
);
width = 1479;
},
{
layerId = "B9481DB1-5939-4760-8C0A-E1CA4C5276BA";
shapes = (
{
closed = 1;
nodes = (
(1169,-34,l),
(1169,-34,o),
(1169,-34,o),
(1169,-34,q),
(423,807,ls),
(351,888,o),
(264,1050,o),
(264,1136,q),
(264,1136,l),
(264,1278,o),
(470,1467,o),
(631,1467,qs),
(714,1467,o),
(840,1422,o),
(947,1337,o),
(1015,1237,o),
(1015,1237,o),
(1015,1237,q),
(870,1128,l),
(870,1128,o),
(870,1128,o),
(817,1202,o),
(754,1257,o),
(683,1287,o),
(641,1287,qs),
(560,1287,o),
(462,1200,o),
(462,1127,q),
(462,1127,l),
(462,1082,o),
(517,976,o),
(583,904,q),
(1305,84,l),
(1305,84,o),
(1305,84,o),
(1305,84,q)
);
},
{
closed = 1;
nodes = (
(368,-34,o),
(86,242,o),
(86,461,q),
(86,461,l),
(86,627,o),
(285,881,o),
(425,926,q),
(527,785,l),
(411,742,o),
(287,579,o),
(287,464,q),
(287,464,l),
(287,324,o),
(466,144,o),
(625,144,qs),
(738,144,o),
(929,260,o),
(1062,444,o),
(1146,655,o),
(1146,655,o),
(1146,655,q),
(1313,591,l),
(1313,591,o),
(1313,591,o),
(1215,340,o),
(1035,105,o),
(782,-34,o),
(617,-34,qs)
);
}
);
width = 1360;
},
{
layerId = "2B9CF20A-12EE-404A-A917-16C5B0FAAE67";
shapes = (
{
closed = 1;
nodes = (
(1027,-30,l),
(1027,-30,o),
(1027,-30,o),
(1027,-30,q),
(371,808,ls),
(305,893,o),
(226,1053,o),
(226,1134,qs),
(226,1145,ls),
(226,1283,o),
(418,1463,o),
(568,1463,qs),
(646,1463,o),
(763,1416,o),
(859,1328,o),
(919,1224,o),
(919,1224,o),
(919,1224,q),
(770,1130,l),
(770,1130,o),
(770,1130,o),
(725,1202,o),
(672,1256,o),
(611,1285,o),
(574,1285,qs),
(502,1285,o),
(417,1205,o),
(417,1136,qs),
(417,1130,ls),
(417,1080,o),
(470,972,o),
(532,897,q),
(1167,78,l),
(1167,78,o),
(1167,78,o),
(1167,78,q)
);
},
{
closed = 1;
nodes = (
(327,-30,o),
(73,225,o),
(73,438,qs),
(73,463,ls),
(73,627,o),
(249,870,o),
(385,921,q),
(480,775,l),
(375,734,o),
(268,580,o),
(268,464,qs),
(268,443,ls),
(268,308,o),
(421,145,o),
(559,145,qs),
(665,145,o),
(837,270,o),
(948,452,o),
(1014,649,o),
(1014,649,o),
(1014,649,q),
(1180,590,l),
(1180,590,o),
(1180,590,o),
(1105,365,o),
(949,123,o),
(708,-30,o),
(551,-30,qs)
);
}
);
width = 1219;
},
{
layerId = "B44B52C7-1267-447A-96E2-7C7AAD20E5C8";
shapes = (
{
closed = 1;
nodes = (
(1194,-28,l),
(1194,-28,o),
(1194,-28,o),
(1194,-28,q),
(476,807,ls),
(406,888,o),
(306,1054,o),
(306,1154,q),
(306,1155,l),
(306,1283,o),
(479,1462,o),
(631,1462,qs),
(731,1462,o),
(863,1386,o),
(938,1296,o),
(978,1215,o),
(978,1215,o),
(978,1215,q),
(922,1187,l),
(922,1187,o),
(922,1187,o),
(881,1266,o),
(808,1351,o),
(704,1402,o),
(632,1402,qs),
(511,1402,o),
(373,1261,o),
(373,1154,q),
(373,1153,l),
(373,1069,o),
(478,905,o),
(525,850,qs),
(1243,13,l),
(1243,13,o),
(1243,13,o),
(1243,13,q)
);
},
{
closed = 1;
nodes = (
(414,-29,o),
(141,241,o),
(141,452,q),
(141,452,l),
(141,620,o),
(320,850,o),
(452,900,q),
(487,851,l),
(372,809,o),
(210,603,o),
(210,453,q),
(210,453,l),
(210,268,o),
(442,32,o),
(634,32,qs),
(798,32,o),
(1035,220,o),
(1169,453,o),
(1214,572,o),
(1214,572,o),
(1214,572,q),
(1274,551,l),
(1274,551,o),
(1274,551,o),
(1226,427,o),
(1091,186,o),
(838,-29,o),
(631,-29,qs)
);
}
);
width = 1356;
},
{
layerId = "6ABF3C13-8B80-436D-8B0B-86D4B5DD3694";
shapes = (
{
closed = 1;
nodes = (
(1063,-25,l),
(1063,-25,o),
(1063,-25,o),
(1063,-25,q),
(430,807,ls),
(365,892,o),
(272,1058,o),
(272,1158,qs),
(272,1163,ls),
(272,1289,o),
(428,1458,o),
(567,1458,qs),
(658,1458,o),
(778,1386,o),
(847,1294,o),
(882,1209,o),
(882,1209,o),
(882,1209,q),
(825,1182,l),
(825,1182,o),
(825,1182,o),
(790,1262,o),
(724,1349,o),
(631,1399,o),
(567,1399,qs),
(459,1399,o),
(338,1266,o),
(338,1162,qs),
(338,1157,ls),
(338,1071,o),
(432,910,o),
(478,851,q),
(1113,14,l),
(1113,14,o),
(1113,14,o),
(1113,14,q)
);
},
{
closed = 1;
nodes = (
(367,-25,o),
(129,227,o),
(129,428,qs),
(129,444,ls),
(129,617,o),
(294,843,o),
(414,892,q),
(448,842,l),
(343,801,o),
(197,600,o),
(197,445,qs),
(197,428,ls),
(197,254,o),
(397,36,o),
(566,36,qs),
(709,36,o),
(918,210,o),
(1032,456,o),
(1067,577,o),
(1067,577,o),
(1067,577,q),
(1128,557,l),
(1128,557,o),
(1128,557,o),
(1091,432,o),
(975,177,o),
(743,-25,o),
(563,-25,qs)
);
}
);
width = 1211;
}
);
unicode = 38;
},
{
glyphname = quotesingle;
layers = (
{
layerId = "FBB1375C-3A63-4BAF-915A-A70EF4A52AF6";
shapes = (
{
closed = 1;
nodes = (
(165,878,l),
(165,878,o),
(165,878,o),
(165,878,q),
(165,1473,l),
(165,1473,o),
(165,1473,o),
(165,1473,q),
(547,1473,l),
(547,1473,o),
(547,1473,o),
(547,1473,q),
(547,878,l),
(547,878,o),
(547,878,o),
(547,878,q)
);
}
);
width = 711;
},
{
layerId = "76B034D3-4D70-4D21-802E-5635595471DF";
shapes = (
{
closed = 1;
nodes = (
(154,892,l),
(154,892,o),
(154,892,o),
(154,892,q),
(154,1473,l),
(154,1473,o),
(154,1473,o),
(154,1473,q),
(520,1473,l),
(520,1473,o),
(520,1473,o),
(520,1473,q),
(520,892,l),
(520,892,o),
(520,892,o),
(520,892,q)
);
}
);
width = 674;
},
{
layerId = "B9481DB1-5939-4760-8C0A-E1CA4C5276BA";
shapes = (
{
closed = 1;
nodes = (
(177,941,l),
(177,941,o),
(177,941,o),
(177,941,q),
(177,1473,l),
(177,1473,o),
(177,1473,o),
(177,1473,q),
(353,1473,l),
(353,1473,o),
(353,1473,o),
(353,1473,q),
(353,941,l),
(353,941,o),
(353,941,o),
(353,941,q)
);
}
);
width = 530;
},
{
layerId = "2B9CF20A-12EE-404A-A917-16C5B0FAAE67";
shapes = (
{
closed = 1;
nodes = (
(170,953,l),
(170,953,o),
(170,953,o),
(170,953,q),
(170,1473,l),
(170,1473,o),
(170,1473,o),
(170,1473,q),
(343,1473,l),
(343,1473,o),
(343,1473,o),
(343,1473,q),
(343,953,l),
(343,953,o),
(343,953,o),
(343,953,q)
);
}
);
width = 514;
},
{
layerId = "B44B52C7-1267-447A-96E2-7C7AAD20E5C8";
shapes = (
{
closed = 1;
nodes = (
(228,976,l),
(228,976,o),
(228,976,o),
(228,976,q),
(228,1473,l),
(228,1473,o),
(228,1473,o),
(228,1473,q),
(295,1473,l),
(295,1473,o),
(295,1473,o),
(295,1473,q),
(295,976,l),
(295,976,o),
(295,976,o),
(295,976,q)
);
}
);
width = 523;
},
{
layerId = "6ABF3C13-8B80-436D-8B0B-86D4B5DD3694";
shapes = (
{
closed = 1;
nodes = (
(215,986,l),
(215,986,o),
(215,986,o),
(215,986,q),
(215,1473,l),
(215,1473,o),
(215,1473,o),
(215,1473,q),
(281,1473,l),
(281,1473,o),
(281,1473,o),
(281,1473,q),
(281,986,l),
(281,986,o),
(281,986,o),
(281,986,q)
);
}
);
width = 497;
}
);
leftKerningGroup = quotedbl2;
rightKerningGroup = quotedbl;
unicode = 39;
},
{
glyphname = parenleft;
layers = (
{
layerId = "FBB1375C-3A63-4BAF-915A-A70EF4A52AF6";
shapes = (
{
closed = 1;
nodes = (
(502,527,o),
(566,310,o),
(661,122,o),
(795,-93,o),
(795,-93,o),
(795,-93,q),
(457,-291,l),
(457,-291,o),
(457,-291,o),
(294,-53,o),
(163,214,o),
(92,502,o),
(92,662,qs),
(92,840,o),
(172,1139,o),
(309,1413,o),
(457,1622,o),
(457,1622,o),
(457,1622,q),
(796,1423,l),
(796,1423,o),
(796,1423,o),
(662,1214,o),
(562,1013,o),
(502,795,o),
(502,662,qs)
);
}
);
width = 862;
},
{
layerId = "76B034D3-4D70-4D21-802E-5635595471DF";
shapes = (
{
closed = 1;
nodes = (
(501,528,o),
(559,312,o),
(646,124,o),
(776,-96,o),
(776,-96,o),
(776,-96,q),
(437,-290,l),
(437,-290,o),
(437,-290,o),
(281,-49,o),
(158,215,o),
(91,502,o),
(91,663,qs),
(91,841,o),
(167,1139,o),
(295,1409,o),
(437,1621,o),
(437,1621,o),
(437,1621,q),
(777,1426,l),
(777,1426,o),
(777,1426,o),
(647,1212,o),
(555,1011,o),
(501,794,o),
(501,662,qs)
);
}
);
width = 835;
},
{
layerId = "B9481DB1-5939-4760-8C0A-E1CA4C5276BA";
shapes = (
{
closed = 1;
nodes = (
(319,517,o),
(387,254,o),
(507,22,o),
(641,-165,o),
(641,-165,o),
(641,-165,q),
(493,-266,l),
(493,-266,o),
(493,-266,o),
(347,-64,o),
(209,202,o),
(130,492,o),
(130,663,qs),
(130,834,o),
(209,1124,o),
(347,1390,o),
(493,1592,o),
(493,1592,o),
(493,1592,q),
(641,1491,l),
(641,1491,o),
(641,1491,o),
(507,1304,o),
(387,1073,o),
(319,809,o),
(319,663,qs)
);
}
);
width = 706;
},
{
layerId = "2B9CF20A-12EE-404A-A917-16C5B0FAAE67";
shapes = (
{
closed = 1;
nodes = (
(303,519,o),
(364,257,o),
(476,23,o),
(606,-167,o),
(606,-167,o),
(606,-167,q),
(459,-266,l),
(459,-266,o),
(459,-266,o),
(316,-62,o),
(187,206,o),
(115,494,o),
(115,663,qs),
(115,832,o),
(187,1120,o),
(316,1388,o),
(459,1592,o),
(459,1592,o),
(459,1592,q),
(606,1493,l),
(606,1493,o),
(606,1493,o),
(476,1303,o),
(364,1070,o),
(303,807,o),
(303,663,qs)
);
}
);
width = 664;
},
{
layerId = "B44B52C7-1267-447A-96E2-7C7AAD20E5C8";
shapes = (
{
closed = 1;
nodes = (
(219,483,o),
(303,192,o),
(456,-74,o),
(576,-223,o),
(576,-223,o),
(576,-223,q),
(524,-263,l),
(524,-263,o),
(524,-263,o),
(399,-111,o),
(241,171,o),
(150,467,o),
(150,665,qs),
(150,862,o),
(241,1157,o),
(403,1440,o),
(524,1592,o),
(524,1592,o),
(524,1592,q),
(576,1551,l),
(576,1551,o),
(576,1551,o),
(456,1403,o),
(303,1137,o),
(219,845,o),
(219,664,qs)
);
}
);
width = 680;
},
{
layerId = "6ABF3C13-8B80-436D-8B0B-86D4B5DD3694";
shapes = (
{
closed = 1;
nodes = (
(208,484,o),
(284,193,o),
(426,-72,o),
(544,-223,o),
(544,-223,o),
(544,-223,q),
(492,-263,l),
(492,-263,o),
(492,-263,o),
(369,-108,o),
(223,172,o),
(140,469,o),
(140,665,qs),
(140,860,o),
(223,1156,o),
(373,1437,o),
(492,1592,o),
(492,1592,o),
(492,1592,q),
(544,1551,l),
(544,1551,o),
(544,1551,o),
(426,1401,o),
(284,1136,o),
(208,844,o),
(208,664,qs)
);
}
);
width = 635;
}
);
unicode = 40;
},
{
glyphname = parenright;
layers = (
{
layerId = "FBB1375C-3A63-4BAF-915A-A70EF4A52AF6";
shapes = (
{
closed = 1;
nodes = (
(361,804,o),
(296,1022,o),
(201,1209,o),
(67,1424,o),
(67,1424,o),
(67,1424,q),
(405,1622,l),
(405,1622,o),
(405,1622,o),
(568,1384,o),
(700,1117,o),
(770,829,o),
(770,669,qs),
(770,491,o),
(691,192,o),
(553,-82,o),
(405,-291,o),
(405,-291,o),
(405,-291,q),
(65,-92,l),
(65,-92,o),
(65,-92,o),
(200,117,o),
(300,318,o),
(361,536,o),
(361,669,qs)
);
}
);
width = 862;
},
{
layerId = "76B034D3-4D70-4D21-802E-5635595471DF";
shapes = (
{
closed = 1;
nodes = (
(335,803,o),
(276,1020,o),
(190,1207,o),
(59,1427,o),
(59,1427,o),
(59,1427,q),
(398,1621,l),
(398,1621,o),
(398,1621,o),
(554,1380,o),
(678,1116,o),
(744,829,o),
(744,669,qs),
(744,490,o),
(669,192,o),
(540,-78,o),
(398,-290,o),
(398,-290,o),
(398,-290,q),
(57,-95,l),
(57,-95,o),
(57,-95,o),
(189,119,o),
(280,320,o),
(335,537,o),
(335,669,qs)
);
}
);
width = 835;
},
{
layerId = "B9481DB1-5939-4760-8C0A-E1CA4C5276BA";
shapes = (
{
closed = 1;
nodes = (
(388,809,o),
(319,1073,o),
(199,1304,o),
(65,1491,o),
(65,1491,o),
(65,1491,q),
(213,1592,l),
(213,1592,o),
(213,1592,o),
(359,1390,o),
(498,1124,o),
(576,834,o),
(576,663,qs),
(576,492,o),
(498,202,o),
(359,-64,o),
(213,-266,o),
(213,-266,o),
(213,-266,q),
(65,-165,l),
(65,-165,o),
(65,-165,o),
(199,22,o),
(319,253,o),
(388,517,o),
(388,663,qs)
);
}
);
width = 706;
},
{
layerId = "2B9CF20A-12EE-404A-A917-16C5B0FAAE67";
shapes = (
{
closed = 1;
nodes = (
(362,807,o),
(300,1070,o),
(188,1303,o),
(58,1493,o),
(58,1493,o),
(58,1493,q),
(205,1592,l),
(205,1592,o),
(205,1592,o),
(348,1388,o),
(478,1120,o),
(549,832,o),
(549,663,qs),
(549,494,o),
(478,206,o),
(348,-62,o),
(205,-266,o),
(205,-266,o),
(205,-266,q),
(58,-167,l),
(58,-167,o),
(58,-167,o),
(188,23,o),
(300,256,o),
(362,519,o),
(362,663,qs)
);
}
);
width = 664;
},
{
layerId = "B44B52C7-1267-447A-96E2-7C7AAD20E5C8";
shapes = (
{
closed = 1;
nodes = (
(463,845,o),
(377,1137,o),
(224,1403,o),
(104,1551,o),
(104,1551,o),
(104,1551,q),
(156,1592,l),
(156,1592,o),
(156,1592,o),
(281,1439,o),
(441,1157,o),
(530,862,o),
(530,665,qs),
(530,467,o),
(441,171,o),
(277,-111,o),
(156,-263,o),
(156,-263,o),
(156,-263,q),
(104,-223,l),
(104,-223,o),
(104,-223,o),
(224,-74,o),
(377,192,o),
(463,483,o),
(463,664,qs)
);
}
);
width = 680;
},
{
layerId = "6ABF3C13-8B80-436D-8B0B-86D4B5DD3694";
shapes = (
{
closed = 1;
nodes = (
(429,844,o),
(351,1136,o),
(210,1401,o),
(92,1551,o),
(92,1551,o),
(92,1551,q),
(144,1592,l),
(144,1592,o),
(144,1592,o),
(267,1436,o),
(415,1156,o),
(496,860,o),
(496,665,qs),
(496,469,o),
(415,172,o),
(263,-108,o),
(144,-263,o),
(144,-263,o),
(144,-263,q),
(92,-223,l),
(92,-223,o),
(92,-223,o),
(210,-72,o),
(351,193,o),
(429,484,o),
(429,664,qs)
);
}
);
width = 635;
}
);
unicode = 41;
},
{
glyphname = asterisk;
layers = (
{
layerId = "FBB1375C-3A63-4BAF-915A-A70EF4A52AF6";
shapes = (
{
closed = 1;
nodes = (
(129,743,l),
(129,743,o),
(129,743,o),
(129,743,q),
(343,987,l),
(341,999,l),
(49,1085,l),
(49,1085,o),
(49,1085,o),
(49,1085,q),
(150,1352,l),
(150,1352,o),
(150,1352,o),
(150,1352,q),
(412,1224,l),
(422,1233,l),
(402,1524,l),
(402,1524,o),
(402,1524,o),
(402,1524,q),
(696,1524,l),
(696,1524,o),
(696,1524,o),
(696,1524,q),
(677,1233,l),
(687,1225,l),
(949,1352,l),
(949,1352,o),
(949,1352,o),
(949,1352,q),
(1047,1087,l),
(1047,1087,o),
(1047,1087,o),
(1047,1087,q),
(760,999,l),
(759,987,l),
(970,745,l),
(970,745,o),
(970,745,o),
(970,745,q),
(727,582,l),
(727,582,o),
(727,582,o),
(727,582,q),
(554,852,l),
(545,852,l),
(373,583,l),
(373,583,o),
(373,583,o),
(373,583,q)
);
}
);
width = 1097;
},
{
layerId = "76B034D3-4D70-4D21-802E-5635595471DF";
shapes = (
{
closed = 1;
nodes = (
(121,773,l),
(121,773,o),
(121,773,o),
(121,773,q),
(325,1006,l),
(323,1018,l),
(43,1100,l),
(43,1100,o),
(43,1100,o),
(43,1100,q),
(142,1360,l),
(142,1360,o),
(142,1360,o),
(142,1360,q),
(392,1235,l),
(402,1243,l),
(382,1522,l),
(382,1522,o),
(382,1522,o),
(382,1522,q),
(666,1522,l),
(666,1522,o),
(666,1522,o),
(666,1522,q),
(647,1243,l),
(657,1236,l),
(908,1360,l),
(908,1360,o),
(908,1360,o),
(908,1360,q),
(1004,1101,l),
(1004,1101,o),
(1004,1101,o),
(1004,1101,q),
(728,1018,l),
(726,1006,l),
(929,775,l),
(929,775,o),
(929,775,o),
(929,775,q),
(693,618,l),
(693,618,o),
(693,618,o),
(693,618,q),
(529,876,l),
(519,876,l),
(357,617,l),
(357,617,o),
(357,617,o),
(357,617,q)
);
}
);
width = 1048;
},
{
layerId = "B9481DB1-5939-4760-8C0A-E1CA4C5276BA";
shapes = (
{
closed = 1;
nodes = (
(172,828,l),
(172,828,o),
(172,828,o),
(172,828,q),
(346,1058,l),
(342,1073,l),
(83,1148,l),
(83,1148,o),
(83,1148,o),
(83,1148,q),
(134,1299,l),
(134,1299,o),
(134,1299,o),
(134,1299,q),
(386,1210,l),
(396,1218,l),
(392,1488,l),
(392,1488,o),
(392,1488,o),
(392,1488,q),
(551,1488,l),
(551,1488,o),
(551,1488,o),
(551,1488,q),
(547,1218,l),
(557,1210,l),
(809,1300,l),
(809,1300,o),
(809,1300,o),
(809,1300,q),
(860,1148,l),
(860,1148,o),
(860,1148,o),
(860,1148,q),
(601,1073,l),
(596,1059,l),
(771,828,l),
(771,828,o),
(771,828,o),
(771,828,q),
(640,733,l),
(640,733,o),
(640,733,o),
(640,733,q),
(478,971,l),
(465,971,l),
(302,733,l),
(302,733,o),
(302,733,o),
(302,733,q)
);
}
);
width = 943;
},
{
layerId = "2B9CF20A-12EE-404A-A917-16C5B0FAAE67";
shapes = (
{
closed = 1;
nodes = (
(155,855,l),
(155,855,o),
(155,855,o),
(155,855,q),
(320,1075,l),
(316,1090,l),
(69,1162,l),
(69,1162,o),
(69,1162,o),
(69,1162,q),
(119,1308,l),
(119,1308,o),
(119,1308,o),
(119,1308,q),
(359,1223,l),
(369,1230,l),
(365,1488,l),
(365,1488,o),
(365,1488,o),
(365,1488,q),
(519,1488,l),
(519,1488,o),
(519,1488,o),
(519,1488,q),
(515,1230,l),
(525,1223,l),
(765,1309,l),
(765,1309,o),
(765,1309,o),
(765,1309,q),
(814,1162,l),
(814,1162,o),
(814,1162,o),
(814,1162,q),
(568,1090,l),
(563,1076,l),
(730,855,l),
(730,855,o),
(730,855,o),
(730,855,q),
(602,764,l),
(602,764,o),
(602,764,o),
(602,764,q),
(448,991,l),
(435,991,l),
(281,764,l),
(281,764,o),
(281,764,o),
(281,764,q)
);
}
);
width = 884;
},
{
layerId = "B44B52C7-1267-447A-96E2-7C7AAD20E5C8";
shapes = (
{
closed = 1;
nodes = (
(196,844,l),
(196,844,o),
(196,844,o),
(196,844,q),
(395,1113,l),
(394,1116,l),
(90,1213,l),
(90,1213,o),
(90,1213,o),
(90,1213,q),
(112,1277,l),
(112,1277,o),
(112,1277,o),
(112,1277,q),
(407,1175,l),
(408,1176,l),
(405,1484,l),
(405,1484,o),
(405,1484,o),
(405,1484,q),
(471,1484,l),
(471,1484,o),
(471,1484,o),
(471,1484,q),
(469,1176,l),
(470,1174,l),
(767,1277,l),
(767,1277,o),
(767,1277,o),
(767,1277,q),
(788,1213,l),
(788,1213,o),
(788,1213,o),
(788,1213,q),
(484,1117,l),
(484,1113,l),
(681,844,l),
(681,844,o),
(681,844,o),
(681,844,q),
(628,803,l),
(628,803,o),
(628,803,o),
(628,803,q),
(440,1073,l),
(439,1073,l),
(251,802,l),
(251,802,o),
(251,802,o),
(251,802,q)
);
}
);
width = 878;
},
{
layerId = "6ABF3C13-8B80-436D-8B0B-86D4B5DD3694";
shapes = (
{
closed = 1;
nodes = (
(183,865,l),
(183,865,o),
(183,865,o),
(183,865,q),
(374,1124,l),
(373,1128,l),
(80,1221,l),
(80,1221,o),
(80,1221,o),
(80,1221,q),
(102,1285,l),
(102,1285,o),
(102,1285,o),
(102,1285,q),
(386,1186,l),
(387,1187,l),
(384,1484,l),
(384,1484,o),
(384,1484,o),
(384,1484,q),
(449,1484,l),
(449,1484,o),
(449,1484,o),
(449,1484,q),
(447,1187,l),
(448,1185,l),
(734,1285,l),
(734,1285,o),
(734,1285,o),
(734,1285,q),
(754,1221,l),
(754,1221,o),
(754,1221,o),
(754,1221,q),
(463,1129,l),
(462,1124,l),
(652,865,l),
(652,865,o),
(652,865,o),
(652,865,q),
(599,825,l),
(599,825,o),
(599,825,o),
(599,825,q),
(419,1085,l),
(417,1085,l),
(237,824,l),
(237,824,o),
(237,824,o),
(237,824,q)
);
}
);
width = 836;
}
);
unicode = 42;
},
{
glyphname = plus;
layers = (
{
layerId = "FBB1375C-3A63-4BAF-915A-A70EF4A52AF6";
shapes = (
{
closed = 1;
nodes = (
(465,102,l),
(465,102,o),
(465,102,o),
(465,102,q),
(465,1196,l),
(465,1196,o),
(465,1196,o),
(465,1196,q),
(809,1196,l),
(809,1196,o),
(809,1196,o),
(809,1196,q),
(809,102,l),
(809,102,o),
(809,102,o),
(809,102,q)
);
},
{
closed = 1;
nodes = (
(104,481,l),
(104,481,o),
(104,481,o),
(104,481,q),
(104,819,l),
(104,819,o),
(104,819,o),
(104,819,q),
(1172,819,l),
(1172,819,o),
(1172,819,o),
(1172,819,q),
(1172,481,l),
(1172,481,o),
(1172,481,o),
(1172,481,q)
);
}
);
width = 1276;
},
{
layerId = "76B034D3-4D70-4D21-802E-5635595471DF";
shapes = (
{
closed = 1;
nodes = (
(443,123,l),
(443,123,o),
(443,123,o),
(443,123,q),
(443,1175,l),
(443,1175,o),
(443,1175,o),
(443,1175,q),
(783,1175,l),
(783,1175,o),
(783,1175,o),
(783,1175,q),
(783,123,l),
(783,123,o),
(783,123,o),
(783,123,q)
);
},
{
closed = 1;
nodes = (
(101,482,l),
(101,482,o),
(101,482,o),
(101,482,q),
(101,817,l),
(101,817,o),
(101,817,o),
(101,817,q),
(1127,817,l),
(1127,817,o),
(1127,817,o),
(1127,817,q),
(1127,482,l),
(1127,482,o),
(1127,482,o),
(1127,482,q)
);
}
);
width = 1228;
},
{
layerId = "B9481DB1-5939-4760-8C0A-E1CA4C5276BA";
shapes = (
{
closed = 1;
nodes = (
(511,154,l),
(511,154,o),
(511,154,o),
(511,154,q),
(511,1136,l),
(511,1136,o),
(511,1136,o),
(511,1136,q),
(682,1136,l),
(682,1136,o),
(682,1136,o),
(682,1136,q),
(682,154,l),
(682,154,o),
(682,154,o),
(682,154,q)
);
},
{
closed = 1;
nodes = (
(121,561,l),
(121,561,o),
(121,561,o),
(121,561,q),
(121,730,l),
(121,730,o),
(121,730,o),
(121,730,q),
(1072,730,l),
(1072,730,o),
(1072,730,o),
(1072,730,q),
(1072,561,l),
(1072,561,o),
(1072,561,o),
(1072,561,q)
);
}
);
width = 1194;
},
{
layerId = "2B9CF20A-12EE-404A-A917-16C5B0FAAE67";
shapes = (
{
closed = 1;
nodes = (
(473,184,l),
(473,184,o),
(473,184,o),
(473,184,q),
(473,1106,l),
(473,1106,o),
(473,1106,o),
(473,1106,q),
(641,1106,l),
(641,1106,o),
(641,1106,o),
(641,1106,q),
(641,184,l),
(641,184,o),
(641,184,o),
(641,184,q)
);
},
{
closed = 1;
nodes = (
(111,562,l),
(111,562,o),
(111,562,o),
(111,562,q),
(111,729,l),
(111,729,o),
(111,729,o),
(111,729,q),
(1003,729,l),
(1003,729,o),
(1003,729,o),
(1003,729,q),
(1003,562,l),
(1003,562,o),
(1003,562,o),
(1003,562,q)
);
}
);
width = 1115;
},
{
layerId = "B44B52C7-1267-447A-96E2-7C7AAD20E5C8";
shapes = (
{
closed = 1;
nodes = (
(551,185,l),
(551,185,o),
(551,185,o),
(551,185,q),
(551,1095,l),
(551,1095,o),
(551,1095,o),
(551,1095,q),
(617,1095,l),
(617,1095,o),
(617,1095,o),
(617,1095,q),
(617,185,l),
(617,185,o),
(617,185,o),
(617,185,q)
);
},
{
closed = 1;
nodes = (
(144,609,l),
(144,609,o),
(144,609,o),
(144,609,q),
(144,674,l),
(144,674,o),
(144,674,o),
(144,674,q),
(1025,674,l),
(1025,674,o),
(1025,674,o),
(1025,674,q),
(1025,609,l),
(1025,609,o),
(1025,609,o),
(1025,609,q)
);
}
);
width = 1170;
},
{
layerId = "6ABF3C13-8B80-436D-8B0B-86D4B5DD3694";
shapes = (
{
closed = 1;
nodes = (
(517,213,l),
(517,213,o),
(517,213,o),
(517,213,q),
(517,1067,l),
(517,1067,o),
(517,1067,o),
(517,1067,q),
(583,1067,l),
(583,1067,o),
(583,1067,o),
(583,1067,q),
(583,213,l),
(583,213,o),
(583,213,o),
(583,213,q)
);
},
{
closed = 1;
nodes = (
(137,608,l),
(137,608,o),
(137,608,o),
(137,608,q),
(137,674,l),
(137,674,o),
(137,674,o),
(137,674,q),
(963,674,l),
(963,674,o),
(963,674,o),
(963,674,q),
(963,608,l),
(963,608,o),
(963,608,o),
(963,608,q)
);
}
);
width = 1102;
}
);
leftKerningGroup = plus2;
rightKerningGroup = plus;
unicode = 43;
},
{
glyphname = comma;
layers = (
{
layerId = "FBB1375C-3A63-4BAF-915A-A70EF4A52AF6";
shapes = (
{
closed = 1;
nodes = (
(208,41,l),
(167,66,o),
(100,165,o),
(100,239,qs),
(100,335,o),
(241,471,o),
(344,471,qs),
(449,471,o),
(588,335,o),
(588,234,qs),
(588,180,o),
(550,70,o),
(494,-8,q),
(251,-336,l),
(251,-336,o),
(251,-336,o),
(39,-185,q)
);
}
);
width = 681;
},
{
layerId = "76B034D3-4D70-4D21-802E-5635595471DF";
shapes = (
{
closed = 1;
nodes = (
(199,38,l),
(157,63,o),
(90,162,o),
(90,234,qs),
(90,329,o),
(228,463,o),
(329,463,qs),
(431,463,o),
(568,329,o),
(568,230,qs),
(568,177,o),
(530,71,o),
(478,-4,qs),
(254,-328,l),
(254,-328,o),
(254,-328,o),
(43,-187,q)
);
}
);
width = 652;
},
{
layerId = "B9481DB1-5939-4760-8C0A-E1CA4C5276BA";
shapes = (
{
closed = 1;
nodes = (
(243,3,l),
(206,14,o),
(152,83,o),
(152,132,qs),
(152,190,o),
(236,273,o),
(297,273,qs),
(358,273,o),
(442,190,o),
(442,132,qs),
(442,101,o),
(415,35,o),
(379,-20,qs),
(218,-262,l),
(218,-262,o),
(218,-262,o),
(111,-191,q)
);
}
);
width = 580;
},
{
layerId = "2B9CF20A-12EE-404A-A917-16C5B0FAAE67";
shapes = (
{
closed = 1;
nodes = (
(228,5,l),
(191,15,o),
(138,83,o),
(138,131,qs),
(138,189,o),
(220,270,o),
(280,270,qs),
(340,270,o),
(423,189,o),
(423,131,qs),
(423,100,o),
(396,34,o),
(362,-20,qs),
(210,-257,l),
(210,-257,o),
(210,-257,o),
(102,-189,q)
);
}
);
width = 549;
},
{
layerId = "B44B52C7-1267-447A-96E2-7C7AAD20E5C8";
shapes = (
{
closed = 1;
nodes = (
(247,-6,l),
(215,-2,o),
(173,47,o),
(173,81,qs),
(173,121,o),
(228,176,o),
(269,176,qs),
(309,176,o),
(364,121,o),
(364,82,qs),
(364,60,o),
(345,15,o),
(324,-20,qs),
(187,-244,l),
(187,-244,o),
(187,-244,o),
(125,-206,q)
);
}
);
width = 538;
},
{
layerId = "6ABF3C13-8B80-436D-8B0B-86D4B5DD3694";
shapes = (
{
closed = 1;
nodes = (
(236,-2,l),
(205,1,o),
(164,48,o),
(164,82,qs),
(164,122,o),
(218,175,o),
(257,175,qs),
(296,175,o),
(350,122,o),
(350,83,qs),
(350,62,o),
(331,17,o),
(312,-17,q),
(179,-238,l),
(179,-238,o),
(179,-238,o),
(118,-201,q)
);
}
);
width = 513;
}
);
leftKerningGroup = comma2;
rightKerningGroup = comma;
unicode = 44;
},
{
glyphname = hyphen;
layers = (
{
layerId = "FBB1375C-3A63-4BAF-915A-A70EF4A52AF6";
shapes = (
{
closed = 1;
nodes = (
(42,505,l),
(42,505,o),
(42,505,o),
(42,505,q),
(42,873,l),
(42,873,o),
(42,873,o),
(42,873,q),
(744,873,l),
(744,873,o),
(744,873,o),
(744,873,q),
(744,505,l),
(744,505,o),
(744,505,o),
(744,505,q)
);
}
);
width = 786;
},
{
layerId = "76B034D3-4D70-4D21-802E-5635595471DF";
shapes = (
{
closed = 1;
nodes = (
(40,507,l),
(40,507,o),
(40,507,o),
(40,507,q),
(40,871,l),
(40,871,o),
(40,871,o),
(40,871,q),
(680,871,l),
(680,871,o),
(680,871,o),
(680,871,q),
(680,507,l),
(680,507,o),
(680,507,o),
(680,507,q)
);
}
);
width = 720;
},
{
layerId = "B9481DB1-5939-4760-8C0A-E1CA4C5276BA";
shapes = (
{
closed = 1;
nodes = (
(64,598,l),
(64,598,o),
(64,598,o),
(64,598,q),
(64,772,l),
(64,772,o),
(64,772,o),
(64,772,q),
(721,772,l),
(721,772,o),
(721,772,o),
(721,772,q),
(721,598,l),
(721,598,o),
(721,598,o),
(721,598,q)
);
}
);
width = 785;
},
{
layerId = "2B9CF20A-12EE-404A-A917-16C5B0FAAE67";
shapes = (
{
closed = 1;
nodes = (
(56,598,l),
(56,598,o),
(56,598,o),
(56,598,q),
(56,772,l),
(56,772,o),
(56,772,o),
(56,772,q),
(650,772,l),
(650,772,o),
(650,772,o),
(650,772,q),
(650,598,l),
(650,598,o),
(650,598,o),
(650,598,q)
);
}
);
width = 706;
},
{
layerId = "B44B52C7-1267-447A-96E2-7C7AAD20E5C8";
shapes = (
{
closed = 1;
nodes = (
(74,631,l),
(74,631,o),
(74,631,o),
(74,631,q),
(74,704,l),
(74,704,o),
(74,704,o),
(74,704,q),
(690,704,l),
(690,704,o),
(690,704,o),
(690,704,q),
(690,631,l),
(690,631,o),
(690,631,o),
(690,631,q)
);
}
);
width = 764;
},
{
layerId = "6ABF3C13-8B80-436D-8B0B-86D4B5DD3694";
shapes = (
{
closed = 1;
nodes = (
(68,632,l),
(68,632,o),
(68,632,o),
(68,632,q),
(68,703,l),
(68,703,o),
(68,703,o),
(68,703,q),
(630,703,l),
(630,703,o),
(630,703,o),
(630,703,q),
(630,632,l),
(630,632,o),
(630,632,o),
(630,632,q)
);
}
);
width = 698;
}
);
unicode = 45;
},
{
glyphname = period;
layers = (
{
layerId = "FBB1375C-3A63-4BAF-915A-A70EF4A52AF6";
shapes = (
{
closed = 1;
nodes = (
(237,-19,o),
(93,124,o),
(93,229,qs),
(93,332,o),
(237,475,o),
(341,475,qs),
(447,475,o),
(588,332,o),
(588,229,qs),
(588,124,o),
(447,-19,o),
(341,-19,qs)
);
}
);
width = 681;
},
{
layerId = "76B034D3-4D70-4D21-802E-5635595471DF";
shapes = (
{
closed = 1;
nodes = (
(225,-19,o),
(84,122,o),
(84,224,qs),
(84,325,o),
(224,465,o),
(327,465,qs),
(431,465,o),
(568,325,o),
(568,225,qs),
(568,122,o),
(430,-19,o),
(327,-19,qs)
);
}
);
width = 652;
},
{
layerId = "B9481DB1-5939-4760-8C0A-E1CA4C5276BA";
shapes = (
{
closed = 1;
nodes = (
(226,-12,o),
(138,76,o),
(138,141,qs),
(138,203,o),
(226,291,o),
(289,291,qs),
(355,291,o),
(442,203,o),
(442,141,qs),
(442,76,o),
(355,-12,o),
(289,-12,qs)
);
}
);
width = 580;
},
{
layerId = "2B9CF20A-12EE-404A-A917-16C5B0FAAE67";
shapes = (
{
closed = 1;
nodes = (
(212,-12,o),
(126,74,o),
(126,137,qs),
(126,197,o),
(212,283,o),
(274,283,qs),
(338,283,o),
(423,197,o),
(423,137,qs),
(423,74,o),
(338,-12,o),
(274,-12,qs)
);
}
);
width = 549;
},
{
layerId = "B44B52C7-1267-447A-96E2-7C7AAD20E5C8";
shapes = (
{
closed = 1;
nodes = (
(228,-10,o),
(174,45,o),
(174,87,qs),
(174,126,o),
(228,182,o),
(268,182,qs),
(309,182,o),
(364,126,o),
(364,87,qs),
(364,45,o),
(309,-10,o),
(268,-10,qs)
);
}
);
width = 538;
},
{
layerId = "6ABF3C13-8B80-436D-8B0B-86D4B5DD3694";
shapes = (
{
closed = 1;
nodes = (
(217,-10,o),
(163,45,o),
(163,85,qs),
(163,123,o),
(216,178,o),
(255,178,qs),
(296,178,o),
(350,124,o),
(350,85,qs),
(350,45,o),
(296,-10,o),
(255,-10,qs)
);
}
);
width = 513;
}
);
leftKerningGroup = period;
rightKerningGroup = comma;
unicode = 46;
},
{
glyphname = slash;
layers = (
{
layerId = "FBB1375C-3A63-4BAF-915A-A70EF4A52AF6";
shapes = (
{
closed = 1;
nodes = (
(16,0,l),
(16,0,o),
(16,0,o),
(16,0,q),
(580,1433,l),
(580,1433,o),
(580,1433,o),
(580,1433,q),
(930,1433,l),
(930,1433,o),
(930,1433,o),
(930,1433,q),
(367,0,l),
(367,0,o),
(367,0,o),
(367,0,q)
);
}
);
width = 945;
},
{
layerId = "76B034D3-4D70-4D21-802E-5635595471DF";
shapes = (
{
closed = 1;
nodes = (
(8,0,l),
(8,0,o),
(8,0,o),
(8,0,q),
(526,1433,l),
(526,1433,o),
(526,1433,o),
(526,1433,q),
(865,1433,l),
(865,1433,o),
(865,1433,o),
(865,1433,q),
(348,0,l),
(348,0,o),
(348,0,o),
(348,0,q)
);
}
);
width = 872;
},
{
layerId = "B9481DB1-5939-4760-8C0A-E1CA4C5276BA";
shapes = (
{
closed = 1;
nodes = (
(8,0,l),
(8,0,o),
(8,0,o),
(8,0,q),
(548,1432,l),
(548,1432,o),
(548,1432,o),
(548,1432,q),
(722,1432,l),
(722,1432,o),
(722,1432,o),
(722,1432,q),
(183,0,l),
(183,0,o),
(183,0,o),
(183,0,q)
);
}
);
width = 730;
},
{
layerId = "2B9CF20A-12EE-404A-A917-16C5B0FAAE67";
shapes = (
{
closed = 1;
nodes = (
(6,0,l),
(6,0,o),
(6,0,o),
(6,0,q),
(502,1432,l),
(502,1432,o),
(502,1432,o),
(502,1432,q),
(673,1432,l),
(673,1432,o),
(673,1432,o),
(673,1432,q),
(178,0,l),
(178,0,o),
(178,0,o),
(178,0,q)
);
}
);
width = 679;
},
{
layerId = "B44B52C7-1267-447A-96E2-7C7AAD20E5C8";
shapes = (
{
closed = 1;
nodes = (
(45,0,l),
(45,0,o),
(45,0,o),
(45,0,q),
(558,1432,l),
(558,1432,o),
(558,1432,o),
(558,1432,q),
(630,1432,l),
(630,1432,o),
(630,1432,o),
(630,1432,q),
(117,0,l),
(117,0,o),
(117,0,o),
(117,0,q)
);
}
);
width = 675;
},
{
layerId = "6ABF3C13-8B80-436D-8B0B-86D4B5DD3694";
shapes = (
{
closed = 1;
nodes = (
(35,0,l),
(35,0,o),
(35,0,o),
(35,0,q),
(510,1432,l),
(510,1432,o),
(510,1432,o),
(510,1432,q),
(580,1432,l),
(580,1432,o),
(580,1432,o),
(580,1432,q),
(106,0,l),
(106,0,o),
(106,0,o),
(106,0,q)
);
}
);
width = 615;
}
);
unicode = 47;
},
{
glyphname = zero;
layers = (
{
layerId = "FBB1375C-3A63-4BAF-915A-A70EF4A52AF6";
shapes = (
{
closed = 1;
nodes = (
(430,-37,o),
(75,363,o),
(75,717,q),
(75,717,l),
(75,1071,o),
(430,1471,o),
(712,1471,qs),
(993,1471,o),
(1349,1071,o),
(1349,717,q),
(1349,717,l),
(1349,363,o),
(993,-37,o),
(712,-37,qs)
);
},
{
closed = 1;
nodes = (
(812,373,o),
(909,544,o),
(909,717,q),
(909,717,l),
(909,890,o),
(812,1059,o),
(714,1059,qs),
(616,1059,o),
(515,890,o),
(515,717,q),
(515,717,l),
(515,544,o),
(616,373,o),
(714,373,qs)
);
}
);
width = 1423;
},
{
layerId = "76B034D3-4D70-4D21-802E-5635595471DF";
shapes = (
{
closed = 1;
nodes = (
(400,-34,o),
(70,352,o),
(70,717,q),
(70,717,l),
(70,1083,o),
(400,1468,o),
(668,1468,qs),
(934,1468,o),
(1264,1083,o),
(1264,717,q),
(1264,717,l),
(1264,352,o),
(933,-34,o),
(668,-34,qs)
);
},
{
closed = 1;
nodes = (
(749,364,o),
(829,513,o),
(829,683,qs),
(829,750,ls),
(829,921,o),
(750,1068,o),
(669,1068,qs),
(588,1068,o),
(505,921,o),
(505,750,qs),
(505,684,ls),
(505,513,o),
(587,364,o),
(669,364,qs)
);
}
);
width = 1333;
},
{
layerId = "B9481DB1-5939-4760-8C0A-E1CA4C5276BA";
shapes = (
{
closed = 1;
nodes = (
(424,-34,o),
(103,383,o),
(103,717,q),
(103,717,l),
(103,1051,o),
(424,1467,o),
(691,1467,qs),
(958,1467,o),
(1280,1051,o),
(1280,717,q),
(1280,717,l),
(1280,383,o),
(958,-34,o),
(691,-34,qs)
);
},
{
closed = 1;
nodes = (
(880,151,o),
(1072,467,o),
(1072,717,q),
(1072,717,l),
(1072,967,o),
(880,1281,o),
(691,1281,qs),
(502,1281,o),
(311,967,o),
(311,717,q),
(311,717,l),
(311,467,o),
(502,151,o),
(691,151,qs)
);
}
);
width = 1383;
},
{
layerId = "2B9CF20A-12EE-404A-A917-16C5B0FAAE67";
shapes = (
{
closed = 1;
nodes = (
(379,-30,o),
(102,336,o),
(102,657,qs),
(102,777,ls),
(102,1098,o),
(379,1463,o),
(615,1463,qs),
(850,1463,o),
(1128,1098,o),
(1128,777,qs),
(1128,657,ls),
(1128,336,o),
(851,-30,o),
(615,-30,qs)
);
},
{
closed = 1;
nodes = (
(770,148,o),
(927,418,o),
(927,656,qs),
(927,778,ls),
(927,1016,o),
(771,1284,o),
(615,1284,qs),
(459,1284,o),
(303,1016,o),
(303,778,qs),
(303,656,ls),
(303,418,o),
(459,148,o),
(615,148,qs)
);
}
);
width = 1230;
},
{
layerId = "B44B52C7-1267-447A-96E2-7C7AAD20E5C8";
shapes = (
{
closed = 1;
nodes = (
(427,-29,o),
(129,382,o),
(129,717,q),
(129,717,l),
(129,1051,o),
(427,1462,o),
(688,1462,qs),
(949,1462,o),
(1249,1051,o),
(1249,717,q),
(1249,717,l),
(1249,382,o),
(949,-29,o),
(688,-29,qs)
);
},
{
closed = 1;
nodes = (
(921,32,o),
(1180,415,o),
(1180,717,q),
(1180,717,l),
(1180,1019,o),
(921,1400,o),
(689,1400,qs),
(457,1400,o),
(198,1019,o),
(198,717,q),
(198,717,l),
(198,414,o),
(457,32,o),
(689,32,qs)
);
}
);
width = 1378;
},
{
layerId = "6ABF3C13-8B80-436D-8B0B-86D4B5DD3694";
shapes = (
{
closed = 1;
nodes = (
(388,-25,o),
(131,330,o),
(131,656,qs),
(131,778,ls),
(131,1103,o),
(388,1458,o),
(610,1458,qs),
(831,1458,o),
(1089,1103,o),
(1089,778,qs),
(1089,656,ls),
(1089,330,o),
(831,-25,o),
(610,-25,qs)
);
},
{
closed = 1;
nodes = (
(803,34,o),
(1021,365,o),
(1021,657,qs),
(1021,777,ls),
(1021,1069,o),
(803,1398,o),
(611,1398,qs),
(419,1398,o),
(199,1069,o),
(199,777,qs),
(199,657,ls),
(199,364,o),
(418,34,o),
(611,34,qs)
);
}
);
width = 1220;
}
);
leftKerningGroup = zero2;
rightKerningGroup = zero;
unicode = 48;
},
{
glyphname = one;
layers = (
{
layerId = "FBB1375C-3A63-4BAF-915A-A70EF4A52AF6";
shapes = (
{
closed = 1;
nodes = (
(394,0,l),
(394,0,o),
(394,0,o),
(394,0,q),
(394,875,l),
(198,736,l),
(198,736,o),
(198,736,o),
(198,736,q),
(-32,1031,l),
(-32,1031,o),
(-32,1031,o),
(-32,1031,q),
(533,1432,l),
(533,1432,o),
(533,1432,o),
(533,1432,q),
(835,1432,l),
(835,1432,o),
(835,1432,o),
(835,1432,q),
(835,0,l),
(835,0,o),
(835,0,o),
(835,0,q)
);
}
);
width = 989;
},
{
layerId = "76B034D3-4D70-4D21-802E-5635595471DF";
shapes = (
{
closed = 1;
nodes = (
(371,0,l),
(371,0,o),
(371,0,o),
(371,0,q),
(371,883,l),
(189,751,l),
(189,751,o),
(189,751,o),
(189,751,q),
(-33,1045,l),
(-33,1045,o),
(-33,1045,o),
(-33,1045,q),
(510,1432,l),
(510,1432,o),
(510,1432,o),
(510,1432,q),
(803,1432,l),
(803,1432,o),
(803,1432,o),
(803,1432,q),
(803,0,l),
(803,0,o),
(803,0,o),
(803,0,q)
);
}
);
width = 946;
},
{
layerId = "B9481DB1-5939-4760-8C0A-E1CA4C5276BA";
shapes = (
{
closed = 1;
nodes = (
(426,0,l),
(426,0,o),
(426,0,o),
(426,0,q),
(426,1157,l),
(130,938,l),
(130,938,o),
(130,938,o),
(130,938,q),
(24,1088,l),
(24,1088,o),
(24,1088,o),
(24,1088,q),
(494,1432,l),
(494,1432,o),
(494,1432,o),
(494,1432,q),
(625,1432,l),
(625,1432,o),
(625,1432,o),
(625,1432,q),
(625,0,l),
(625,0,o),
(625,0,o),
(625,0,q)
);
}
);
width = 814;
},
{
layerId = "2B9CF20A-12EE-404A-A917-16C5B0FAAE67";
shapes = (
{
closed = 1;
nodes = (
(389,0,l),
(389,0,o),
(389,0,o),
(389,0,q),
(389,1166,l),
(121,968,l),
(121,968,o),
(121,968,o),
(121,968,q),
(16,1116,l),
(16,1116,o),
(16,1116,o),
(16,1116,q),
(450,1434,l),
(450,1434,o),
(450,1434,o),
(450,1434,q),
(582,1434,l),
(582,1434,o),
(582,1434,o),
(582,1434,q),
(582,0,l),
(582,0,o),
(582,0,o),
(582,0,q)
);
}
);
width = 758;
},
{
layerId = "B44B52C7-1267-447A-96E2-7C7AAD20E5C8";
shapes = (
{
closed = 1;
nodes = (
(470,0,l),
(470,0,o),
(470,0,o),
(470,0,q),
(470,1338,l),
(99,1057,l),
(99,1057,o),
(99,1057,o),
(99,1057,q),
(58,1110,l),
(58,1110,o),
(58,1110,o),
(58,1110,q),
(488,1433,l),
(488,1433,o),
(488,1433,o),
(488,1433,q),
(536,1433,l),
(536,1433,o),
(536,1433,o),
(536,1433,q),
(536,0,l),
(536,0,o),
(536,0,o),
(536,0,q)
);
}
);
width = 744;
},
{
layerId = "6ABF3C13-8B80-436D-8B0B-86D4B5DD3694";
shapes = (
{
closed = 1;
nodes = (
(427,0,l),
(427,0,o),
(427,0,o),
(427,0,q),
(427,1340,l),
(87,1079,l),
(87,1079,o),
(87,1079,o),
(87,1079,q),
(47,1132,l),
(47,1132,o),
(47,1132,o),
(47,1132,q),
(444,1434,l),
(444,1434,o),
(444,1434,o),
(444,1434,q),
(492,1434,l),
(492,1434,o),
(492,1434,o),
(492,1434,q),
(492,0,l),
(492,0,o),
(492,0,o),
(492,0,q)
);
}
);
width = 692;
}
);
rightKerningGroup = H;
unicode = 49;
},
{
glyphname = two;
layers = (
{
layerId = "FBB1375C-3A63-4BAF-915A-A70EF4A52AF6";
shapes = (
{
closed = 1;
nodes = (
(90,0,l),
(90,0,o),
(90,0,o),
(90,0,q),
(90,331,l),
(90,331,o),
(90,331,o),
(90,331,q),
(457,652,ls),
(552,735,o),
(697,891,o),
(697,951,q),
(697,951,l),
(697,1006,o),
(636,1066,o),
(580,1066,qs),
(535,1066,o),
(475,1033,o),
(431,975,o),
(402,905,o),
(402,905,o),
(402,905,q),
(43,1045,l),
(43,1045,o),
(43,1045,o),
(123,1225,o),
(266,1382,o),
(472,1470,o),
(609,1470,qs),
(853,1470,o),
(1138,1204,o),
(1138,999,q),
(1138,999,l),
(1138,864,o),
(1021,675,o),
(904,576,qs),
(690,396,l),
(694,387,l),
(1192,387,l),
(1192,387,o),
(1192,387,o),
(1192,387,q),
(1192,0,l),
(1192,0,o),
(1192,0,o),
(1192,0,q)
);
}
);
width = 1268;
},
{
layerId = "76B034D3-4D70-4D21-802E-5635595471DF";
shapes = (
{
closed = 1;
nodes = (
(81,0,l),
(81,0,o),
(81,0,o),
(81,0,q),
(81,318,l),
(81,318,o),
(81,318,o),
(81,318,q),
(432,672,ls),
(521,761,o),
(645,918,o),
(645,975,qs),
(645,977,ls),
(645,1026,o),
(593,1078,o),
(546,1078,qs),
(507,1078,o),
(457,1047,o),
(422,993,o),
(397,920,o),
(397,920,o),
(397,920,q),
(42,1035,l),
(42,1035,o),
(42,1035,o),
(109,1223,o),
(246,1382,o),
(442,1467,o),
(576,1467,qs),
(803,1467,o),
(1078,1216,o),
(1078,1018,q),
(1078,1018,l),
(1078,888,o),
(965,693,o),
(859,591,qs),
(653,390,l),
(657,381,l),
(1122,381,l),
(1122,381,o),
(1122,381,o),
(1122,381,q),
(1122,0,l),
(1122,0,o),
(1122,0,o),
(1122,0,q)
);
}
);
width = 1194;
},
{
layerId = "B9481DB1-5939-4760-8C0A-E1CA4C5276BA";
shapes = (
{
closed = 1;
nodes = (
(95,0,l),
(95,0,o),
(95,0,o),
(95,0,q),
(95,177,l),
(95,177,o),
(95,177,o),
(95,177,q),
(580,671,ls),
(680,773,o),
(799,945,o),
(799,1042,q),
(799,1042,l),
(799,1148,o),
(667,1280,o),
(555,1280,qs),
(482,1280,o),
(386,1235,o),
(313,1148,o),
(260,1033,o),
(260,1033,o),
(260,1033,q),
(82,1103,l),
(82,1103,o),
(82,1103,o),
(151,1270,o),
(272,1394,o),
(442,1466,o),
(557,1466,qs),
(758,1466,o),
(1007,1227,o),
(1007,1044,q),
(1007,1044,l),
(1007,923,o),
(899,718,o),
(764,586,qs),
(364,192,l),
(367,186,l),
(1040,186,l),
(1040,186,o),
(1040,186,o),
(1040,186,q),
(1040,0,l),
(1040,0,o),
(1040,0,o),
(1040,0,q)
);
}
);
width = 1136;
},
{
layerId = "2B9CF20A-12EE-404A-A917-16C5B0FAAE67";
shapes = (
{
closed = 1;
nodes = (
(85,0,l),
(85,0,o),
(85,0,o),
(85,0,q),
(85,174,l),
(85,174,o),
(85,174,o),
(85,174,q),
(507,693,l),
(590,789,o),
(697,960,o),
(697,1052,qs),
(697,1068,ls),
(697,1165,o),
(589,1282,o),
(494,1282,qs),
(431,1282,o),
(349,1235,o),
(289,1143,o),
(248,1030,o),
(248,1030,o),
(248,1030,q),
(71,1089,l),
(71,1089,o),
(71,1089,o),
(124,1248,o),
(228,1383,o),
(386,1462,o),
(498,1462,qs),
(678,1462,o),
(897,1246,o),
(897,1074,qs),
(897,1058,ls),
(897,942,o),
(796,739,o),
(684,612,q),
(333,187,l),
(336,181,l),
(928,181,l),
(928,181,o),
(928,181,o),
(928,181,q),
(928,0,l),
(928,0,o),
(928,0,o),
(928,0,q)
);
}
);
width = 1010;
},
{
layerId = "B44B52C7-1267-447A-96E2-7C7AAD20E5C8";
shapes = (
{
closed = 1;
nodes = (
(107,0,l),
(107,0,o),
(107,0,o),
(107,0,q),
(107,65,l),
(107,65,o),
(107,65,o),
(107,65,q),
(668,657,ls),
(759,753,o),
(884,955,o),
(884,1079,q),
(884,1079,l),
(884,1223,o),
(697,1400,o),
(540,1400,qs),
(425,1400,o),
(269,1295,o),
(187,1166,o),
(156,1091,o),
(156,1091,o),
(156,1091,q),
(93,1117,l),
(93,1117,o),
(93,1117,o),
(128,1196,o),
(213,1331,o),
(393,1462,o),
(540,1462,qs),
(735,1462,o),
(953,1244,o),
(953,1074,q),
(953,1074,l),
(953,938,o),
(815,715,o),
(721,617,qs),
(197,69,l),
(198,65,l),
(997,65,l),
(997,65,o),
(997,65,o),
(997,65,q),
(997,0,l),
(997,0,o),
(997,0,o),
(997,0,q)
);
}
);
width = 1098;
},
{
layerId = "6ABF3C13-8B80-436D-8B0B-86D4B5DD3694";
shapes = (
{
closed = 1;
nodes = (
(92,0,l),
(92,0,o),
(92,0,o),
(92,0,q),
(92,63,l),
(92,63,o),
(92,63,o),
(92,63,q),
(577,655,l),
(658,752,o),
(769,952,o),
(769,1081,qs),
(769,1098,ls),
(769,1233,o),
(611,1397,o),
(472,1397,qs),
(368,1397,o),
(235,1291,o),
(169,1163,o),
(144,1088,o),
(144,1088,o),
(144,1088,q),
(82,1112,l),
(82,1112,o),
(82,1112,o),
(109,1188,o),
(179,1328,o),
(337,1458,o),
(473,1458,qs),
(647,1458,o),
(837,1255,o),
(837,1095,qs),
(837,1077,ls),
(837,934,o),
(715,718,o),
(632,618,qs),
(178,67,l),
(179,63,l),
(884,63,l),
(884,63,o),
(884,63,o),
(884,63,q),
(884,0,l),
(884,0,o),
(884,0,o),
(884,0,q)
);
}
);
width = 968;
}
);
unicode = 50;
},
{
glyphname = three;
layers = (
{
layerId = "FBB1375C-3A63-4BAF-915A-A70EF4A52AF6";
shapes = (
{
closed = 1;
nodes = (
(445,-37,o),
(215,50,o),
(73,204,o),
(15,360,o),
(15,360,o),
(15,360,q),
(371,474,l),
(371,474,o),
(371,474,o),
(401,410,o),
(451,357,o),
(529,322,o),
(585,322,qs),
(670,322,o),
(771,391,o),
(771,454,q),
(771,454,l),
(771,510,o),
(687,578,o),
(600,578,qs),
(445,578,l),
(445,578,o),
(445,578,o),
(445,578,q),
(445,874,l),
(445,874,o),
(445,874,o),
(445,874,q),
(582,874,ls),
(650,874,o),
(734,930,o),
(734,993,q),
(734,993,l),
(734,1049,o),
(654,1113,o),
(583,1113,qs),
(533,1113,o),
(466,1085,o),
(420,1037,o),
(386,980,o),
(386,980,o),
(386,980,q),
(60,1134,l),
(60,1134,o),
(60,1134,o),
(144,1271,o),
(292,1401,o),
(481,1471,o),
(622,1471,qs),
(872,1471,o),
(1156,1245,o),
(1156,1079,q),
(1156,1079,l),
(1156,959,o),
(1033,809,o),
(916,772,q),
(916,762,l),
(1058,737,o),
(1214,552,o),
(1214,410,q),
(1214,410,l),
(1214,216,o),
(905,-37,o),
(606,-37,qs)
);
}
);
width = 1281;
},
{
layerId = "76B034D3-4D70-4D21-802E-5635595471DF";
shapes = (
{
closed = 1;
nodes = (
(410,-34,o),
(195,53,o),
(62,209,o),
(13,373,o),
(13,373,o),
(13,373,q),
(368,475,l),
(368,475,o),
(368,475,o),
(392,407,o),
(434,354,o),
(497,322,o),
(543,322,qs),
(614,322,o),
(696,387,o),
(696,450,qs),
(696,457,ls),
(696,518,o),
(623,581,o),
(548,581,qs),
(401,581,l),
(401,581,o),
(401,581,o),
(401,581,q),
(401,877,l),
(401,877,o),
(401,877,o),
(401,877,q),
(534,877,ls),
(594,877,o),
(668,931,o),
(668,993,qs),
(668,1001,ls),
(668,1059,o),
(603,1116,o),
(543,1116,qs),
(502,1116,o),
(448,1091,o),
(410,1045,o),
(384,982,o),
(384,982,o),
(384,982,q),
(53,1113,l),
(53,1113,o),
(53,1113,o),
(118,1259,o),
(254,1394,o),
(439,1468,o),
(578,1468,qs),
(812,1468,o),
(1083,1252,o),
(1083,1084,q),
(1083,1083,l),
(1083,959,o),
(955,806,o),
(839,771,q),
(839,761,l),
(977,735,o),
(1133,555,o),
(1133,408,q),
(1133,408,l),
(1133,212,o),
(840,-34,o),
(565,-34,qs)
);
}
);
width = 1194;
},
{
layerId = "B9481DB1-5939-4760-8C0A-E1CA4C5276BA";
shapes = (
{
closed = 1;
nodes = (
(420,-34,o),
(236,42,o),
(105,188,o),
(44,353,o),
(44,353,o),
(44,353,q),
(226,414,l),
(226,414,o),
(226,414,o),
(273,293,o),
(356,200,o),
(471,151,o),
(554,151,qs),
(685,151,o),
(856,295,o),
(856,407,q),
(856,407,l),
(856,527,o),
(700,654,o),
(552,654,qs),
(440,654,l),
(440,654,o),
(440,654,o),
(440,654,q),
(440,838,l),
(440,838,o),
(440,838,o),
(440,838,q),
(542,838,ls),
(661,838,o),
(798,955,o),
(798,1068,q),
(798,1068,l),
(798,1165,o),
(663,1283,o),
(549,1283,qs),
(482,1283,o),
(387,1244,o),
(316,1169,o),
(270,1072,o),
(270,1072,o),
(270,1072,q),
(91,1137,l),
(91,1137,o),
(91,1137,o),
(154,1282,o),
(276,1403,o),
(442,1467,o),
(556,1467,qs),
(774,1467,o),
(1001,1244,o),
(1001,1078,q),
(1001,1078,l),
(1001,953,o),
(874,796,o),
(756,762,q),
(756,755,l),
(901,723,o),
(1060,548,o),
(1060,400,q),
(1060,400,l),
(1060,218,o),
(788,-34,o),
(554,-34,qs)
);
}
);
width = 1153;
},
{
layerId = "2B9CF20A-12EE-404A-A917-16C5B0FAAE67";
shapes = (
{
closed = 1;
nodes = (
(373,-30,o),
(205,45,o),
(91,189,o),
(44,357,o),
(44,357,o),
(44,357,q),
(224,409,l),
(224,409,o),
(224,409,o),
(261,290,o),
(327,198,o),
(425,148,o),
(497,148,qs),
(608,148,o),
(748,277,o),
(748,387,qs),
(748,430,ls),
(748,544,o),
(619,657,o),
(496,657,qs),
(386,657,l),
(386,657,o),
(386,657,o),
(386,657,q),
(386,837,l),
(386,837,o),
(386,837,o),
(386,837,q),
(488,837,ls),
(590,837,o),
(699,944,o),
(699,1053,qs),
(699,1086,ls),
(699,1181,o),
(588,1286,o),
(491,1286,qs),
(433,1286,o),
(353,1248,o),
(297,1174,o),
(261,1075,o),
(261,1075,o),
(261,1075,q),
(83,1130,l),
(83,1130,o),
(83,1130,o),
(133,1276,o),
(239,1398,o),
(391,1463,o),
(498,1463,qs),
(691,1463,o),
(896,1259,o),
(896,1102,qs),
(896,1070,ls),
(896,947,o),
(782,797,o),
(671,763,q),
(671,756,l),
(804,728,o),
(947,564,o),
(947,421,qs),
(947,381,ls),
(947,203,o),
(705,-30,o),
(496,-30,qs)
);
}
);
width = 1037;
},
{
layerId = "B44B52C7-1267-447A-96E2-7C7AAD20E5C8";
shapes = (
{
closed = 1;
nodes = (
(394,-29,o),
(200,81,o),
(98,247,o),
(69,345,o),
(69,345,o),
(69,345,q),
(133,365,l),
(133,365,o),
(133,365,o),
(164,267,o),
(259,117,o),
(430,32,o),
(548,32,qs),
(721,32,o),
(946,232,o),
(946,396,q),
(946,396,l),
(946,548,o),
(749,720,o),
(562,720,qs),
(458,720,l),
(458,720,o),
(458,720,o),
(458,720,q),
(458,786,l),
(458,786,o),
(458,786,o),
(458,786,q),
(558,786,ls),
(705,786,o),
(885,949,o),
(885,1096,q),
(885,1096,l),
(885,1234,o),
(704,1400,o),
(544,1400,qs),
(451,1400,o),
(312,1344,o),
(209,1215,o),
(170,1124,o),
(170,1124,o),
(170,1124,q),
(108,1145,l),
(108,1145,o),
(108,1145,o),
(146,1243,o),
(259,1384,o),
(433,1462,o),
(548,1462,qs),
(730,1462,o),
(954,1264,o),
(954,1097,q),
(954,1097,l),
(954,964,o),
(809,781,o),
(679,759,q),
(679,755,l),
(830,741,o),
(1016,557,o),
(1016,397,q),
(1016,397,l),
(1016,208,o),
(756,-29,o),
(548,-29,qs)
);
}
);
width = 1129;
},
{
layerId = "6ABF3C13-8B80-436D-8B0B-86D4B5DD3694";
shapes = (
{
closed = 1;
nodes = (
(350,-25,o),
(176,83,o),
(91,246,o),
(69,347,o),
(69,347,o),
(69,347,q),
(133,367,l),
(133,367,o),
(133,367,o),
(157,265,o),
(234,119,o),
(384,34,o),
(490,34,qs),
(644,34,o),
(835,223,o),
(835,380,qs),
(835,414,ls),
(835,561,o),
(660,721,o),
(502,721,qs),
(398,721,l),
(398,721,o),
(398,721,o),
(398,721,q),
(398,784,l),
(398,784,o),
(398,784,o),
(398,784,q),
(497,784,ls),
(625,784,o),
(782,941,o),
(782,1082,qs),
(782,1109,ls),
(782,1242,o),
(626,1397,o),
(485,1397,qs),
(398,1397,o),
(276,1336,o),
(195,1213,o),
(166,1118,o),
(166,1118,o),
(166,1118,q),
(104,1139,l),
(104,1139,o),
(104,1139,o),
(132,1237,o),
(223,1373,o),
(379,1458,o),
(490,1458,qs),
(655,1458,o),
(851,1268,o),
(851,1112,qs),
(851,1084,ls),
(851,951,o),
(720,780,o),
(607,758,q),
(607,754,l),
(737,740,o),
(905,567,o),
(905,417,qs),
(905,380,ls),
(905,197,o),
(677,-25,o),
(489,-25,qs)
);
}
);
width = 1018;
}
);
unicode = 51;
},
{
glyphname = four;
layers = (
{
layerId = "FBB1375C-3A63-4BAF-915A-A70EF4A52AF6";
shapes = (
{
closed = 1;
nodes = (
(666,0,l),
(666,0,o),
(666,0,o),
(666,0,q),
(666,442,l),
(711,501,l),
(711,1133,l),
(871,992,l),
(703,992,l),
(406,583,l),
(846,583,l),
(944,607,l),
(1272,607,l),
(1272,607,o),
(1272,607,o),
(1272,607,q),
(1272,250,l),
(1272,250,o),
(1272,250,o),
(1272,250,q),
(35,250,l),
(35,250,o),
(35,250,o),
(35,250,q),
(35,600,l),
(35,600,o),
(35,600,o),
(35,600,q),
(653,1432,l),
(653,1432,o),
(653,1432,o),
(653,1432,q),
(1103,1432,l),
(1103,1432,o),
(1103,1432,o),
(1103,1432,q),
(1103,0,l),
(1103,0,o),
(1103,0,o),
(1103,0,q)
);
}
);
width = 1309;
},
{
layerId = "76B034D3-4D70-4D21-802E-5635595471DF";
shapes = (
{
closed = 1;
nodes = (
(611,0,l),
(611,0,o),
(611,0,o),
(611,0,q),
(611,442,l),
(660,496,l),
(660,1133,l),
(822,989,l),
(653,989,l),
(380,580,l),
(789,580,l),
(882,608,l),
(1199,608,l),
(1199,608,o),
(1199,608,o),
(1199,608,q),
(1199,252,l),
(1199,252,o),
(1199,252,o),
(1199,252,q),
(30,252,l),
(30,252,o),
(30,252,o),
(30,252,q),
(30,595,l),
(30,595,o),
(30,595,o),
(30,595,q),
(600,1432,l),
(600,1432,o),
(600,1432,o),
(600,1432,q),
(1037,1432,l),
(1037,1432,o),
(1037,1432,o),
(1037,1432,q),
(1037,0,l),
(1037,0,o),
(1037,0,o),
(1037,0,q)
);
}
);
width = 1231;
},
{
layerId = "B9481DB1-5939-4760-8C0A-E1CA4C5276BA";
shapes = (
{
closed = 1;
nodes = (
(743,0,l),
(743,0,o),
(743,0,o),
(743,0,q),
(743,414,l),
(750,450,l),
(750,1256,l),
(829,1172,l),
(744,1172,l),
(254,511,l),
(819,511,l),
(866,516,l),
(1144,516,l),
(1144,516,o),
(1144,516,o),
(1144,516,q),
(1144,337,l),
(1144,337,o),
(1144,337,o),
(1144,337,q),
(51,337,l),
(51,337,o),
(51,337,o),
(51,337,q),
(51,508,l),
(51,508,o),
(51,508,o),
(51,508,q),
(733,1432,l),
(733,1432,o),
(733,1432,o),
(733,1432,q),
(937,1432,l),
(937,1432,o),
(937,1432,o),
(937,1432,q),
(937,0,l),
(937,0,o),
(937,0,o),
(937,0,q)
);
}
);
width = 1198;
},
{
layerId = "2B9CF20A-12EE-404A-A917-16C5B0FAAE67";
shapes = (
{
closed = 1;
nodes = (
(649,0,l),
(649,0,o),
(649,0,o),
(649,0,q),
(649,414,l),
(657,445,l),
(657,1257,l),
(731,1164,l),
(652,1164,l),
(239,511,l),
(726,511,l),
(768,517,l),
(1027,517,l),
(1027,517,o),
(1027,517,o),
(1027,517,q),
(1027,343,l),
(1027,343,o),
(1027,343,o),
(1027,343,q),
(46,343,l),
(46,343,o),
(46,343,o),
(46,343,q),
(46,504,l),
(46,504,o),
(46,504,o),
(46,504,q),
(632,1432,l),
(632,1432,o),
(632,1432,o),
(632,1432,q),
(838,1432,l),
(838,1432,o),
(838,1432,o),
(838,1432,q),
(838,0,l),
(838,0,o),
(838,0,o),
(838,0,q)
);
}
);
width = 1076;
},
{
layerId = "B44B52C7-1267-447A-96E2-7C7AAD20E5C8";
shapes = (
{
closed = 1;
nodes = (
(755,0,l),
(755,0,o),
(755,0,o),
(755,0,q),
(755,413,l),
(755,423,l),
(755,1375,l),
(778,1335,l),
(751,1335,l),
(133,459,l),
(779,459,l),
(791,459,l),
(1074,459,l),
(1074,459,o),
(1074,459,o),
(1074,459,q),
(1074,394,l),
(1074,394,o),
(1074,394,o),
(1074,394,q),
(59,394,l),
(59,394,o),
(59,394,o),
(59,394,q),
(59,461,l),
(59,461,o),
(59,461,o),
(59,461,q),
(750,1436,l),
(750,1436,o),
(750,1436,o),
(750,1436,q),
(823,1436,l),
(823,1436,o),
(823,1436,o),
(823,1436,q),
(823,0,l),
(823,0,o),
(823,0,o),
(823,0,q)
);
}
);
width = 1127;
},
{
layerId = "6ABF3C13-8B80-436D-8B0B-86D4B5DD3694";
shapes = (
{
closed = 1;
nodes = (
(673,0,l),
(673,0,o),
(673,0,o),
(673,0,q),
(673,416,l),
(673,421,l),
(673,1375,l),
(699,1332,l),
(670,1332,l),
(128,459,l),
(697,459,l),
(706,459,l),
(962,459,l),
(962,459,o),
(962,459,o),
(962,459,q),
(962,396,l),
(962,396,o),
(962,396,o),
(962,396,q),
(58,396,l),
(58,396,o),
(58,396,o),
(58,396,q),
(58,462,l),
(58,462,o),
(58,462,o),
(58,462,q),
(667,1435,l),
(667,1435,o),
(667,1435,o),
(667,1435,q),
(740,1435,l),
(740,1435,o),
(740,1435,o),
(740,1435,q),
(740,0,l),
(740,0,o),
(740,0,o),
(740,0,q)
);
}
);
width = 1011;
}
);
unicode = 52;
},
{
glyphname = five;
layers = (
{
layerId = "FBB1375C-3A63-4BAF-915A-A70EF4A52AF6";
shapes = (
{
closed = 1;
nodes = (
(440,-34,o),
(224,58,o),
(77,209,o),
(23,353,o),
(23,353,o),
(23,353,q),
(397,476,l),
(397,476,o),
(397,476,o),
(423,425,o),
(464,381,o),
(529,347,o),
(580,347,qs),
(647,347,o),
(737,422,o),
(737,488,q),
(737,488,l),
(737,551,o),
(655,625,o),
(595,625,qs),
(559,625,o),
(499,598,o),
(464,561,q),
(464,561,o),
(464,561,o),
(464,561,q),
(104,712,l),
(104,712,o),
(104,712,o),
(104,712,q),
(192,1432,l),
(192,1432,o),
(192,1432,o),
(192,1432,q),
(1089,1432,l),
(1089,1432,o),
(1089,1432,o),
(1089,1432,q),
(1089,1057,l),
(1089,1057,o),
(1089,1057,o),
(1089,1057,q),
(497,1057,l),
(473,872,l),
(481,868,l),
(529,901,o),
(654,939,o),
(730,939,qs),
(930,939,o),
(1174,684,o),
(1174,484,q),
(1174,484,l),
(1174,247,o),
(863,-34,o),
(607,-34,qs)
);
}
);
width = 1234;
},
{
layerId = "76B034D3-4D70-4D21-802E-5635595471DF";
shapes = (
{
closed = 1;
nodes = (
(414,-32,o),
(206,58,o),
(70,212,o),
(23,365,o),
(23,365,o),
(23,365,q),
(390,472,l),
(390,472,o),
(390,472,o),
(410,417,o),
(444,372,o),
(500,340,o),
(542,340,qs),
(600,340,o),
(676,408,o),
(676,478,qs),
(676,493,ls),
(676,558,o),
(606,625,o),
(554,625,qs),
(521,625,o),
(470,598,o),
(440,563,q),
(440,563,o),
(440,563,o),
(440,563,q),
(90,702,l),
(90,702,o),
(91,702,o),
(90,702,q),
(168,1432,l),
(168,1432,o),
(168,1432,o),
(168,1432,q),
(1024,1432,l),
(1024,1432,o),
(1024,1432,o),
(1024,1432,q),
(1024,1059,l),
(1024,1059,o),
(1024,1059,o),
(1024,1059,q),
(471,1059,l),
(449,863,l),
(457,859,l),
(501,893,o),
(622,933,o),
(697,933,qs),
(882,933,o),
(1106,683,o),
(1106,476,q),
(1106,476,l),
(1106,239,o),
(813,-32,o),
(573,-32,qs)
);
}
);
width = 1160;
},
{
layerId = "B9481DB1-5939-4760-8C0A-E1CA4C5276BA";
shapes = (
{
closed = 1;
nodes = (
(444,-34,o),
(249,51,o),
(119,199,o),
(65,354,o),
(65,354,o),
(65,354,q),
(246,413,l),
(246,413,o),
(246,413,o),
(296,296,o),
(376,201,o),
(489,151,o),
(565,151,qs),
(700,151,o),
(868,318,o),
(868,456,q),
(868,456,l),
(868,592,o),
(700,755,o),
(573,755,qs),
(501,755,o),
(379,698,o),
(310,616,q),
(310,616,o),
(310,616,o),
(310,616,q),
(118,694,l),
(118,694,o),
(118,694,o),
(118,694,q),
(212,1432,l),
(212,1432,o),
(212,1432,o),
(212,1432,q),
(983,1432,l),
(983,1432,o),
(983,1432,o),
(983,1432,q),
(983,1246,l),
(983,1246,o),
(983,1246,o),
(983,1246,q),
(367,1246,l),
(313,833,l),
(319,831,l),
(378,880,o),
(523,938,o),
(616,938,qs),
(803,938,o),
(1066,666,o),
(1066,454,q),
(1066,454,l),
(1066,239,o),
(784,-34,o),
(568,-34,qs)
);
}
);
width = 1154;
},
{
layerId = "2B9CF20A-12EE-404A-A917-16C5B0FAAE67";
shapes = (
{
closed = 1;
nodes = (
(398,-30,o),
(219,60,o),
(109,211,o),
(68,358,o),
(68,358,o),
(68,358,q),
(248,408,l),
(248,408,o),
(248,408,o),
(286,296,o),
(350,202,o),
(448,148,o),
(514,148,qs),
(627,148,o),
(765,295,o),
(765,430,qs),
(765,486,ls),
(765,616,o),
(627,757,o),
(520,757,qs),
(456,757,o),
(353,701,o),
(297,619,q),
(297,619,o),
(297,619,o),
(297,619,q),
(114,685,l),
(114,685,o),
(114,685,o),
(114,685,q),
(194,1432,l),
(194,1432,o),
(194,1432,o),
(194,1432,q),
(887,1432,l),
(887,1432,o),
(887,1432,o),
(887,1432,q),
(887,1251,l),
(887,1251,o),
(887,1251,o),
(887,1251,q),
(347,1251,l),
(300,835,l),
(306,833,l),
(354,879,o),
(482,934,o),
(565,934,qs),
(732,934,o),
(958,691,o),
(958,487,qs),
(958,429,ls),
(958,219,o),
(710,-30,o),
(517,-30,qs)
);
}
);
width = 1042;
},
{
layerId = "B44B52C7-1267-447A-96E2-7C7AAD20E5C8";
shapes = (
{
closed = 1;
nodes = (
(426,-30,o),
(223,80,o),
(124,246,o),
(94,340,o),
(94,340,o),
(94,340,q),
(157,362,l),
(157,362,o),
(157,362,o),
(186,271,o),
(265,136,o),
(436,31,o),
(562,31,qs),
(728,31,o),
(942,256,o),
(942,451,q),
(942,451,l),
(942,640,o),
(739,854,o),
(578,854,qs),
(474,854,o),
(294,754,o),
(218,658,q),
(218,658,o),
(218,658,o),
(218,658,q),
(146,684,l),
(146,684,o),
(146,684,o),
(146,684,q),
(239,1432,l),
(239,1432,o),
(239,1432,o),
(239,1432,q),
(942,1432,l),
(942,1432,o),
(942,1432,o),
(942,1432,q),
(942,1367,l),
(942,1367,o),
(942,1367,o),
(942,1367,q),
(295,1367,l),
(216,740,l),
(219,738,l),
(278,814,o),
(467,916,o),
(585,916,qs),
(767,916,o),
(1011,671,o),
(1011,453,q),
(1011,453,l),
(1011,230,o),
(757,-30,o),
(561,-30,qs)
);
}
);
width = 1112;
},
{
layerId = "6ABF3C13-8B80-436D-8B0B-86D4B5DD3694";
shapes = (
{
closed = 1;
nodes = (
(379,-26,o),
(201,82,o),
(118,245,o),
(94,339,o),
(94,339,o),
(94,339,q),
(157,360,l),
(157,360,o),
(157,360,o),
(181,264,o),
(247,133,o),
(394,34,o),
(506,34,qs),
(653,34,o),
(837,236,o),
(837,428,qs),
(837,479,ls),
(837,664,o),
(661,855,o),
(521,855,qs),
(424,855,o),
(268,758,o),
(203,661,q),
(203,661,o),
(203,661,o),
(203,661,q),
(134,685,l),
(134,685,o),
(134,685,o),
(134,685,q),
(215,1432,l),
(215,1432,o),
(215,1432,o),
(215,1432,q),
(843,1432,l),
(843,1432,o),
(843,1432,o),
(843,1432,q),
(843,1368,l),
(843,1368,o),
(843,1368,o),
(843,1368,q),
(270,1368,l),
(202,751,l),
(205,749,l),
(253,819,o),
(419,915,o),
(527,915,qs),
(691,915,o),
(904,694,o),
(904,480,qs),
(904,428,ls),
(904,210,o),
(682,-26,o),
(505,-26,qs)
);
}
);
width = 999;
}
);
unicode = 53;
},
{
glyphname = six;
layers = (
{
layerId = "FBB1375C-3A63-4BAF-915A-A70EF4A52AF6";
shapes = (
{
closed = 1;
nodes = (
(379,-35,o),
(43,274,o),
(43,519,q),
(43,519,l),
(43,686,o),
(213,967,o),
(405,1172,q),
(706,1505,l),
(706,1505,o),
(706,1505,o),
(706,1505,q),
(1033,1256,l),
(1033,1256,o),
(1033,1256,o),
(1033,1256,q),
(807,1018,l),
(748,954,o),
(417,786,o),
(367,527,q),
(96,518,l),
(165,778,o),
(516,982,o),
(789,982,qs),
(983,982,o),
(1253,717,o),
(1253,506,q),
(1253,506,l),
(1253,277,o),
(917,-35,o),
(649,-35,qs)
);
},
{
closed = 1;
nodes = (
(722,335,o),
(814,431,o),
(814,513,q),
(814,513,l),
(814,600,o),
(722,692,o),
(649,692,qs),
(574,692,o),
(482,600,o),
(482,513,q),
(482,513,l),
(482,430,o),
(575,335,o),
(648,335,qs)
);
}
);
width = 1295;
},
{
layerId = "76B034D3-4D70-4D21-802E-5635595471DF";
shapes = (
{
closed = 1;
nodes = (
(351,-33,o),
(39,265,o),
(39,510,q),
(39,510,l),
(39,672,o),
(188,944,o),
(356,1144,q),
(645,1501,l),
(645,1501,o),
(645,1501,o),
(645,1501,q),
(970,1269,l),
(970,1269,o),
(971,1268,o),
(970,1269,q),
(750,1012,ls),
(691,942,o),
(402,781,o),
(359,514,q),
(98,507,l),
(144,741,o),
(471,964,o),
(732,964,qs),
(920,964,o),
(1176,708,o),
(1176,495,q),
(1176,495,l),
(1176,268,o),
(865,-33,o),
(609,-33,qs)
);
},
{
closed = 1;
nodes = (
(673,325,o),
(747,411,o),
(747,492,qs),
(747,506,ls),
(747,589,o),
(673,674,o),
(608,674,qs),
(544,674,o),
(468,589,o),
(468,506,qs),
(468,492,ls),
(468,410,o),
(545,325,o),
(608,325,qs)
);
}
);
width = 1214;
},
{
layerId = "B9481DB1-5939-4760-8C0A-E1CA4C5276BA";
shapes = (
{
closed = 1;
nodes = (
(370,-34,o),
(86,250,o),
(86,477,q),
(86,477,l),
(86,619,o),
(233,905,o),
(382,1074,q),
(736,1488,l),
(736,1488,o),
(736,1488,o),
(736,1488,q),
(876,1364,l),
(876,1364,o),
(876,1364,o),
(876,1364,q),
(552,973,l),
(470,881,o),
(289,761,o),
(222,472,q),
(112,474,l),
(160,730,o),
(464,954,o),
(663,954,qs),
(857,954,o),
(1123,681,o),
(1123,471,q),
(1123,471,l),
(1123,258,o),
(837,-34,o),
(607,-34,qs)
);
},
{
closed = 1;
nodes = (
(743,145,o),
(919,321,o),
(919,465,q),
(919,465,l),
(919,605,o),
(743,780,o),
(606,780,qs),
(465,780,o),
(289,607,o),
(289,466,q),
(289,466,l),
(289,321,o),
(467,145,o),
(605,145,qs)
);
}
);
width = 1200;
},
{
layerId = "2B9CF20A-12EE-404A-A917-16C5B0FAAE67";
shapes = (
{
closed = 1;
nodes = (
(331,-30,o),
(81,230,o),
(81,446,qs),
(81,490,ls),
(81,632,o),
(205,900,o),
(332,1060,q),
(647,1478,l),
(647,1478,o),
(647,1478,o),
(647,1478,q),
(791,1367,l),
(791,1367,o),
(791,1367,o),
(791,1367,q),
(509,981,l),
(440,896,o),
(271,763,o),
(208,488,q),
(108,488,l),
(150,735,o),
(413,942,o),
(593,942,qs),
(766,942,o),
(1001,691,o),
(1001,489,qs),
(1001,444,ls),
(1001,236,o),
(751,-30,o),
(543,-30,qs)
);
},
{
closed = 1;
nodes = (
(659,143,o),
(803,299,o),
(803,438,qs),
(803,480,ls),
(803,615,o),
(659,773,o),
(542,773,qs),
(423,773,o),
(279,616,o),
(279,481,qs),
(279,439,ls),
(279,299,o),
(425,143,o),
(542,143,qs)
);
}
);
width = 1075;
},
{
layerId = "B44B52C7-1267-447A-96E2-7C7AAD20E5C8";
shapes = (
{
closed = 1;
nodes = (
(371,-29,o),
(102,255,o),
(102,465,q),
(102,465,l),
(102,605,o),
(223,850,o),
(346,994,qs),
(748,1463,l),
(748,1463,o),
(748,1463,o),
(748,1463,q),
(797,1416,l),
(797,1416,o),
(797,1416,o),
(797,1416,q),
(352,893,l),
(260,796,o),
(161,620,o),
(161,459,q),
(111,465,l),
(111,682,o),
(418,935,o),
(601,935,qs),
(812,935,o),
(1080,670,o),
(1080,458,q),
(1080,458,l),
(1080,257,o),
(806,-29,o),
(592,-29,qs)
);
},
{
closed = 1;
nodes = (
(771,32,o),
(1010,270,o),
(1010,458,q),
(1010,458,l),
(1010,653,o),
(774,873,o),
(598,873,qs),
(406,873,o),
(172,655,o),
(172,461,q),
(172,461,l),
(172,273,o),
(407,32,o),
(592,32,qs)
);
}
);
width = 1182;
},
{
layerId = "6ABF3C13-8B80-436D-8B0B-86D4B5DD3694";
shapes = (
{
closed = 1;
nodes = (
(326,-26,o),
(97,234,o),
(97,435,qs),
(97,479,ls),
(97,622,o),
(201,861,o),
(317,1009,q),
(664,1460,l),
(664,1460,o),
(664,1460,o),
(664,1460,q),
(714,1416,l),
(714,1416,o),
(714,1416,o),
(714,1416,q),
(331,907,l),
(240,801,o),
(154,631,o),
(154,476,q),
(105,480,l),
(105,686,o),
(369,928,o),
(536,928,qs),
(723,928,o),
(952,681,o),
(952,478,qs),
(952,432,ls),
(952,237,o),
(719,-26,o),
(525,-26,qs)
);
},
{
closed = 1;
nodes = (
(682,34,o),
(883,248,o),
(883,433,qs),
(883,477,ls),
(883,668,o),
(683,868,o),
(530,868,qs),
(363,868,o),
(166,669,o),
(166,479,qs),
(166,434,ls),
(166,250,o),
(364,34,o),
(526,34,qs)
);
}
);
width = 1047;
}
);
unicode = 54;
},
{
glyphname = seven;
layers = (
{
layerId = "FBB1375C-3A63-4BAF-915A-A70EF4A52AF6";
shapes = (
{
closed = 1;
nodes = (
(117,148,l),
(117,148,o),
(117,148,o),
(117,148,q),
(602,1030,l),
(595,1039,l),
(29,1039,l),
(29,1039,o),
(29,1039,o),
(29,1039,q),
(29,1432,l),
(29,1432,o),
(29,1432,o),
(29,1432,q),
(1102,1432,l),
(1102,1432,o),
(1102,1432,o),
(1102,1432,q),
(1102,1103,o),
(1102,1103,o),
(1085,1070,qs),
(498,-60,l),
(498,-60,o),
(498,-60,o),
(498,-60,q)
);
}
);
width = 1128;
},
{
layerId = "76B034D3-4D70-4D21-802E-5635595471DF";
shapes = (
{
closed = 1;
nodes = (
(102,131,l),
(102,131,o),
(102,131,o),
(102,131,q),
(554,1038,l),
(548,1047,l),
(26,1047,l),
(26,1047,o),
(26,1047,o),
(26,1047,q),
(26,1432,l),
(26,1432,o),
(26,1432,o),
(26,1432,q),
(1045,1432,l),
(1045,1432,o),
(1045,1432,o),
(1045,1432,q),
(1045,1125,o),
(1045,1125,o),
(1031,1096,qs),
(485,-57,l),
(485,-57,o),
(485,-57,o),
(485,-57,q)
);
}
);
width = 1067;
},
{
layerId = "B9481DB1-5939-4760-8C0A-E1CA4C5276BA";
shapes = (
{
closed = 1;
nodes = (
(154,56,l),
(154,56,o),
(154,56,o),
(154,56,q),
(787,1240,l),
(784,1246,l),
(51,1246,l),
(51,1246,o),
(51,1246,o),
(51,1246,q),
(51,1432,l),
(51,1432,o),
(51,1432,o),
(51,1432,q),
(1022,1432,l),
(1022,1432,o),
(1022,1432,o),
(1022,1432,q),
(1022,1268,o),
(1022,1268,o),
(1013,1250,qs),
(335,-34,l),
(335,-34,o),
(335,-34,o),
(335,-34,q)
);
}
);
width = 1065;
},
{
layerId = "2B9CF20A-12EE-404A-A917-16C5B0FAAE67";
shapes = (
{
closed = 1;
nodes = (
(137,51,l),
(137,51,o),
(137,51,o),
(137,51,q),
(686,1245,l),
(683,1251,l),
(45,1251,l),
(45,1251,o),
(45,1251,o),
(45,1251,q),
(45,1432,l),
(45,1432,o),
(45,1432,o),
(45,1432,q),
(909,1432,l),
(909,1432,o),
(909,1432,o),
(909,1432,q),
(909,1279,o),
(909,1279,o),
(902,1263,qs),
(316,-29,l),
(316,-29,o),
(316,-29,o),
(316,-29,q)
);
}
);
width = 949;
},
{
layerId = "B44B52C7-1267-447A-96E2-7C7AAD20E5C8";
shapes = (
{
closed = 1;
nodes = (
(196,4,l),
(196,4,o),
(196,4,o),
(196,4,q),
(904,1363,l),
(904,1367,l),
(53,1367,l),
(53,1367,o),
(53,1367,o),
(53,1367,q),
(53,1432,l),
(53,1432,o),
(53,1432,o),
(53,1432,q),
(985,1432,l),
(985,1432,o),
(985,1432,o),
(985,1432,q),
(985,1377,o),
(985,1377,o),
(980,1367,qs),
(260,-23,l),
(260,-23,o),
(260,-23,o),
(260,-23,q)
);
}
);
width = 1039;
},
{
layerId = "6ABF3C13-8B80-436D-8B0B-86D4B5DD3694";
shapes = (
{
closed = 1;
nodes = (
(169,4,l),
(169,4,o),
(169,4,o),
(169,4,q),
(786,1365,l),
(785,1369,l),
(47,1369,l),
(47,1369,o),
(47,1369,o),
(47,1369,q),
(47,1432,l),
(47,1432,o),
(47,1432,o),
(47,1432,q),
(866,1432,l),
(866,1432,o),
(866,1432,o),
(866,1432,q),
(866,1382,o),
(866,1382,o),
(858,1363,qs),
(234,-20,l),
(234,-20,o),
(234,-20,o),
(234,-20,q)
);
}
);
width = 914;
}
);
unicode = 55;
},
{
glyphname = eight;
layers = (
{
layerId = "FBB1375C-3A63-4BAF-915A-A70EF4A52AF6";
shapes = (
{
closed = 1;
nodes = (
(371,-37,o),
(62,216,o),
(62,410,q),
(62,410,l),
(62,527,o),
(208,718,o),
(320,760,q),
(320,769,l),
(233,809,o),
(114,966,o),
(114,1064,q),
(114,1064,l),
(114,1247,o),
(406,1470,o),
(652,1470,qs),
(899,1470,o),
(1190,1247,o),
(1190,1064,q),
(1190,1064,l),
(1190,966,o),
(1072,810,o),
(986,769,q),
(986,760,l),
(1096,718,o),
(1244,540,o),
(1244,416,q),
(1244,416,l),
(1244,217,o),
(936,-37,o),
(652,-37,qs)
);
},
{
closed = 1;
nodes = (
(734,307,o),
(816,390,o),
(816,462,q),
(816,462,l),
(816,530,o),
(734,614,o),
(652,614,qs),
(571,614,o),
(489,530,o),
(489,458,q),
(489,458,l),
(489,390,o),
(570,307,o),
(652,307,qs)
);
},
{
closed = 1;
nodes = (
(722,880,o),
(788,949,o),
(788,1008,q),
(788,1008,l),
(788,1070,o),
(721,1138,o),
(652,1138,qs),
(584,1138,o),
(517,1070,o),
(517,1008,q),
(517,1008,l),
(517,949,o),
(584,880,o),
(652,880,qs)
);
}
);
width = 1306;
},
{
layerId = "76B034D3-4D70-4D21-802E-5635595471DF";
shapes = (
{
closed = 1;
nodes = (
(350,-34,o),
(56,213,o),
(56,407,q),
(56,407,l),
(56,532,o),
(199,718,o),
(314,760,q),
(314,769,l),
(221,806,o),
(101,963,o),
(101,1071,q),
(101,1071,l),
(101,1247,o),
(379,1467,o),
(614,1467,qs),
(850,1467,o),
(1127,1252,o),
(1127,1071,q),
(1127,1071,l),
(1127,962,o),
(1007,807,o),
(917,769,q),
(917,760,l),
(1030,718,o),
(1175,541,o),
(1175,411,q),
(1175,412,l),
(1175,214,o),
(882,-34,o),
(614,-34,qs)
);
},
{
closed = 1;
nodes = (
(684,308,o),
(754,384,o),
(754,456,qs),
(754,468,ls),
(754,537,o),
(684,615,o),
(614,615,qs),
(545,615,o),
(476,537,o),
(476,465,qs),
(476,453,ls),
(476,384,o),
(545,308,o),
(614,308,qs)
);
},
{
closed = 1;
nodes = (
(674,878,o),
(732,942,o),
(732,1001,qs),
(732,1011,ls),
(732,1073,o),
(674,1137,o),
(614,1137,qs),
(556,1137,o),
(497,1073,o),
(497,1011,qs),
(497,1001,ls),
(497,943,o),
(555,878,o),
(614,878,qs)
);
}
);
width = 1230;
},
{
layerId = "B9481DB1-5939-4760-8C0A-E1CA4C5276BA";
shapes = (
{
closed = 1;
nodes = (
(366,-34,o),
(90,207,o),
(90,399,q),
(90,399,l),
(90,539,o),
(247,731,o),
(369,765,q),
(369,771,l),
(271,811,o),
(144,970,o),
(144,1085,q),
(144,1085,l),
(144,1253,o),
(391,1466,o),
(592,1466,qs),
(794,1466,o),
(1040,1253,o),
(1040,1085,q),
(1040,1085,l),
(1040,970,o),
(910,807,o),
(815,771,q),
(815,765,l),
(936,731,o),
(1095,545,o),
(1095,398,q),
(1095,398,l),
(1095,207,o),
(819,-34,o),
(592,-34,qs)
);
},
{
closed = 1;
nodes = (
(731,149,o),
(890,294,o),
(890,408,q),
(890,408,l),
(890,522,o),
(732,672,o),
(592,672,qs),
(455,672,o),
(294,525,o),
(294,410,q),
(294,410,l),
(294,297,o),
(453,149,o),
(592,149,qs)
);
},
{
closed = 1;
nodes = (
(703,847,o),
(841,970,o),
(841,1068,q),
(841,1068,l),
(841,1168,o),
(703,1285,o),
(592,1285,qs),
(481,1285,o),
(343,1168,o),
(343,1068,q),
(343,1068,l),
(343,970,o),
(481,847,o),
(592,847,qs)
);
}
);
width = 1185;
},
{
layerId = "2B9CF20A-12EE-404A-A917-16C5B0FAAE67";
shapes = (
{
closed = 1;
nodes = (
(333,-30,o),
(89,196,o),
(89,378,qs),
(89,423,ls),
(89,555,o),
(229,734,o),
(337,766,q),
(337,772,l),
(249,809,o),
(134,960,o),
(134,1066,qs),
(134,1100,ls),
(134,1263,o),
(358,1462,o),
(538,1462,qs),
(719,1462,o),
(942,1263,o),
(942,1100,qs),
(942,1066,ls),
(942,959,o),
(825,806,o),
(739,772,q),
(739,766,l),
(846,734,o),
(989,560,o),
(989,422,qs),
(989,378,ls),
(989,195,o),
(746,-30,o),
(538,-30,qs)
);
},
{
closed = 1;
nodes = (
(656,146,o),
(790,277,o),
(790,386,qs),
(790,433,ls),
(790,542,o),
(657,675,o),
(538,675,qs),
(421,675,o),
(287,544,o),
(287,434,qs),
(287,387,ls),
(287,279,o),
(420,146,o),
(538,146,qs)
);
},
{
closed = 1;
nodes = (
(634,844,o),
(749,956,o),
(749,1048,qs),
(749,1087,ls),
(749,1182,o),
(634,1287,o),
(538,1287,qs),
(443,1287,o),
(327,1182,o),
(327,1087,qs),
(327,1048,ls),
(327,957,o),
(442,844,o),
(538,844,qs)
);
}
);
width = 1077;
},
{
layerId = "B44B52C7-1267-447A-96E2-7C7AAD20E5C8";
shapes = (
{
closed = 1;
nodes = (
(356,-29,o),
(108,205,o),
(108,387,q),
(108,387,l),
(108,558,o),
(298,754,o),
(444,773,q),
(444,777,l),
(326,800,o),
(169,976,o),
(169,1111,q),
(169,1111,l),
(169,1265,o),
(393,1462,o),
(567,1462,qs),
(743,1462,o),
(965,1265,o),
(965,1110,q),
(965,1110,l),
(965,975,o),
(807,800,o),
(688,777,q),
(688,773,l),
(835,754,o),
(1027,561,o),
(1027,387,q),
(1027,387,l),
(1027,205,o),
(779,-29,o),
(566,-29,qs)
);
},
{
closed = 1;
nodes = (
(742,33,o),
(957,226,o),
(957,392,q),
(957,392,l),
(957,552,o),
(752,740,o),
(567,740,qs),
(382,740,o),
(177,552,o),
(177,391,q),
(177,391,l),
(177,227,o),
(392,33,o),
(567,33,qs)
);
},
{
closed = 1;
nodes = (
(718,801,o),
(897,976,o),
(897,1110,q),
(897,1110,l),
(897,1240,o),
(718,1399,o),
(567,1399,qs),
(417,1399,o),
(236,1240,o),
(236,1110,q),
(236,1110,l),
(236,977,o),
(417,801,o),
(567,801,qs)
);
}
);
width = 1135;
},
{
layerId = "6ABF3C13-8B80-436D-8B0B-86D4B5DD3694";
shapes = (
{
closed = 1;
nodes = (
(334,-25,o),
(111,191,o),
(111,366,qs),
(111,406,ls),
(111,567,o),
(280,755,o),
(411,772,q),
(411,776,l),
(305,796,o),
(165,963,o),
(165,1091,qs),
(165,1123,ls),
(165,1275,o),
(365,1458,o),
(521,1458,qs),
(678,1458,o),
(876,1275,o),
(876,1122,qs),
(876,1090,ls),
(876,962,o),
(737,796,o),
(630,776,q),
(630,772,l),
(762,755,o),
(933,575,o),
(933,405,qs),
(933,367,ls),
(933,190,o),
(710,-25,o),
(519,-25,qs)
);
},
{
closed = 1;
nodes = (
(676,35,o),
(864,213,o),
(864,372,qs),
(864,411,ls),
(864,566,o),
(682,741,o),
(521,741,qs),
(360,741,o),
(179,566,o),
(179,409,qs),
(179,371,ls),
(179,214,o),
(366,35,o),
(521,35,qs)
);
},
{
closed = 1;
nodes = (
(654,801,o),
(809,961,o),
(809,1090,qs),
(809,1120,ls),
(809,1250,o),
(654,1396,o),
(521,1396,qs),
(390,1396,o),
(231,1250,o),
(231,1120,qs),
(231,1090,ls),
(231,964,o),
(389,801,o),
(521,801,qs)
);
}
);
width = 1042;
}
);
unicode = 56;
},
{
glyphname = nine;
layers = (
{
layerId = "FBB1375C-3A63-4BAF-915A-A70EF4A52AF6";
shapes = (
{
closed = 1;
nodes = (
(917,1467,o),
(1252,1157,o),
(1252,912,q),
(1252,912,l),
(1252,744,o),
(1082,464,o),
(890,259,q),
(590,-74,l),
(590,-74,o),
(590,-74,o),
(590,-74,q),
(262,176,l),
(262,176,o),
(262,176,o),
(262,176,q),
(488,413,ls),
(548,477,o),
(879,646,o),
(928,904,q),
(1200,912,l),
(1130,653,o),
(779,449,o),
(507,449,qs),
(312,449,o),
(42,714,o),
(42,925,q),
(42,925,l),
(42,1154,o),
(378,1467,o),
(646,1467,qs)
);
},
{
closed = 1;
nodes = (
(573,1096,o),
(481,1001,o),
(481,918,q),
(481,918,l),
(481,830,o),
(573,740,o),
(647,740,qs),
(721,740,o),
(814,831,o),
(814,919,q),
(814,919,l),
(814,1000,o),
(721,1096,o),
(647,1096,qs)
);
}
);
width = 1295;
},
{
layerId = "76B034D3-4D70-4D21-802E-5635595471DF";
shapes = (
{
closed = 1;
nodes = (
(864,1465,o),
(1175,1166,o),
(1175,922,q),
(1175,922,l),
(1175,759,o),
(1026,488,o),
(858,288,q),
(570,-70,l),
(570,-70,o),
(570,-70,o),
(570,-70,q),
(244,164,l),
(244,164,o),
(243,164,o),
(244,164,q),
(464,420,ls),
(524,489,o),
(813,651,o),
(855,917,q),
(1117,923,l),
(1070,690,o),
(743,468,o),
(483,468,qs),
(294,468,o),
(38,723,o),
(38,937,q),
(38,937,l),
(38,1163,o),
(349,1465,o),
(605,1465,qs)
);
},
{
closed = 1;
nodes = (
(541,1107,o),
(467,1022,o),
(467,940,qs),
(467,926,ls),
(467,841,o),
(541,758,o),
(607,758,qs),
(670,758,o),
(747,842,o),
(747,926,qs),
(747,940,ls),
(747,1021,o),
(670,1107,o),
(606,1107,qs)
);
}
);
width = 1214;
},
{
layerId = "B9481DB1-5939-4760-8C0A-E1CA4C5276BA";
shapes = (
{
closed = 1;
nodes = (
(831,1467,o),
(1114,1182,o),
(1114,955,q),
(1114,955,l),
(1114,813,o),
(967,527,o),
(818,358,q),
(465,-56,l),
(465,-56,o),
(465,-56,o),
(465,-56,q),
(324,69,l),
(324,69,o),
(324,69,o),
(324,69,q),
(648,459,l),
(731,551,o),
(912,672,o),
(978,960,q),
(1089,958,l),
(1040,702,o),
(736,478,o),
(538,478,qs),
(343,478,o),
(77,751,o),
(77,961,q),
(77,961,l),
(77,1174,o),
(363,1467,o),
(593,1467,qs)
);
},
{
closed = 1;
nodes = (
(457,1287,o),
(281,1112,o),
(281,967,q),
(281,967,l),
(281,827,o),
(457,653,o),
(595,653,qs),
(735,653,o),
(912,825,o),
(912,967,q),
(912,967,l),
(912,1111,o),
(734,1287,o),
(595,1287,qs)
);
}
);
width = 1200;
},
{
layerId = "2B9CF20A-12EE-404A-A917-16C5B0FAAE67";
shapes = (
{
closed = 1;
nodes = (
(745,1463,o),
(994,1202,o),
(994,986,qs),
(994,942,ls),
(994,800,o),
(870,532,o),
(743,372,q),
(429,-46,l),
(429,-46,o),
(429,-46,o),
(429,-46,q),
(284,66,l),
(284,66,o),
(284,66,o),
(284,66,q),
(566,451,l),
(636,536,o),
(805,670,o),
(867,944,q),
(968,944,l),
(925,697,o),
(662,490,o),
(483,490,qs),
(309,490,o),
(74,741,o),
(74,943,qs),
(74,988,ls),
(74,1196,o),
(324,1463,o),
(532,1463,qs)
);
},
{
closed = 1;
nodes = (
(416,1289,o),
(272,1134,o),
(272,994,qs),
(272,952,ls),
(272,817,o),
(416,660,o),
(534,660,qs),
(652,660,o),
(797,816,o),
(797,952,qs),
(797,994,ls),
(797,1133,o),
(651,1289,o),
(533,1289,qs)
);
}
);
width = 1075;
},
{
layerId = "B44B52C7-1267-447A-96E2-7C7AAD20E5C8";
shapes = (
{
closed = 1;
nodes = (
(812,1462,o),
(1079,1177,o),
(1079,967,q),
(1079,967,l),
(1079,828,o),
(959,582,o),
(836,438,qs),
(434,-31,l),
(434,-31,o),
(434,-31,o),
(434,-31,q),
(384,17,l),
(384,17,o),
(384,17,o),
(384,17,q),
(830,539,l),
(922,636,o),
(1022,813,o),
(1021,973,q),
(1071,967,l),
(1071,750,o),
(764,498,o),
(582,498,qs),
(370,498,o),
(102,762,o),
(102,974,q),
(102,974,l),
(102,1175,o),
(376,1462,o),
(590,1462,qs)
);
},
{
closed = 1;
nodes = (
(411,1400,o),
(172,1163,o),
(172,974,q),
(172,974,l),
(172,779,o),
(408,560,o),
(585,560,qs),
(776,560,o),
(1010,777,o),
(1010,973,q),
(1010,973,l),
(1010,1159,o),
(775,1400,o),
(590,1400,qs)
);
}
);
width = 1182;
},
{
layerId = "6ABF3C13-8B80-436D-8B0B-86D4B5DD3694";
shapes = (
{
closed = 1;
nodes = (
(723,1458,o),
(950,1196,o),
(950,996,qs),
(950,951,ls),
(950,810,o),
(846,570,o),
(730,421,qs),
(383,-29,l),
(383,-29,o),
(383,-29,o),
(383,-29,q),
(332,16,l),
(332,16,o),
(332,16,o),
(332,16,q),
(717,524,l),
(807,629,o),
(894,801,o),
(893,954,q),
(942,951,l),
(942,744,o),
(679,503,o),
(513,503,qs),
(324,503,o),
(96,749,o),
(96,952,qs),
(96,998,ls),
(96,1194,o),
(329,1458,o),
(522,1458,qs)
);
},
{
closed = 1;
nodes = (
(365,1397,o),
(164,1183,o),
(164,998,qs),
(164,953,ls),
(164,762,o),
(364,563,o),
(518,563,qs),
(684,563,o),
(882,762,o),
(882,954,qs),
(882,998,ls),
(882,1181,o),
(684,1397,o),
(522,1397,qs)
);
}
);
width = 1047;
}
);
unicode = 57;
},
{
glyphname = colon;
layers = (
{
layerId = "FBB1375C-3A63-4BAF-915A-A70EF4A52AF6";
shapes = (
{
closed = 1;
nodes = (
(232,630,o),
(93,769,o),
(93,870,qs),
(93,971,o),
(232,1108,o),
(333,1108,qs),
(436,1108,o),
(572,971,o),
(572,870,qs),
(572,769,o),
(436,630,o),
(333,630,qs)
);
},
{
closed = 1;
nodes = (
(232,-19,o),
(93,120,o),
(93,221,qs),
(93,322,o),
(232,460,o),
(333,460,qs),
(436,460,o),
(572,322,o),
(572,221,qs),
(572,120,o),
(436,-19,o),
(333,-19,qs)
);
}
);
width = 681;
},
{
layerId = "76B034D3-4D70-4D21-802E-5635595471DF";
shapes = (
{
closed = 1;
nodes = (
(221,632,o),
(84,768,o),
(84,869,qs),
(84,969,o),
(221,1104,o),
(321,1104,qs),
(423,1104,o),
(557,969,o),
(557,869,qs),
(557,768,o),
(423,632,o),
(321,632,qs)
);
},
{
closed = 1;
nodes = (
(221,-19,o),
(84,118,o),
(84,218,qs),
(84,318,o),
(221,455,o),
(321,455,qs),
(423,455,o),
(557,319,o),
(557,219,qs),
(557,119,o),
(423,-19,o),
(321,-19,qs)
);
}
);
width = 652;
},
{
layerId = "B9481DB1-5939-4760-8C0A-E1CA4C5276BA";
shapes = (
{
closed = 1;
nodes = (
(226,759,o),
(138,847,o),
(138,912,qs),
(138,974,o),
(226,1061,o),
(289,1061,qs),
(355,1061,o),
(442,974,o),
(442,912,qs),
(442,847,o),
(355,759,o),
(289,759,qs)
);
},
{
closed = 1;
nodes = (
(226,-12,o),
(138,76,o),
(138,141,qs),
(138,203,o),
(226,291,o),
(289,291,qs),
(355,291,o),
(442,203,o),
(442,141,qs),
(442,76,o),
(355,-12,o),
(289,-12,qs)
);
}
);
width = 580;
},
{
layerId = "2B9CF20A-12EE-404A-A917-16C5B0FAAE67";
shapes = (
{
closed = 1;
nodes = (
(212,767,o),
(126,852,o),
(126,916,qs),
(126,976,o),
(212,1061,o),
(274,1061,qs),
(338,1061,o),
(423,976,o),
(423,916,qs),
(423,852,o),
(338,767,o),
(274,767,qs)
);
},
{
closed = 1;
nodes = (
(212,-12,o),
(126,74,o),
(126,137,qs),
(126,197,o),
(212,283,o),
(274,283,qs),
(338,283,o),
(423,197,o),
(423,137,qs),
(423,74,o),
(338,-12,o),
(274,-12,qs)
);
}
);
width = 549;
},
{
layerId = "B44B52C7-1267-447A-96E2-7C7AAD20E5C8";
shapes = (
{
closed = 1;
nodes = (
(228,849,o),
(174,903,o),
(174,946,qs),
(174,984,o),
(228,1039,o),
(268,1039,qs),
(309,1039,o),
(364,984,o),
(364,946,qs),
(364,903,o),
(309,849,o),
(268,849,qs)
);
},
{
closed = 1;
nodes = (
(228,-10,o),
(174,45,o),
(174,87,qs),
(174,126,o),
(228,182,o),
(268,182,qs),
(309,182,o),
(364,126,o),
(364,87,qs),
(364,45,o),
(309,-10,o),
(268,-10,qs)
);
}
);
width = 538;
},
{
layerId = "6ABF3C13-8B80-436D-8B0B-86D4B5DD3694";
shapes = (
{
closed = 1;
nodes = (
(217,854,o),
(163,906,o),
(163,949,qs),
(163,986,o),
(216,1039,o),
(255,1039,qs),
(296,1039,o),
(350,986,o),
(350,949,qs),
(350,906,o),
(296,854,o),
(255,854,qs)
);
},
{
closed = 1;
nodes = (
(217,-10,o),
(163,45,o),
(163,85,qs),
(163,123,o),
(216,178,o),
(255,178,qs),
(296,178,o),
(350,124,o),
(350,85,qs),
(350,45,o),
(296,-10,o),
(255,-10,qs)
);
}
);
width = 513;
}
);
leftKerningGroup = colon2;
rightKerningGroup = colon;
unicode = 58;
},
{
glyphname = semicolon;
layers = (
{
layerId = "FBB1375C-3A63-4BAF-915A-A70EF4A52AF6";
shapes = (
{
closed = 1;
nodes = (
(232,630,o),
(91,769,o),
(91,869,qs),
(91,971,o),
(232,1108,o),
(332,1108,qs),
(434,1108,o),
(572,970,o),
(572,870,qs),
(572,769,o),
(434,630,o),
(332,630,qs)
);
},
{
closed = 1;
nodes = (
(203,40,l),
(164,64,o),
(98,160,o),
(98,230,qs),
(98,324,o),
(235,456,o),
(335,456,qs),
(437,456,o),
(571,324,o),
(571,226,qs),
(571,174,o),
(534,67,o),
(480,-8,q),
(245,-326,l),
(245,-326,o),
(245,-326,o),
(39,-179,q)
);
}
);
width = 681;
},
{
layerId = "76B034D3-4D70-4D21-802E-5635595471DF";
shapes = (
{
closed = 1;
nodes = (
(222,632,o),
(83,768,o),
(83,868,qs),
(83,969,o),
(221,1104,o),
(321,1104,qs),
(422,1104,o),
(557,968,o),
(557,869,qs),
(557,768,o),
(421,632,o),
(320,632,qs)
);
},
{
closed = 1;
nodes = (
(196,38,l),
(155,62,o),
(88,158,o),
(88,228,qs),
(88,321,o),
(224,453,o),
(323,453,qs),
(423,453,o),
(557,322,o),
(557,224,qs),
(557,173,o),
(519,69,o),
(469,-4,qs),
(250,-321,l),
(250,-321,o),
(250,-321,o),
(43,-183,q)
);
}
);
width = 652;
},
{
layerId = "B9481DB1-5939-4760-8C0A-E1CA4C5276BA";
shapes = (
{
closed = 1;
nodes = (
(235,759,o),
(146,847,o),
(146,911,qs),
(146,974,o),
(235,1061,o),
(298,1061,qs),
(363,1061,o),
(451,973,o),
(451,912,qs),
(451,847,o),
(363,759,o),
(298,759,qs)
);
},
{
closed = 1;
nodes = (
(243,3,l),
(206,14,o),
(152,83,o),
(152,132,qs),
(152,190,o),
(236,273,o),
(297,273,qs),
(358,273,o),
(442,190,o),
(442,132,qs),
(442,101,o),
(415,35,o),
(379,-20,qs),
(218,-262,l),
(218,-262,o),
(218,-262,o),
(111,-191,q)
);
}
);
width = 580;
},
{
layerId = "2B9CF20A-12EE-404A-A917-16C5B0FAAE67";
shapes = (
{
closed = 1;
nodes = (
(218,767,o),
(132,852,o),
(132,915,qs),
(132,976,o),
(218,1061,o),
(280,1061,qs),
(343,1061,o),
(429,975,o),
(429,916,qs),
(429,852,o),
(343,767,o),
(280,767,qs)
);
},
{
closed = 1;
nodes = (
(228,5,l),
(191,15,o),
(138,83,o),
(138,131,qs),
(138,189,o),
(220,270,o),
(280,270,qs),
(340,270,o),
(423,189,o),
(423,131,qs),
(423,100,o),
(396,34,o),
(362,-20,qs),
(210,-257,l),
(210,-257,o),
(210,-257,o),
(102,-189,q)
);
}
);
width = 549;
},
{
layerId = "B44B52C7-1267-447A-96E2-7C7AAD20E5C8";
shapes = (
{
closed = 1;
nodes = (
(234,849,o),
(179,903,o),
(179,945,qs),
(179,984,o),
(234,1039,o),
(275,1039,qs),
(315,1039,o),
(370,983,o),
(370,946,qs),
(370,903,o),
(315,849,o),
(275,849,qs)
);
},
{
closed = 1;
nodes = (
(247,-6,l),
(215,-2,o),
(173,47,o),
(173,81,qs),
(173,121,o),
(228,176,o),
(269,176,qs),
(309,176,o),
(364,121,o),
(364,82,qs),
(364,60,o),
(345,15,o),
(324,-20,qs),
(187,-244,l),
(187,-244,o),
(187,-244,o),
(125,-206,q)
);
}
);
width = 538;
},
{
layerId = "6ABF3C13-8B80-436D-8B0B-86D4B5DD3694";
shapes = (
{
closed = 1;
nodes = (
(220,854,o),
(167,906,o),
(167,948,qs),
(167,985,o),
(220,1039,o),
(260,1039,qs),
(299,1039,o),
(353,985,o),
(353,949,qs),
(353,906,o),
(299,854,o),
(260,854,qs)
);
},
{
closed = 1;
nodes = (
(236,-2,l),
(205,1,o),
(164,49,o),
(164,82,qs),
(164,122,o),
(217,175,o),
(257,175,qs),
(296,175,o),
(350,122,o),
(350,83,qs),
(350,62,o),
(331,17,o),
(312,-17,q),
(179,-238,l),
(179,-238,o),
(179,-238,o),
(118,-201,q)
);
}
);
width = 513;
}
);
leftKerningGroup = colon2;
rightKerningGroup = colon;
unicode = 59;
},
{
glyphname = less;
layers = (
{
layerId = "FBB1375C-3A63-4BAF-915A-A70EF4A52AF6";
shapes = (
{
closed = 1;
nodes = (
(121,464,l),
(121,464,o),
(121,464,o),
(121,464,q),
(121,834,l),
(121,834,o),
(121,834,o),
(121,834,q),
(1122,1209,l),
(1122,1209,o),
(1122,1209,o),
(1122,1209,q),
(1122,835,l),
(1122,835,o),
(1122,835,o),
(1122,835,q),
(542,653,l),
(542,645,l),
(1122,464,l),
(1122,464,o),
(1122,464,o),
(1122,464,q),
(1122,90,l),
(1122,90,o),
(1122,90,o),
(1122,90,q)
);
}
);
width = 1276;
},
{
layerId = "76B034D3-4D70-4D21-802E-5635595471DF";
shapes = (
{
closed = 1;
nodes = (
(122,466,l),
(122,466,o),
(122,466,o),
(122,466,q),
(122,832,l),
(122,832,o),
(122,832,o),
(122,832,q),
(1079,1191,l),
(1079,1191,o),
(1079,1191,o),
(1079,1191,q),
(1079,823,l),
(1079,823,o),
(1079,823,o),
(1079,823,q),
(529,653,l),
(529,645,l),
(1079,476,l),
(1079,476,o),
(1079,476,o),
(1079,476,q),
(1079,109,l),
(1079,109,o),
(1079,109,o),
(1079,109,q)
);
}
);
width = 1228;
},
{
layerId = "B9481DB1-5939-4760-8C0A-E1CA4C5276BA";
shapes = (
{
closed = 1;
nodes = (
(129,552,l),
(129,552,o),
(129,552,o),
(129,552,q),
(129,738,l),
(129,738,o),
(129,738,o),
(129,738,q),
(1027,1123,l),
(1027,1123,o),
(1027,1123,o),
(1027,1123,q),
(1027,936,l),
(1027,936,o),
(1027,936,o),
(1027,936,q),
(318,648,l),
(318,642,l),
(1027,356,l),
(1027,356,o),
(1027,356,o),
(1027,356,q),
(1027,168,l),
(1027,168,o),
(1027,168,o),
(1027,168,q)
);
}
);
width = 1194;
},
{
layerId = "2B9CF20A-12EE-404A-A917-16C5B0FAAE67";
shapes = (
{
closed = 1;
nodes = (
(123,551,l),
(123,551,o),
(123,551,o),
(123,551,q),
(123,740,l),
(123,740,o),
(123,740,o),
(123,740,q),
(955,1099,l),
(955,1099,o),
(955,1099,o),
(955,1099,q),
(955,915,l),
(955,915,o),
(955,915,o),
(955,915,q),
(303,648,l),
(303,642,l),
(955,375,l),
(955,375,o),
(955,375,o),
(955,375,q),
(955,192,l),
(955,192,o),
(955,192,o),
(955,192,q)
);
}
);
width = 1115;
},
{
layerId = "B44B52C7-1267-447A-96E2-7C7AAD20E5C8";
shapes = (
{
closed = 1;
nodes = (
(143,597,l),
(143,597,o),
(143,597,o),
(143,597,q),
(143,683,l),
(143,683,o),
(143,683,o),
(143,683,q),
(982,1040,l),
(982,1040,o),
(982,1040,o),
(982,1040,q),
(982,965,l),
(982,965,o),
(982,965,o),
(982,965,q),
(206,643,l),
(206,640,l),
(982,315,l),
(982,315,o),
(982,315,o),
(982,315,q),
(982,241,l),
(982,241,o),
(982,241,o),
(982,241,q)
);
}
);
width = 1170;
},
{
layerId = "6ABF3C13-8B80-436D-8B0B-86D4B5DD3694";
shapes = (
{
closed = 1;
nodes = (
(138,598,l),
(138,598,o),
(138,598,o),
(138,598,q),
(138,682,l),
(138,682,o),
(138,682,o),
(138,682,q),
(923,1020,l),
(923,1020,o),
(923,1020,o),
(923,1020,q),
(923,945,l),
(923,945,o),
(923,945,o),
(923,945,q),
(199,643,l),
(199,640,l),
(923,335,l),
(923,335,o),
(923,335,o),
(923,335,q),
(923,261,l),
(923,261,o),
(923,261,o),
(923,261,q)
);
}
);
width = 1102;
}
);
leftKerningGroup = less2;
rightKerningGroup = less;
unicode = 60;
},
{
glyphname = greater;
layers = (
{
layerId = "FBB1375C-3A63-4BAF-915A-A70EF4A52AF6";
shapes = (
{
closed = 1;
nodes = (
(1154,834,l),
(1154,834,o),
(1154,834,o),
(1154,834,q),
(1154,464,l),
(1154,464,o),
(1154,464,o),
(1154,464,q),
(154,89,l),
(154,89,o),
(154,89,o),
(154,89,q),
(154,463,l),
(154,463,o),
(154,463,o),
(154,463,q),
(733,645,l),
(733,653,l),
(154,835,l),
(154,835,o),
(154,835,o),
(154,835,q),
(154,1209,l),
(154,1209,o),
(154,1209,o),
(154,1209,q)
);
}
);
width = 1276;
},
{
layerId = "76B034D3-4D70-4D21-802E-5635595471DF";
shapes = (
{
closed = 1;
nodes = (
(1105,833,l),
(1105,833,o),
(1105,833,o),
(1105,833,q),
(1105,466,l),
(1105,466,o),
(1105,466,o),
(1105,466,q),
(150,108,l),
(150,108,o),
(150,108,o),
(150,108,q),
(150,475,l),
(150,475,o),
(150,475,o),
(150,475,q),
(698,645,l),
(698,653,l),
(150,824,l),
(150,824,o),
(150,824,o),
(150,824,q),
(150,1190,l),
(150,1190,o),
(150,1190,o),
(150,1190,q)
);
}
);
width = 1228;
},
{
layerId = "B9481DB1-5939-4760-8C0A-E1CA4C5276BA";
shapes = (
{
closed = 1;
nodes = (
(1065,738,l),
(1065,738,o),
(1065,738,o),
(1065,738,q),
(1065,552,l),
(1065,552,o),
(1065,552,o),
(1065,552,q),
(167,167,l),
(167,167,o),
(167,167,o),
(167,167,q),
(167,354,l),
(167,354,o),
(167,354,o),
(167,354,q),
(876,642,l),
(876,648,l),
(167,935,l),
(167,935,o),
(167,935,o),
(167,935,q),
(167,1123,l),
(167,1123,o),
(167,1123,o),
(167,1123,q)
);
}
);
width = 1194;
},
{
layerId = "2B9CF20A-12EE-404A-A917-16C5B0FAAE67";
shapes = (
{
closed = 1;
nodes = (
(992,739,l),
(992,739,o),
(992,739,o),
(992,739,q),
(992,550,l),
(992,550,o),
(992,550,o),
(992,550,q),
(160,191,l),
(160,191,o),
(160,191,o),
(160,191,q),
(160,375,l),
(160,375,o),
(160,375,o),
(160,375,q),
(812,642,l),
(812,648,l),
(160,916,l),
(160,916,o),
(160,916,o),
(160,916,q),
(160,1099,l),
(160,1099,o),
(160,1099,o),
(160,1099,q)
);
}
);
width = 1115;
},
{
layerId = "B44B52C7-1267-447A-96E2-7C7AAD20E5C8";
shapes = (
{
closed = 1;
nodes = (
(1027,684,l),
(1027,684,o),
(1027,684,o),
(1027,684,q),
(1027,597,l),
(1027,597,o),
(1027,597,o),
(1027,597,q),
(188,241,l),
(188,241,o),
(188,241,o),
(188,241,q),
(188,316,l),
(188,316,o),
(188,316,o),
(188,316,q),
(964,638,l),
(964,641,l),
(188,966,l),
(188,966,o),
(188,966,o),
(188,966,q),
(188,1040,l),
(188,1040,o),
(188,1040,o),
(188,1040,q)
);
}
);
width = 1170;
},
{
layerId = "6ABF3C13-8B80-436D-8B0B-86D4B5DD3694";
shapes = (
{
closed = 1;
nodes = (
(964,683,l),
(964,683,o),
(964,683,o),
(964,683,q),
(964,598,l),
(964,598,o),
(964,598,o),
(964,598,q),
(179,261,l),
(179,261,o),
(179,261,o),
(179,261,q),
(179,336,l),
(179,336,o),
(179,336,o),
(179,336,q),
(902,638,l),
(902,641,l),
(179,946,l),
(179,946,o),
(179,946,o),
(179,946,q),
(179,1020,l),
(179,1020,o),
(179,1020,o),
(179,1020,q)
);
}
);
width = 1102;
}
);
leftKerningGroup = greater2;
rightKerningGroup = greater;
unicode = 62;
},
{
glyphname = question;
layers = (
{
layerId = "FBB1375C-3A63-4BAF-915A-A70EF4A52AF6";
shapes = (
{
closed = 1;
nodes = (
(370,506,l),
(370,506,o),
(370,506,o),
(370,506,q),
(370,588,ls),
(370,678,o),
(442,800,o),
(546,865,qs),
(628,916,o),
(724,987,o),
(724,1027,q),
(724,1027,l),
(724,1070,o),
(646,1120,o),
(583,1120,qs),
(534,1120,o),
(459,1088,o),
(398,1033,o),
(362,983,o),
(362,983,o),
(362,983,q),
(12,1128,l),
(12,1128,o),
(12,1129,o),
(99,1265,o),
(254,1396,o),
(466,1470,o),
(617,1470,qs),
(868,1470,o),
(1168,1238,o),
(1168,1063,q),
(1168,1063,l),
(1168,948,o),
(1055,785,o),
(937,718,qs),
(866,678,o),
(800,607,o),
(800,564,qs),
(800,506,l),
(800,506,o),
(800,506,o),
(800,506,q)
);
},
{
closed = 1;
nodes = (
(486,-25,o),
(350,106,o),
(350,200,qs),
(350,293,o),
(486,422,o),
(584,422,qs),
(684,422,o),
(821,293,o),
(821,200,qs),
(821,106,o),
(685,-25,o),
(585,-25,qs)
);
}
);
width = 1232;
},
{
layerId = "76B034D3-4D70-4D21-802E-5635595471DF";
shapes = (
{
closed = 1;
nodes = (
(335,507,l),
(335,507,o),
(335,507,o),
(335,507,q),
(335,591,ls),
(335,680,o),
(408,803,o),
(503,870,q),
(579,922,o),
(666,995,o),
(666,1036,q),
(666,1035,l),
(666,1076,o),
(599,1122,o),
(545,1122,qs),
(503,1122,o),
(440,1092,o),
(389,1038,o),
(359,985,o),
(359,985,o),
(359,985,q),
(11,1116,l),
(11,1116,o),
(11,1117,o),
(85,1254,o),
(227,1391,o),
(431,1467,o),
(579,1467,qs),
(819,1467,o),
(1101,1241,o),
(1101,1070,q),
(1101,1070,l),
(1101,953,o),
(991,791,o),
(882,723,qs),
(815,680,o),
(755,611,o),
(755,566,qs),
(755,507,l),
(755,507,o),
(755,507,o),
(755,507,q)
);
},
{
closed = 1;
nodes = (
(447,-24,o),
(313,106,o),
(313,199,qs),
(313,292,o),
(447,421,o),
(544,421,qs),
(642,421,o),
(778,292,o),
(778,199,qs),
(778,106,o),
(643,-24,o),
(544,-24,qs)
);
}
);
width = 1158;
},
{
layerId = "B9481DB1-5939-4760-8C0A-E1CA4C5276BA";
shapes = (
{
closed = 1;
nodes = (
(389,434,l),
(389,434,o),
(389,434,o),
(389,434,q),
(389,529,ls),
(389,628,o),
(456,763,o),
(553,853,qs),
(641,935,o),
(721,1035,o),
(721,1093,q),
(721,1093,l),
(721,1180,o),
(600,1283,o),
(492,1283,qs),
(431,1283,o),
(339,1245,o),
(262,1166,o),
(219,1084,o),
(219,1084,o),
(219,1084,q),
(36,1163,l),
(36,1163,o),
(36,1163,o),
(101,1287,o),
(225,1405,o),
(394,1467,o),
(495,1467,qs),
(690,1467,o),
(926,1257,o),
(926,1090,q),
(926,1090,l),
(926,994,o),
(825,836,o),
(710,739,qs),
(641,681,o),
(588,588,o),
(588,518,qs),
(588,434,l),
(588,434,o),
(588,434,o),
(588,434,q)
);
},
{
closed = 1;
nodes = (
(429,-12,o),
(341,76,o),
(341,140,qs),
(341,201,o),
(429,287,o),
(491,287,qs),
(554,287,o),
(643,201,o),
(643,140,qs),
(643,76,o),
(554,-12,o),
(491,-12,qs)
);
}
);
width = 989;
},
{
layerId = "2B9CF20A-12EE-404A-A917-16C5B0FAAE67";
shapes = (
{
closed = 1;
nodes = (
(348,432,l),
(348,432,o),
(348,432,o),
(348,432,q),
(348,520,ls),
(348,624,o),
(410,761,o),
(494,848,qs),
(573,931,o),
(648,1040,o),
(648,1101,qs),
(648,1108,ls),
(648,1192,o),
(542,1286,o),
(449,1286,qs),
(395,1286,o),
(314,1249,o),
(248,1170,o),
(211,1079,o),
(211,1079,o),
(211,1079,q),
(35,1149,l),
(35,1149,o),
(35,1149,o),
(89,1277,o),
(199,1400,o),
(354,1463,o),
(451,1463,qs),
(631,1463,o),
(845,1269,o),
(845,1108,qs),
(845,1098,ls),
(845,1005,o),
(748,845,o),
(645,744,qs),
(584,684,o),
(539,587,o),
(539,511,qs),
(539,432,l),
(539,432,o),
(539,432,o),
(539,432,q)
);
},
{
closed = 1;
nodes = (
(386,-12,o),
(301,73,o),
(301,135,qs),
(301,194,o),
(386,277,o),
(446,277,qs),
(507,277,o),
(593,194,o),
(593,135,qs),
(593,73,o),
(507,-12,o),
(446,-12,qs)
);
}
);
width = 905;
},
{
layerId = "B44B52C7-1267-447A-96E2-7C7AAD20E5C8";
shapes = (
{
closed = 1;
nodes = (
(460,379,l),
(460,379,o),
(460,379,o),
(460,379,q),
(460,465,ls),
(460,606,o),
(537,742,o),
(631,818,qs),
(732,899,o),
(853,1036,o),
(853,1130,q),
(853,1130,l),
(853,1247,o),
(681,1397,o),
(529,1397,qs),
(429,1397,o),
(289,1324,o),
(207,1213,o),
(173,1133,o),
(173,1133,o),
(173,1133,q),
(110,1158,l),
(110,1158,o),
(110,1158,o),
(146,1244,o),
(233,1362,o),
(403,1459,o),
(529,1459,qs),
(708,1459,o),
(922,1273,o),
(922,1128,q),
(922,1128,l),
(922,1011,o),
(786,858,o),
(677,771,qs),
(590,703,o),
(527,584,o),
(527,458,qs),
(527,379,l),
(527,379,o),
(527,379,o),
(527,379,q)
);
},
{
closed = 1;
nodes = (
(456,-11,o),
(401,43,o),
(401,82,qs),
(401,120,o),
(456,174,o),
(494,174,qs),
(533,174,o),
(588,120,o),
(588,82,qs),
(588,43,o),
(533,-11,o),
(494,-11,qs)
);
}
);
width = 1044;
},
{
layerId = "6ABF3C13-8B80-436D-8B0B-86D4B5DD3694";
shapes = (
{
closed = 1;
nodes = (
(409,379,l),
(409,379,o),
(409,379,o),
(409,379,q),
(409,467,ls),
(409,597,o),
(477,735,o),
(563,815,qs),
(651,895,o),
(758,1034,o),
(758,1133,q),
(758,1133,l),
(758,1253,o),
(608,1394,o),
(475,1394,qs),
(390,1394,o),
(269,1329,o),
(195,1219,o),
(162,1131,o),
(162,1131,o),
(162,1131,q),
(100,1154,l),
(100,1154,o),
(100,1154,o),
(134,1249,o),
(217,1370,o),
(368,1456,o),
(475,1456,qs),
(633,1456,o),
(826,1281,o),
(826,1131,q),
(826,1131,l),
(826,1011,o),
(704,855,o),
(609,770,qs),
(530,698,o),
(475,577,o),
(475,461,qs),
(475,379,l),
(475,379,o),
(475,379,o),
(475,379,q)
);
},
{
closed = 1;
nodes = (
(405,-10,o),
(350,43,o),
(350,82,qs),
(350,120,o),
(405,173,o),
(442,173,qs),
(481,173,o),
(536,120,o),
(536,82,qs),
(536,43,o),
(481,-10,o),
(442,-10,qs)
);
}
);
width = 938;
}
);
unicode = 63;
},
{
glyphname = at;
layers = (
{
layerId = "FBB1375C-3A63-4BAF-915A-A70EF4A52AF6";
shapes = (
{
closed = 1;
nodes = (
(528,-177,o),
(83,266,o),
(83,641,qs),
(83,998,o),
(555,1454,o),
(928,1454,qs),
(1304,1454,o),
(1766,1035,o),
(1766,692,qs),
(1766,455,o),
(1575,211,o),
(1422,211,qs),
(1336,211,o),
(1209,303,o),
(1181,393,q),
(1136,302,o),
(975,211,o),
(880,211,qs),
(700,211,o),
(487,456,o),
(487,633,qs),
(487,817,o),
(700,1060,o),
(866,1060,qs),
(957,1060,o),
(1085,979,o),
(1118,926,q),
(1126,926,l),
(1128,1032,l),
(1126,1032,o),
(1128,1032,o),
(1128,1032,q),
(1321,1032,l),
(1321,1032,o),
(1321,1032,o),
(1321,1032,q),
(1321,598,ls),
(1321,526,o),
(1368,456,o),
(1410,456,qs),
(1458,456,o),
(1517,558,o),
(1517,683,qs),
(1517,930,o),
(1201,1228,o),
(927,1228,qs),
(656,1228,o),
(336,893,o),
(336,634,qs),
(336,377,o),
(638,50,o),
(919,50,qs),
(961,50,o),
(1042,60,o),
(1126,80,o),
(1190,105,o),
(1190,105,o),
(1190,105,q),
(1281,-101,l),
(1281,-101,o),
(1281,-101,o),
(1193,-139,o),
(1075,-166,o),
(967,-177,o),
(920,-177,qs)
);
},
{
closed = 1;
nodes = (
(981,460,o),
(1063,560,o),
(1063,635,qs),
(1063,711,o),
(980,811,o),
(906,811,qs),
(836,811,o),
(753,711,o),
(753,635,qs),
(753,560,o),
(836,460,o),
(908,460,qs)
);
}
);
width = 1843;
},
{
layerId = "76B034D3-4D70-4D21-802E-5635595471DF";
shapes = (
{
closed = 1;
nodes = (
(508,-177,o),
(79,268,o),
(79,641,qs),
(79,1004,o),
(531,1454,o),
(890,1454,qs),
(1250,1454,o),
(1694,1038,o),
(1694,701,qs),
(1694,459,o),
(1505,215,o),
(1356,215,qs),
(1272,215,o),
(1149,306,o),
(1124,395,q),
(1080,303,o),
(930,215,o),
(843,215,qs),
(676,215,o),
(476,452,o),
(476,634,qs),
(476,823,o),
(674,1059,o),
(828,1059,qs),
(912,1059,o),
(1031,980,o),
(1061,924,q),
(1069,924,l),
(1071,1032,l),
(1069,1032,o),
(1071,1032,o),
(1071,1032,q),
(1263,1032,l),
(1263,1032,o),
(1263,1032,o),
(1263,1032,q),
(1263,598,ls),
(1263,527,o),
(1308,458,o),
(1347,458,qs),
(1392,458,o),
(1449,557,o),
(1449,692,qs),
(1449,938,o),
(1150,1230,o),
(890,1230,qs),
(632,1230,o),
(327,900,o),
(327,636,qs),
(327,376,o),
(616,48,o),
(882,48,qs),
(922,48,o),
(996,57,o),
(1074,75,o),
(1139,101,o),
(1139,101,o),
(1139,101,q),
(1230,-103,l),
(1230,-103,o),
(1230,-103,o),
(1141,-141,o),
(1030,-166,o),
(928,-177,o),
(882,-177,qs)
);
},
{
closed = 1;
nodes = (
(938,463,o),
(1008,559,o),
(1008,637,qs),
(1008,716,o),
(937,810,o),
(872,810,qs),
(808,810,o),
(737,716,o),
(737,637,qs),
(737,559,o),
(808,463,o),
(873,463,qs)
);
}
);
width = 1766;
},
{
layerId = "B9481DB1-5939-4760-8C0A-E1CA4C5276BA";
shapes = (
{
closed = 1;
nodes = (
(548,-177,o),
(112,274,o),
(112,642,qs),
(112,1004,o),
(571,1454,o),
(929,1454,qs),
(1290,1454,o),
(1745,1033,o),
(1745,676,qs),
(1745,453,o),
(1568,213,o),
(1431,213,qs),
(1343,213,o),
(1219,317,o),
(1203,415,q),
(1159,315,o),
(984,213,o),
(890,213,qs),
(720,213,o),
(500,451,o),
(500,634,qs),
(500,824,o),
(720,1062,o),
(885,1062,qs),
(982,1062,o),
(1133,965,o),
(1174,882,q),
(1180,882,l),
(1180,1034,l),
(1180,1034,o),
(1180,1034,o),
(1180,1034,q),
(1305,1034,l),
(1305,1034,o),
(1305,1034,o),
(1305,1034,q),
(1305,551,ls),
(1305,459,o),
(1371,362,o),
(1433,362,qs),
(1503,362,o),
(1592,508,o),
(1592,679,qs),
(1592,966,o),
(1233,1305,o),
(935,1305,qs),
(634,1305,o),
(267,937,o),
(267,641,qs),
(267,338,o),
(611,-28,o),
(920,-28,qs),
(969,-28,o),
(1059,-16,o),
(1142,7,o),
(1206,33,o),
(1206,33,o),
(1206,33,q),
(1265,-103,l),
(1265,-103,o),
(1265,-103,o),
(1180,-138,o),
(1072,-165,o),
(971,-177,o),
(918,-177,qs)
);
},
{
closed = 1;
nodes = (
(1014,360,o),
(1153,519,o),
(1153,636,qs),
(1153,760,o),
(1009,915,o),
(907,915,qs),
(801,915,o),
(658,766,o),
(658,636,qs),
(658,510,o),
(801,360,o),
(907,360,qs)
);
}
);
width = 1854;
},
{
layerId = "2B9CF20A-12EE-404A-A917-16C5B0FAAE67";
shapes = (
{
closed = 1;
nodes = (
(509,-176,o),
(104,268,o),
(104,641,qs),
(104,1010,o),
(529,1454,o),
(864,1454,qs),
(1203,1454,o),
(1622,1038,o),
(1622,680,qs),
(1622,454,o),
(1458,215,o),
(1326,215,qs),
(1243,215,o),
(1127,315,o),
(1112,408,q),
(1072,313,o),
(915,214,o),
(825,214,qs),
(671,214,o),
(473,446,o),
(473,635,qs),
(473,830,o),
(670,1061,o),
(822,1061,qs),
(910,1061,o),
(1047,967,o),
(1082,888,q),
(1088,888,l),
(1088,1033,l),
(1088,1033,o),
(1088,1033,o),
(1088,1033,q),
(1212,1033,l),
(1212,1033,o),
(1212,1033,o),
(1212,1033,q),
(1212,544,ls),
(1212,451,o),
(1271,359,o),
(1326,359,qs),
(1391,359,o),
(1471,507,o),
(1471,681,qs),
(1471,970,o),
(1145,1308,o),
(868,1308,qs),
(591,1308,o),
(257,943,o),
(257,640,qs),
(257,333,o),
(574,-30,o),
(857,-30,qs),
(902,-30,o),
(985,-19,o),
(1065,3,o),
(1127,29,o),
(1127,29,o),
(1127,29,q),
(1184,-105,l),
(1184,-105,o),
(1184,-105,o),
(1101,-140,o),
(996,-165,o),
(904,-176,o),
(855,-176,qs)
);
},
{
closed = 1;
nodes = (
(940,360,o),
(1059,511,o),
(1059,637,qs),
(1059,768,o),
(936,915,o),
(846,915,qs),
(751,915,o),
(630,771,o),
(630,637,qs),
(630,507,o),
(751,360,o),
(846,360,qs)
);
}
);
width = 1722;
},
{
layerId = "B44B52C7-1267-447A-96E2-7C7AAD20E5C8";
shapes = (
{
closed = 1;
nodes = (
(563,-168,o),
(144,278,o),
(144,638,qs),
(144,993,o),
(586,1441,o),
(928,1441,qs),
(1273,1441,o),
(1717,1022,o),
(1717,674,qs),
(1717,450,o),
(1556,214,o),
(1440,214,qs),
(1342,214,o),
(1231,348,o),
(1229,471,q),
(1202,354,o),
(1016,211,o),
(901,211,qs),
(731,211,o),
(520,438,o),
(520,632,qs),
(520,827,o),
(735,1056,o),
(894,1056,qs),
(1019,1056,o),
(1196,916,o),
(1223,807,q),
(1227,807,l),
(1227,1029,l),
(1227,1029,o),
(1227,1029,o),
(1227,1029,q),
(1279,1029,l),
(1279,1029,o),
(1279,1029,o),
(1279,1029,q),
(1279,540,ls),
(1279,399,o),
(1358,274,o),
(1438,274,qs),
(1523,274,o),
(1653,475,o),
(1653,674,qs),
(1653,997,o),
(1246,1381,o),
(928,1381,qs),
(613,1381,o),
(208,971,o),
(208,638,qs),
(208,304,o),
(592,-108,o),
(925,-108,qs),
(977,-108,o),
(1072,-95,o),
(1159,-69,o),
(1222,-41,o),
(1222,-41,o),
(1222,-41,q),
(1248,-95,l),
(1248,-95,o),
(1248,-95,o),
(1177,-128,o),
(1072,-155,o),
(973,-168,o),
(925,-168,qs)
);
},
{
closed = 1;
nodes = (
(1039,270,o),
(1215,476,o),
(1216,633,qs),
(1217,797,o),
(1033,997,o),
(904,997,qs),
(769,997,o),
(584,808,o),
(584,633,qs),
(584,460,o),
(766,270,o),
(903,270,qs)
);
}
);
width = 1857;
},
{
layerId = "6ABF3C13-8B80-436D-8B0B-86D4B5DD3694";
shapes = (
{
closed = 1;
nodes = (
(519,-168,o),
(139,268,o),
(139,638,qs),
(139,1003,o),
(541,1441,o),
(858,1441,qs),
(1176,1441,o),
(1577,1031,o),
(1577,675,qs),
(1577,444,o),
(1429,216,o),
(1319,216,qs),
(1231,216,o),
(1128,339,o),
(1125,456,q),
(1097,345,o),
(934,212,o),
(832,212,qs),
(676,212,o),
(491,435,o),
(491,633,qs),
(491,832,o),
(678,1055,o),
(827,1055,qs),
(937,1055,o),
(1092,927,o),
(1118,825,q),
(1122,825,l),
(1122,1028,l),
(1122,1028,o),
(1122,1028,o),
(1122,1028,q),
(1174,1028,l),
(1174,1028,o),
(1174,1028,o),
(1174,1028,q),
(1174,530,ls),
(1174,392,o),
(1247,275,o),
(1317,275,qs),
(1397,275,o),
(1514,468,o),
(1514,675,qs),
(1514,1007,o),
(1148,1382,o),
(857,1382,qs),
(569,1382,o),
(202,982,o),
(202,638,qs),
(202,293,o),
(548,-109,o),
(850,-109,qs),
(898,-109,o),
(987,-97,o),
(1070,-72,o),
(1133,-44,o),
(1133,-44,o),
(1133,-44,q),
(1158,-98,l),
(1158,-98,o),
(1158,-98,o),
(1088,-130,o),
(987,-156,o),
(896,-168,o),
(850,-168,qs)
);
},
{
closed = 1;
nodes = (
(954,270,o),
(1111,471,o),
(1111,634,q),
(1112,804,o),
(950,997,o),
(836,997,qs),
(712,997,o),
(554,813,o),
(554,634,qs),
(554,457,o),
(710,270,o),
(835,270,qs)
);
}
);
width = 1711;
}
);
unicode = 64;
},
{
glyphname = A;
layers = (
{
anchors = (
{
name = b.uni0327;
position = "{794, 0}";
},
{
name = b.uni0328;
position = "{1562, 0}";
},
{
name = t.uni0302;
position = "{800, 1432}";
}
);
layerId = "FBB1375C-3A63-4BAF-915A-A70EF4A52AF6";
shapes = (
{
closed = 1;
nodes = (
(30,0,l),
(30,0,o),
(30,0,o),
(30,0,q),
(610,1432,l),
(610,1432,o),
(610,1432,o),
(610,1432,q),
(984,1432,l),
(984,1432,o),
(984,1432,o),
(984,1432,q),
(1563,0,l),
(1563,0,o),
(1563,0,o),
(1563,0,q),
(1095,0,l),
(1095,0,o),
(1095,0,o),
(1095,0,q),
(857,679,l),
(793,871,l),
(784,871,l),
(725,681,l),
(493,0,l),
(493,0,o),
(493,0,o),
(493,0,q)
);
},
{
closed = 1;
nodes = (
(327,178,l),
(445,492,l),
(1140,492,l),
(1261,178,l)
);
}
);
width = 1593;
},
{
anchors = (
{
name = b.uni0327;
position = "{799, 0}";
},
{
name = b.uni0328;
position = "{1600, 0}";
},
{
name = t.uni0302;
position = "{810, 1432}";
}
);
layerId = "76B034D3-4D70-4D21-802E-5635595471DF";
shapes = (
{
closed = 1;
nodes = (
(32,0,l),
(32,0,o),
(32,0,o),
(32,0,q),
(535,1432,l),
(535,1432,o),
(535,1432,o),
(535,1432,q),
(929,1432,l),
(929,1432,o),
(929,1432,o),
(929,1432,q),
(1428,0,l),
(1428,0,o),
(1428,0,o),
(1428,0,q),
(979,0,l),
(979,0,o),
(979,0,o),
(979,0,q),
(784,673,l),
(730,873,l),
(721,873,l),
(671,674,l),
(479,0,l),
(479,0,o),
(479,0,o),
(479,0,q)
);
},
{
closed = 1;
nodes = (
(296,188,l),
(399,487,l),
(1048,487,l),
(1161,188,l)
);
}
);
width = 1460;
},
{
anchors = (
{
name = b.uni0327;
position = "{799, 0}";
},
{
name = b.uni0328;
position = "{1600, 0}";
},
{
name = t.uni0302;
position = "{810, 1432}";
}
);
layerId = "B9481DB1-5939-4760-8C0A-E1CA4C5276BA";
shapes = (
{
closed = 1;
nodes = (
(54,0,l),
(54,0,o),
(54,0,o),
(54,0,q),
(624,1432,l),
(624,1432,o),
(624,1432,o),
(624,1432,q),
(823,1432,l),
(823,1432,o),
(823,1432,o),
(823,1432,q),
(1391,0,l),
(1391,0,o),
(1391,0,o),
(1391,0,q),
(1179,0,l),
(1179,0,o),
(1179,0,o),
(1179,0,q),
(789,1015,l),
(725,1201,l),
(719,1201,l),
(657,1015,l),
(265,0,l),
(265,0,o),
(265,0,o),
(265,0,q)
);
},
{
closed = 1;
nodes = (
(296,352,l),
(356,535,l),
(1073,535,l),
(1135,352,l)
);
}
);
width = 1445;
},
{
anchors = (
{
name = b.uni0327;
position = "{700, 0}";
},
{
name = b.uni0328;
position = "{1409, 0}";
},
{
name = t.uni0302;
position = "{711, 1432}";
}
);
layerId = "2B9CF20A-12EE-404A-A917-16C5B0FAAE67";
shapes = (
{
closed = 1;
nodes = (
(47,0,l),
(47,0,o),
(47,0,o),
(47,0,q),
(523,1432,l),
(523,1432,o),
(523,1432,o),
(523,1432,q),
(727,1432,l),
(727,1432,o),
(727,1432,o),
(727,1432,q),
(1200,0,l),
(1200,0,o),
(1200,0,o),
(1200,0,q),
(997,0,l),
(997,0,o),
(997,0,o),
(997,0,q),
(677,1018,l),
(626,1184,l),
(620,1184,l),
(571,1018,l),
(247,0,l),
(247,0,o),
(247,0,o),
(247,0,q)
);
},
{
closed = 1;
nodes = (
(264,356,l),
(315,532,l),
(933,532,l),
(984,356,l)
);
}
);
width = 1247;
},
{
anchors = (
{
name = b.uni0327;
position = "{672, 0}";
},
{
name = b.uni0328;
position = "{1324, 0}";
},
{
name = t.uni0302;
position = "{684, 1432}";
}
);
layerId = "B44B52C7-1267-447A-96E2-7C7AAD20E5C8";
shapes = (
{
closed = 1;
nodes = (
(88,0,l),
(88,0,o),
(88,0,o),
(88,0,q),
(662,1439,l),
(662,1439,o),
(662,1439,o),
(662,1439,q),
(727,1439,l),
(727,1439,o),
(727,1439,o),
(727,1439,q),
(1303,0,l),
(1303,0,o),
(1303,0,o),
(1303,0,q),
(1231,0,l),
(1231,0,o),
(1231,0,o),
(1231,0,q),
(757,1197,l),
(697,1365,l),
(693,1365,l),
(633,1197,l),
(158,0,l),
(158,0,o),
(158,0,o),
(158,0,q)
);
},
{
closed = 1;
nodes = (
(296,448,l),
(316,510,l),
(1071,510,l),
(1093,448,l)
);
}
);
width = 1391;
},
{
anchors = (
{
name = b.uni0327;
position = "{538, 0}";
},
{
name = b.uni0328;
position = "{1037, 0}";
},
{
name = t.uni0302;
position = "{551, 1432}";
}
);
layerId = "6ABF3C13-8B80-436D-8B0B-86D4B5DD3694";
shapes = (
{
closed = 1;
nodes = (
(79,0,l),
(79,0,o),
(79,0,o),
(79,0,q),
(557,1438,l),
(557,1438,o),
(557,1438,o),
(557,1438,q),
(623,1438,l),
(623,1438,o),
(623,1438,o),
(623,1438,q),
(1102,0,l),
(1102,0,o),
(1102,0,o),
(1102,0,q),
(1032,0,l),
(1032,0,o),
(1032,0,o),
(1032,0,q),
(638,1206,l),
(593,1353,l),
(589,1353,l),
(543,1206,l),
(146,0,l),
(146,0,o),
(146,0,o),
(146,0,q)
);
},
{
closed = 1;
nodes = (
(256,446,l),
(273,507,l),
(907,507,l),
(924,446,l)
);
}
);
width = 1181;
}
);
leftKerningGroup = A2;
rightKerningGroup = A;
unicode = 65;
},
{
glyphname = B;
layers = (
{
layerId = "FBB1375C-3A63-4BAF-915A-A70EF4A52AF6";
shapes = (
{
closed = 1;
nodes = (
(174,0,l),
(174,0,o),
(174,0,o),
(174,0,q),
(174,1432,l),
(174,1432,o),
(174,1432,o),
(174,1432,q),
(881,1432,ls),
(1069,1432,o),
(1314,1232,o),
(1314,1079,q),
(1314,1079,l),
(1314,944,o),
(1194,778,o),
(1102,743,q),
(1102,735,l),
(1225,709,o),
(1381,535,o),
(1381,392,q),
(1381,392,l),
(1381,227,o),
(1140,0,o),
(935,0,qs)
);
},
{
closed = 1;
nodes = (
(613,328,l),
(792,328,ls),
(854,328,o),
(932,395,o),
(932,457,q),
(932,457,l),
(932,521,o),
(852,591,o),
(787,591,qs),
(533,591,l),
(533,854,l),
(740,854,ls),
(803,854,o),
(880,918,o),
(880,978,q),
(880,978,l),
(880,1037,o),
(806,1098,o),
(744,1098,qs),
(613,1098,l)
);
}
);
width = 1465;
},
{
layerId = "76B034D3-4D70-4D21-802E-5635595471DF";
shapes = (
{
closed = 1;
nodes = (
(160,0,l),
(160,0,o),
(160,0,o),
(160,0,q),
(160,1432,l),
(160,1432,o),
(160,1432,o),
(160,1432,q),
(808,1432,ls),
(999,1432,o),
(1236,1233,o),
(1236,1081,q),
(1236,1081,l),
(1236,946,o),
(1113,780,o),
(1021,748,q),
(1021,739,l),
(1142,716,o),
(1297,541,o),
(1297,397,q),
(1297,396,l),
(1297,228,o),
(1061,0,o),
(860,0,qs)
);
},
{
closed = 1;
nodes = (
(589,328,l),
(723,328,ls),
(786,328,o),
(860,393,o),
(860,457,qs),
(860,460,ls),
(860,526,o),
(782,592,o),
(718,592,qs),
(514,592,l),
(514,854,l),
(687,854,ls),
(748,854,o),
(820,915,o),
(820,975,qs),
(820,981,ls),
(820,1041,o),
(750,1098,o),
(690,1098,qs),
(589,1098,l)
);
}
);
width = 1374;
},
{
layerId = "B9481DB1-5939-4760-8C0A-E1CA4C5276BA";
shapes = (
{
closed = 1;
nodes = (
(200,0,l),
(200,0,o),
(200,0,o),
(200,0,q),
(200,1432,l),
(200,1432,o),
(200,1432,o),
(200,1432,q),
(719,1432,ls),
(924,1432,o),
(1160,1224,o),
(1160,1067,q),
(1160,1067,l),
(1160,942,o),
(1036,784,o),
(938,751,q),
(938,744,l),
(1064,718,o),
(1223,533,o),
(1223,399,q),
(1223,399,l),
(1223,227,o),
(980,0,o),
(769,0,qs)
);
},
{
closed = 1;
nodes = (
(399,180,l),
(762,180,ls),
(874,180,o),
(1023,306,o),
(1023,411,q),
(1023,411,l),
(1023,513,o),
(873,651,o),
(747,651,qs),
(339,651,l),
(339,825,l),
(717,825,ls),
(827,825,o),
(965,941,o),
(965,1043,q),
(965,1043,l),
(965,1146,o),
(824,1252,o),
(715,1252,qs),
(399,1252,l)
);
}
);
width = 1334;
},
{
layerId = "2B9CF20A-12EE-404A-A917-16C5B0FAAE67";
shapes = (
{
closed = 1;
nodes = (
(183,0,l),
(183,0,o),
(183,0,o),
(183,0,q),
(183,1432,l),
(183,1432,o),
(183,1432,o),
(183,1432,q),
(634,1432,ls),
(819,1432,o),
(1035,1235,o),
(1035,1086,qs),
(1035,1051,ls),
(1035,935,o),
(916,784,o),
(825,754,q),
(825,747,l),
(942,725,o),
(1094,548,o),
(1094,418,qs),
(1094,388,ls),
(1094,218,o),
(866,0,o),
(674,0,qs)
);
},
{
closed = 1;
nodes = (
(376,175,l),
(660,175,ls),
(763,175,o),
(898,296,o),
(898,398,qs),
(898,426,ls),
(898,526,o),
(763,654,o),
(651,654,qs),
(316,654,l),
(316,823,l),
(621,823,ls),
(721,823,o),
(844,932,o),
(844,1029,qs),
(844,1059,ls),
(844,1155,o),
(719,1257,o),
(620,1257,qs),
(376,1257,l)
);
}
);
width = 1193;
},
{
layerId = "B44B52C7-1267-447A-96E2-7C7AAD20E5C8";
shapes = (
{
closed = 1;
nodes = (
(213,0,l),
(213,0,o),
(213,0,o),
(213,0,q),
(213,1432,l),
(213,1432,o),
(213,1432,o),
(213,1432,q),
(668,1432,ls),
(851,1432,o),
(1080,1247,o),
(1080,1087,q),
(1080,1087,l),
(1080,951,o),
(921,771,o),
(810,752,q),
(810,748,l),
(949,735,o),
(1144,540,o),
(1144,387,q),
(1144,387,l),
(1144,220,o),
(915,0,o),
(720,0,qs)
);
},
{
closed = 1;
nodes = (
(281,63,l),
(712,63,ls),
(878,63,o),
(1076,244,o),
(1076,387,q),
(1076,387,l),
(1076,523,o),
(873,716,o),
(697,716,qs),
(259,716,l),
(259,779,l),
(685,779,ls),
(829,779,o),
(1013,950,o),
(1013,1079,q),
(1013,1079,l),
(1013,1216,o),
(822,1369,o),
(659,1369,qs),
(281,1369,l)
);
}
);
width = 1274;
},
{
layerId = "6ABF3C13-8B80-436D-8B0B-86D4B5DD3694";
shapes = (
{
closed = 1;
nodes = (
(202,0,l),
(202,0,o),
(202,0,o),
(202,0,q),
(202,1432,l),
(202,1432,o),
(202,1432,o),
(202,1432,q),
(567,1432,ls),
(746,1432,o),
(954,1251,o),
(954,1093,qs),
(954,1078,ls),
(954,944,o),
(806,773,o),
(704,754,q),
(704,750,l),
(831,739,o),
(1014,551,o),
(1014,395,qs),
(1014,379,ls),
(1014,214,o),
(802,0,o),
(614,0,qs)
);
},
{
closed = 1;
nodes = (
(269,61,l),
(608,61,ls),
(764,61,o),
(947,235,o),
(947,381,qs),
(947,394,ls),
(947,535,o),
(758,719,o),
(597,719,qs),
(247,719,l),
(247,780,l),
(587,780,ls),
(719,780,o),
(888,943,o),
(888,1074,qs),
(888,1087,ls),
(888,1221,o),
(717,1371,o),
(561,1371,qs),
(269,1371,l)
);
}
);
width = 1136;
}
);
leftKerningGroup = B;
unicode = 66;
},
{
glyphname = C;
layers = (
{
anchors = (
{
name = b.uni0327;
position = "{767, 0}";
},
{
name = t.uni0335;
position = "{857, 715}";
},
{
name = t.uni0302;
position = "{821, 1432}";
}
);
layerId = "FBB1375C-3A63-4BAF-915A-A70EF4A52AF6";
shapes = (
{
closed = 1;
nodes = (
(506,-37,o),
(87,382,o),
(87,716,q),
(87,716,l),
(87,1053,o),
(530,1470,o),
(859,1470,qs),
(954,1470,o),
(1136,1425,o),
(1300,1335,o),
(1409,1231,o),
(1409,1231,o),
(1409,1231,q),
(1133,922,l),
(1133,922,o),
(1133,922,o),
(1079,976,o),
(1003,1023,o),
(913,1049,o),
(859,1049,qs),
(725,1049,o),
(531,863,o),
(531,715,q),
(531,715,l),
(531,569,o),
(722,383,o),
(862,383,qs),
(904,383,o),
(1002,407,o),
(1087,457,o),
(1148,521,o),
(1148,521,o),
(1148,521,q),
(1434,229,l),
(1434,229,o),
(1434,229,o),
(1325,110,o),
(1148,12,o),
(955,-37,o),
(861,-37,qs)
);
}
);
width = 1476;
},
{
anchors = (
{
name = b.uni0327;
position = "{651, 0}";
},
{
name = t.uni0335;
position = "{859, 695}";
},
{
name = t.uni0302;
position = "{722, 1432}";
}
);
layerId = "76B034D3-4D70-4D21-802E-5635595471DF";
shapes = (
{
closed = 1;
nodes = (
(450,-34,o),
(84,364,o),
(84,717,q),
(84,717,l),
(84,1075,o),
(472,1467,o),
(774,1467,qs),
(885,1467,o),
(1066,1407,o),
(1211,1289,o),
(1296,1152,o),
(1296,1152,o),
(1296,1152,q),
(995,914,l),
(995,914,o),
(995,914,o),
(955,976,o),
(897,1029,o),
(825,1057,o),
(777,1057,qs),
(668,1057,o),
(522,889,o),
(522,739,qs),
(522,692,ls),
(522,539,o),
(669,375,o),
(781,375,qs),
(817,375,o),
(895,401,o),
(960,454,o),
(1005,524,o),
(1005,524,o),
(1005,524,q),
(1314,296,l),
(1314,296,o),
(1314,296,o),
(1226,150,o),
(1069,28,o),
(880,-34,o),
(771,-34,qs)
);
}
);
width = 1362;
},
{
anchors = (
{
name = b.uni0327;
position = "{651, 0}";
},
{
name = t.uni0335;
position = "{859, 695}";
},
{
name = t.uni0302;
position = "{722, 1432}";
}
);
layerId = "B9481DB1-5939-4760-8C0A-E1CA4C5276BA";
shapes = (
{
closed = 1;
nodes = (
(535,-34,o),
(116,385,o),
(116,718,q),
(116,718,l),
(116,1040,o),
(555,1466,o),
(876,1466,qs),
(984,1466,o),
(1170,1417,o),
(1333,1319,o),
(1421,1229,o),
(1421,1229,o),
(1421,1229,q),
(1286,1093,l),
(1286,1093,o),
(1286,1093,o),
(1212,1169,o),
(1097,1241,o),
(963,1280,o),
(871,1280,qs),
(645,1280,o),
(325,970,o),
(325,717,q),
(325,717,l),
(325,465,o),
(641,152,o),
(864,152,qs),
(954,152,o),
(1106,198,o),
(1240,283,o),
(1319,363,o),
(1319,363,o),
(1319,363,q),
(1457,235,l),
(1457,235,o),
(1457,235,o),
(1364,130,o),
(1187,22,o),
(983,-34,o),
(866,-34,qs)
);
}
);
width = 1534;
},
{
anchors = (
{
name = b.uni0327;
position = "{534, 0}";
},
{
name = t.uni0335;
position = "{749, 694}";
},
{
name = t.uni0302;
position = "{602, 1432}";
}
);
layerId = "2B9CF20A-12EE-404A-A917-16C5B0FAAE67";
shapes = (
{
closed = 1;
nodes = (
(453,-30,o),
(111,343,o),
(111,665,qs),
(111,770,ls),
(111,1083,o),
(470,1462,o),
(745,1462,qs),
(849,1462,o),
(1019,1404,o),
(1155,1294,o),
(1224,1187,o),
(1224,1187,o),
(1224,1187,q),
(1076,1078,l),
(1076,1078,o),
(1076,1078,o),
(1019,1163,o),
(929,1241,o),
(819,1282,o),
(741,1282,qs),
(557,1282,o),
(313,1010,o),
(313,773,qs),
(313,660,ls),
(313,422,o),
(556,150,o),
(737,150,qs),
(813,150,o),
(939,197,o),
(1042,282,o),
(1102,368,o),
(1102,368,o),
(1102,368,q),
(1249,264,l),
(1249,264,o),
(1249,264,o),
(1176,147,o),
(1029,32,o),
(843,-30,o),
(737,-30,qs)
);
}
);
width = 1315;
},
{
anchors = (
{
name = b.uni0327;
position = "{508, 0}";
},
{
name = t.uni0335;
position = "{726, 694}";
},
{
name = t.uni0302;
position = "{587, 1432}";
}
);
layerId = "B44B52C7-1267-447A-96E2-7C7AAD20E5C8";
shapes = (
{
closed = 1;
nodes = (
(536,-30,o),
(142,379,o),
(142,717,q),
(142,717,l),
(142,1054,o),
(537,1462,o),
(833,1462,qs),
(965,1462,o),
(1162,1391,o),
(1305,1278,o),
(1362,1206,o),
(1362,1206,o),
(1362,1206,q),
(1313,1168,l),
(1313,1168,o),
(1313,1168,o),
(1254,1243,o),
(1114,1346,o),
(938,1400,o),
(831,1400,qs),
(571,1400,o),
(212,1034,o),
(212,717,q),
(212,717,l),
(212,399,o),
(570,32,o),
(839,32,qs),
(957,32,o),
(1145,103,o),
(1281,211,o),
(1338,286,o),
(1338,286,o),
(1338,286,q),
(1390,249,l),
(1390,249,o),
(1390,249,o),
(1332,171,o),
(1186,54,o),
(976,-30,o),
(840,-30,qs)
);
}
);
width = 1495;
},
{
anchors = (
{
name = b.uni0327;
position = "{364, 0}";
},
{
name = t.uni0335;
position = "{582, 694}";
},
{
name = t.uni0302;
position = "{448, 1432}";
}
);
layerId = "6ABF3C13-8B80-436D-8B0B-86D4B5DD3694";
shapes = (
{
closed = 1;
nodes = (
(462,-26,o),
(141,334,o),
(141,659,qs),
(141,774,ls),
(141,1100,o),
(463,1458,o),
(710,1458,qs),
(827,1458,o),
(999,1378,o),
(1112,1259,o),
(1156,1183,o),
(1156,1183,o),
(1156,1183,q),
(1103,1151,l),
(1103,1151,o),
(1103,1151,o),
(1058,1229,o),
(949,1337,o),
(801,1397,o),
(708,1397,qs),
(498,1397,o),
(210,1077,o),
(210,775,qs),
(210,658,ls),
(210,356,o),
(497,35,o),
(713,35,qs),
(816,35,o),
(973,113,o),
(1076,224,o),
(1119,303,o),
(1119,303,o),
(1119,303,q),
(1174,272,l),
(1174,272,o),
(1174,272,o),
(1130,189,o),
(1017,67,o),
(836,-26,o),
(713,-26,qs)
);
}
);
width = 1269;
}
);
leftKerningGroup = C2;
rightKerningGroup = C;
unicode = 67;
},
{
glyphname = D;
layers = (
{
layerId = "FBB1375C-3A63-4BAF-915A-A70EF4A52AF6";
shapes = (
{
closed = 1;
nodes = (
(174,0,l),
(174,0,o),
(174,0,o),
(174,0,q),
(174,1432,l),
(174,1432,o),
(174,1432,o),
(174,1432,q),
(756,1432,ls),
(1097,1432,o),
(1494,1046,o),
(1494,716,q),
(1494,716,l),
(1494,395,o),
(1085,0,o),
(756,0,qs)
);
},
{
closed = 1;
nodes = (
(613,391,l),
(718,391,l),
(871,389,o),
(1048,548,o),
(1048,712,q),
(1048,712,l),
(1048,893,o),
(866,1034,o),
(718,1034,qs),
(613,1034,l)
);
}
);
width = 1581;
},
{
layerId = "76B034D3-4D70-4D21-802E-5635595471DF";
shapes = (
{
closed = 1;
nodes = (
(160,0,l),
(160,0,o),
(160,0,o),
(160,0,q),
(160,1432,l),
(160,1432,o),
(160,1432,o),
(160,1432,q),
(709,1432,ls),
(1029,1432,o),
(1392,1049,o),
(1392,717,q),
(1392,717,l),
(1392,392,o),
(1016,0,o),
(709,0,qs)
);
},
{
closed = 1;
nodes = (
(591,387,l),
(682,387,l),
(813,386,o),
(954,540,o),
(954,697,qs),
(954,731,ls),
(954,892,o),
(809,1040,o),
(682,1040,qs),
(591,1040,l)
);
}
);
width = 1475;
},
{
layerId = "B9481DB1-5939-4760-8C0A-E1CA4C5276BA";
shapes = (
{
closed = 1;
nodes = (
(200,0,l),
(200,0,o),
(200,0,o),
(200,0,q),
(200,1432,l),
(200,1432,o),
(200,1432,o),
(200,1432,q),
(685,1432,ls),
(1024,1432,o),
(1419,1053,o),
(1419,717,q),
(1419,717,l),
(1419,391,o),
(1019,0,o),
(685,0,qs)
);
},
{
closed = 1;
nodes = (
(404,188,l),
(669,188,ls),
(923,188,o),
(1214,459,o),
(1214,716,q),
(1214,716,l),
(1214,980,o),
(922,1244,o),
(671,1244,qs),
(404,1244,l)
);
}
);
width = 1535;
},
{
layerId = "2B9CF20A-12EE-404A-A917-16C5B0FAAE67";
shapes = (
{
closed = 1;
nodes = (
(183,0,l),
(183,0,o),
(183,0,o),
(183,0,q),
(183,1432,l),
(183,1432,o),
(183,1432,o),
(183,1432,q),
(602,1432,ls),
(898,1432,o),
(1235,1081,o),
(1235,765,qs),
(1235,676,ls),
(1235,366,o),
(891,0,o),
(600,0,qs)
);
},
{
closed = 1;
nodes = (
(380,182,l),
(588,182,ls),
(799,182,o),
(1036,432,o),
(1036,673,qs),
(1036,765,ls),
(1036,1006,o),
(799,1250,o),
(592,1250,qs),
(380,1250,l)
);
}
);
width = 1346;
},
{
layerId = "B44B52C7-1267-447A-96E2-7C7AAD20E5C8";
shapes = (
{
closed = 1;
nodes = (
(213,0,l),
(213,0,o),
(213,0,o),
(213,0,q),
(213,1432,l),
(213,1432,o),
(213,1432,o),
(213,1432,q),
(613,1432,ls),
(947,1432,o),
(1329,1067,o),
(1329,717,q),
(1329,717,l),
(1329,377,o),
(944,0,o),
(613,0,qs)
);
},
{
closed = 1;
nodes = (
(281,64,l),
(598,64,ls),
(904,64,o),
(1259,397,o),
(1259,717,q),
(1259,717,l),
(1259,1035,o),
(911,1368,o),
(604,1368,qs),
(281,1368,l)
);
}
);
width = 1470;
},
{
layerId = "6ABF3C13-8B80-436D-8B0B-86D4B5DD3694";
shapes = (
{
closed = 1;
nodes = (
(202,0,l),
(202,0,o),
(202,0,o),
(202,0,q),
(202,1432,l),
(202,1432,o),
(202,1432,o),
(202,1432,q),
(541,1432,ls),
(830,1432,o),
(1151,1089,o),
(1151,762,qs),
(1151,676,ls),
(1151,353,o),
(826,0,o),
(539,0,qs)
);
},
{
closed = 1;
nodes = (
(270,62,l),
(527,62,ls),
(788,62,o),
(1082,375,o),
(1082,675,qs),
(1082,760,ls),
(1082,1059,o),
(793,1370,o),
(533,1370,qs),
(270,1370,l)
);
}
);
width = 1291;
}
);
leftKerningGroup = B;
rightKerningGroup = D;
unicode = 68;
},
{
glyphname = E;
layers = (
{
anchors = (
{
name = b.uni0327;
position = "{704, 0}";
},
{
name = b.uni0328;
position = "{1233, 0}";
},
{
name = t.uni0302;
position = "{712, 1432}";
}
);
layerId = "FBB1375C-3A63-4BAF-915A-A70EF4A52AF6";
shapes = (
{
closed = 1;
nodes = (
(174,0,l),
(174,0,o),
(174,0,o),
(174,0,q),
(174,1432,l),
(174,1432,o),
(174,1432,o),
(174,1432,q),
(1210,1432,l),
(1210,1432,o),
(1210,1432,o),
(1210,1432,q),
(1210,1045,l),
(1210,1045,o),
(1210,1045,o),
(1210,1045,q),
(608,1045,l),
(608,387,l),
(1233,387,l),
(1233,387,o),
(1233,387,o),
(1233,387,q),
(1233,0,l),
(1233,0,o),
(1233,0,o),
(1233,0,q)
);
},
{
closed = 1;
nodes = (
(449,566,l),
(449,900,l),
(1095,900,l),
(1095,900,o),
(1095,900,o),
(1095,900,q),
(1095,566,l),
(1095,566,o),
(1095,566,o),
(1095,566,q)
);
}
);
width = 1355;
},
{
anchors = (
{
name = b.uni0327;
position = "{711, 0}";
},
{
name = b.uni0328;
position = "{1295, 0}";
},
{
name = t.uni0302;
position = "{722, 1432}";
}
);
layerId = "76B034D3-4D70-4D21-802E-5635595471DF";
shapes = (
{
closed = 1;
nodes = (
(160,0,l),
(160,0,o),
(160,0,o),
(160,0,q),
(160,1432,l),
(160,1432,o),
(160,1432,o),
(160,1432,q),
(1138,1432,l),
(1138,1432,o),
(1138,1432,o),
(1138,1432,q),
(1138,1048,l),
(1138,1048,o),
(1138,1048,o),
(1138,1048,q),
(587,1048,l),
(587,384,l),
(1163,384,l),
(1163,384,o),
(1163,384,o),
(1163,384,q),
(1163,0,l),
(1163,0,o),
(1163,0,o),
(1163,0,q)
);
},
{
closed = 1;
nodes = (
(435,565,l),
(435,902,l),
(1028,902,l),
(1028,902,o),
(1028,902,o),
(1028,902,q),
(1028,565,l),
(1028,565,o),
(1028,565,o),
(1028,565,q)
);
}
);
width = 1273;
},
{
anchors = (
{
name = b.uni0327;
position = "{711, 0}";
},
{
name = b.uni0328;
position = "{1295, 0}";
},
{
name = t.uni0302;
position = "{722, 1432}";
}
);
layerId = "B9481DB1-5939-4760-8C0A-E1CA4C5276BA";
shapes = (
{
closed = 1;
nodes = (
(200,0,l),
(200,0,o),
(200,0,o),
(200,0,q),
(200,1432,l),
(200,1432,o),
(200,1432,o),
(200,1432,q),
(1078,1432,l),
(1078,1432,o),
(1078,1432,o),
(1078,1432,q),
(1078,1248,l),
(1078,1248,o),
(1078,1248,o),
(1078,1248,q),
(399,1248,l),
(399,184,l),
(1101,184,l),
(1101,184,o),
(1101,184,o),
(1101,184,q),
(1101,0,l),
(1101,0,o),
(1101,0,o),
(1101,0,q)
);
},
{
closed = 1;
nodes = (
(323,647,l),
(323,830,l),
(965,830,l),
(965,830,o),
(965,830,o),
(965,830,q),
(965,647,l),
(965,647,o),
(965,647,o),
(965,647,q)
);
}
);
width = 1218;
},
{
anchors = (
{
name = b.uni0327;
position = "{647, 0}";
},
{
name = b.uni0328;
position = "{1185, 0}";
},
{
name = t.uni0302;
position = "{656, 1432}";
}
);
layerId = "2B9CF20A-12EE-404A-A917-16C5B0FAAE67";
shapes = (
{
closed = 1;
nodes = (
(183,0,l),
(183,0,o),
(183,0,o),
(183,0,q),
(183,1432,l),
(183,1432,o),
(183,1432,o),
(183,1432,q),
(969,1432,l),
(969,1432,o),
(969,1432,o),
(969,1432,q),
(969,1253,l),
(969,1253,o),
(969,1253,o),
(969,1253,q),
(376,1253,l),
(376,179,l),
(991,179,l),
(991,179,o),
(991,179,o),
(991,179,q),
(991,0,l),
(991,0,o),
(991,0,o),
(991,0,q)
);
},
{
closed = 1;
nodes = (
(300,654,l),
(300,832,l),
(860,832,l),
(860,832,o),
(860,832,o),
(860,832,q),
(860,654,l),
(860,654,o),
(860,654,o),
(860,654,q)
);
}
);
width = 1082;
},
{
anchors = (
{
name = b.uni0327;
position = "{615, 0}";
},
{
name = b.uni0328;
position = "{1118, 0}";
},
{
name = t.uni0302;
position = "{625, 1432}";
}
);
layerId = "B44B52C7-1267-447A-96E2-7C7AAD20E5C8";
shapes = (
{
closed = 1;
nodes = (
(213,0,l),
(213,0,o),
(213,0,o),
(213,0,q),
(213,1432,l),
(213,1432,o),
(213,1432,o),
(213,1432,q),
(1012,1432,l),
(1012,1432,o),
(1012,1432,o),
(1012,1432,q),
(1012,1369,l),
(1012,1369,o),
(1012,1369,o),
(1012,1369,q),
(281,1369,l),
(281,63,l),
(1034,63,l),
(1034,63,o),
(1034,63,o),
(1034,63,q),
(1034,0,l),
(1034,0,o),
(1034,0,o),
(1034,0,q)
);
},
{
closed = 1;
nodes = (
(253,716,l),
(253,779,l),
(870,779,l),
(870,779,o),
(870,779,o),
(870,779,q),
(870,716,l),
(870,716,o),
(870,716,o),
(870,716,q)
);
}
);
width = 1130;
},
{
anchors = (
{
name = b.uni0327;
position = "{520, 0}";
},
{
name = b.uni0328;
position = "{933, 0}";
},
{
name = t.uni0302;
position = "{529, 1432}";
}
);
layerId = "6ABF3C13-8B80-436D-8B0B-86D4B5DD3694";
shapes = (
{
closed = 1;
nodes = (
(202,0,l),
(202,0,o),
(202,0,o),
(202,0,q),
(202,1432,l),
(202,1432,o),
(202,1432,o),
(202,1432,q),
(897,1432,l),
(897,1432,o),
(897,1432,o),
(897,1432,q),
(897,1371,l),
(897,1371,o),
(897,1371,o),
(897,1371,q),
(269,1371,l),
(269,61,l),
(916,61,l),
(916,61,o),
(916,61,o),
(916,61,q),
(916,0,l),
(916,0,o),
(916,0,o),
(916,0,q)
);
},
{
closed = 1;
nodes = (
(241,721,l),
(241,783,l),
(771,783,l),
(771,783,o),
(771,783,o),
(771,783,q),
(771,721,l),
(771,721,o),
(771,721,o),
(771,721,q)
);
}
);
width = 996;
}
);
leftKerningGroup = B;
rightKerningGroup = E;
unicode = 69;
},
{
glyphname = F;
layers = (
{
layerId = "FBB1375C-3A63-4BAF-915A-A70EF4A52AF6";
shapes = (
{
closed = 1;
nodes = (
(174,0,l),
(174,0,o),
(174,0,o),
(174,0,q),
(174,1432,l),
(174,1432,o),
(174,1432,o),
(174,1432,q),
(1163,1432,l),
(1163,1432,o),
(1163,1432,o),
(1163,1432,q),
(1163,1032,l),
(1163,1032,o),
(1163,1032,o),
(1163,1032,q),
(616,1032,l),
(616,0,l),
(616,0,o),
(616,0,o),
(616,0,q)
);
},
{
closed = 1;
nodes = (
(438,494,l),
(438,852,l),
(1092,852,l),
(1092,852,o),
(1092,852,o),
(1092,852,q),
(1092,494,l),
(1092,494,o),
(1092,494,o),
(1092,494,q)
);
}
);
width = 1255;
},
{
layerId = "76B034D3-4D70-4D21-802E-5635595471DF";
shapes = (
{
closed = 1;
nodes = (
(160,0,l),
(160,0,o),
(160,0,o),
(160,0,q),
(160,1432,l),
(160,1432,o),
(160,1432,o),
(160,1432,q),
(1081,1432,l),
(1081,1432,o),
(1081,1432,o),
(1081,1432,q),
(1081,1039,l),
(1081,1039,o),
(1081,1039,o),
(1081,1039,q),
(592,1039,l),
(592,0,l),
(592,0,o),
(592,0,o),
(592,0,q)
);
},
{
closed = 1;
nodes = (
(415,503,l),
(415,856,l),
(1010,856,l),
(1010,856,o),
(1010,856,o),
(1010,856,q),
(1010,503,l),
(1010,503,o),
(1010,503,o),
(1010,503,q)
);
}
);
width = 1164;
},
{
layerId = "B9481DB1-5939-4760-8C0A-E1CA4C5276BA";
shapes = (
{
closed = 1;
nodes = (
(200,0,l),
(200,0,o),
(200,0,o),
(200,0,q),
(200,1432,l),
(200,1432,o),
(200,1432,o),
(200,1432,q),
(1036,1432,l),
(1036,1432,o),
(1036,1432,o),
(1036,1432,q),
(1036,1248,l),
(1036,1248,o),
(1036,1248,o),
(1036,1248,q),
(399,1248,l),
(399,0,l),
(399,0,o),
(399,0,o),
(399,0,q)
);
},
{
closed = 1;
nodes = (
(311,632,l),
(311,815,l),
(967,815,l),
(967,815,o),
(967,815,o),
(967,815,q),
(967,632,l),
(967,632,o),
(967,632,o),
(967,632,q)
);
}
);
width = 1138;
},
{
layerId = "2B9CF20A-12EE-404A-A917-16C5B0FAAE67";
shapes = (
{
closed = 1;
nodes = (
(183,0,l),
(183,0,o),
(183,0,o),
(183,0,q),
(183,1432,l),
(183,1432,o),
(183,1432,o),
(183,1432,q),
(923,1432,l),
(923,1432,o),
(923,1432,o),
(923,1432,q),
(923,1252,l),
(923,1252,o),
(923,1252,o),
(923,1252,q),
(376,1252,l),
(376,0,l),
(376,0,o),
(376,0,o),
(376,0,q)
);
},
{
closed = 1;
nodes = (
(292,643,l),
(292,821,l),
(848,821,l),
(848,821,o),
(848,821,o),
(848,821,q),
(848,643,l),
(848,643,o),
(848,643,o),
(848,643,q)
);
}
);
width = 997;
},
{
layerId = "B44B52C7-1267-447A-96E2-7C7AAD20E5C8";
shapes = (
{
closed = 1;
nodes = (
(213,0,l),
(213,0,o),
(213,0,o),
(213,0,q),
(213,1432,l),
(213,1432,o),
(213,1432,o),
(213,1432,q),
(956,1432,l),
(956,1432,o),
(956,1432,o),
(956,1432,q),
(956,1368,l),
(956,1368,o),
(956,1368,o),
(956,1368,q),
(281,1368,l),
(281,0,l),
(281,0,o),
(281,0,o),
(281,0,q)
);
},
{
closed = 1;
nodes = (
(245,715,l),
(245,780,l),
(870,780,l),
(870,780,o),
(870,780,o),
(870,780,q),
(870,715,l),
(870,715,o),
(870,715,o),
(870,715,q)
);
}
);
width = 1043;
},
{
layerId = "6ABF3C13-8B80-436D-8B0B-86D4B5DD3694";
shapes = (
{
closed = 1;
nodes = (
(202,0,l),
(202,0,o),
(202,0,o),
(202,0,q),
(202,1432,l),
(202,1432,o),
(202,1432,o),
(202,1432,q),
(844,1432,l),
(844,1432,o),
(844,1432,o),
(844,1432,q),
(844,1370,l),
(844,1370,o),
(844,1370,o),
(844,1370,q),
(269,1370,l),
(269,0,l),
(269,0,o),
(269,0,o),
(269,0,q)
);
},
{
closed = 1;
nodes = (
(236,723,l),
(236,785,l),
(762,785,l),
(762,785,o),
(762,785,o),
(762,785,q),
(762,723,l),
(762,723,o),
(762,723,o),
(762,723,q)
);
}
);
width = 914;
}
);
leftKerningGroup = B;
unicode = 70;
},
{
glyphname = G;
layers = (
{
anchors = (
{
name = b.uni0327;
position = "{845, 0}";
},
{
name = t.uni0302;
position = "{828, 1432}";
}
);
layerId = "FBB1375C-3A63-4BAF-915A-A70EF4A52AF6";
shapes = (
{
closed = 1;
nodes = (
(532,-38,o),
(87,374,o),
(87,716,q),
(87,716,l),
(87,1060,o),
(534,1470,o),
(867,1470,qs),
(973,1470,o),
(1158,1428,o),
(1319,1341,o),
(1430,1242,o),
(1430,1242,o),
(1430,1242,q),
(1157,946,l),
(1157,946,o),
(1157,946,o),
(1098,998,o),
(1024,1038,o),
(936,1062,o),
(880,1062,qs),
(722,1062,o),
(530,879,o),
(530,712,q),
(530,712,l),
(530,545,o),
(725,356,o),
(863,356,qs),
(1000,356,o),
(1160,462,o),
(1175,532,q),
(1176,532,l),
(856,532,l),
(856,532,o),
(856,532,o),
(856,532,q),
(856,862,l),
(856,862,o),
(856,862,o),
(856,862,q),
(1601,862,l),
(1601,862,o),
(1600,862,o),
(1601,862,q),
(1601,688,ls),
(1601,358,o),
(1199,-37,o),
(853,-37,q)
);
}
);
width = 1677;
},
{
anchors = (
{
name = b.uni0327;
position = "{778, 0}";
},
{
name = t.uni0302;
position = "{744, 1432}";
}
);
layerId = "76B034D3-4D70-4D21-802E-5635595471DF";
shapes = (
{
closed = 1;
nodes = (
(476,-35,o),
(84,356,o),
(84,717,q),
(84,716,l),
(84,1079,o),
(483,1467,o),
(790,1467,qs),
(910,1467,o),
(1095,1407,o),
(1240,1290,o),
(1328,1166,o),
(1328,1166,o),
(1328,1166,q),
(1022,934,l),
(1022,934,o),
(1022,934,o),
(977,991,o),
(919,1040,o),
(845,1069,o),
(796,1069,qs),
(668,1069,o),
(520,905,o),
(520,741,qs),
(520,686,ls),
(520,517,o),
(672,350,o),
(784,350,qs),
(895,350,o),
(1023,453,o),
(1033,524,q),
(1034,528,l),
(782,528,l),
(782,528,o),
(782,528,o),
(782,528,q),
(782,849,l),
(782,849,o),
(782,849,o),
(782,849,q),
(1447,849,l),
(1447,849,o),
(1446,849,o),
(1447,849,q),
(1447,638,ls),
(1447,329,o),
(1086,-34,o),
(778,-34,q)
);
}
);
width = 1525;
},
{
anchors = (
{
name = b.uni0327;
position = "{778, 0}";
},
{
name = t.uni0302;
position = "{744, 1432}";
}
);
layerId = "B9481DB1-5939-4760-8C0A-E1CA4C5276BA";
shapes = (
{
closed = 1;
nodes = (
(551,-33,o),
(116,386,o),
(116,718,q),
(116,718,l),
(116,1038,o),
(548,1467,o),
(873,1467,qs),
(994,1467,o),
(1179,1422,o),
(1335,1335,o),
(1435,1240,o),
(1435,1240,o),
(1435,1240,q),
(1302,1099,l),
(1302,1099,o),
(1302,1099,o),
(1224,1174,o),
(1110,1242,o),
(964,1281,o),
(874,1281,qs),
(632,1281,o),
(325,972,o),
(325,715,q),
(325,715,l),
(325,460,o),
(636,151,o),
(867,151,qs),
(1085,151,o),
(1372,395,o),
(1382,597,q),
(1382,597,l),
(904,597,l),
(904,597,o),
(904,597,o),
(904,597,q),
(904,781,l),
(904,781,o),
(904,781,o),
(904,781,q),
(1585,781,l),
(1585,781,o),
(1586,781,o),
(1585,781,q),
(1587,629,l),
(1587,336,o),
(1176,-34,o),
(867,-34,q)
);
}
);
width = 1676;
},
{
anchors = (
{
name = b.uni0327;
position = "{660, 0}";
},
{
name = t.uni0302;
position = "{619, 1432}";
}
);
layerId = "2B9CF20A-12EE-404A-A917-16C5B0FAAE67";
shapes = (
{
closed = 1;
nodes = (
(465,-30,o),
(111,344,o),
(111,666,qs),
(111,769,ls),
(111,1082,o),
(466,1463,o),
(743,1463,qs),
(856,1463,o),
(1023,1408,o),
(1156,1306,o),
(1233,1193,o),
(1233,1193,o),
(1233,1193,q),
(1087,1082,l),
(1087,1082,o),
(1087,1082,o),
(1027,1168,o),
(938,1242,o),
(817,1283,o),
(743,1283,qs),
(550,1283,o),
(313,1016,o),
(313,770,qs),
(313,659,ls),
(313,418,o),
(553,149,o),
(740,149,qs),
(919,149,o),
(1139,358,o),
(1146,543,q),
(1146,590,l),
(767,590,l),
(767,590,o),
(767,590,o),
(767,590,q),
(767,770,l),
(767,770,o),
(767,770,o),
(767,770,q),
(1339,770,l),
(1339,770,o),
(1340,770,o),
(1339,770,q),
(1340,571,l),
(1340,293,o),
(1003,-30,o),
(739,-30,qs)
);
}
);
width = 1431;
},
{
anchors = (
{
name = b.uni0327;
position = "{665, 0}";
},
{
name = t.uni0302;
position = "{599, 1432}";
}
);
layerId = "B44B52C7-1267-447A-96E2-7C7AAD20E5C8";
shapes = (
{
closed = 1;
nodes = (
(543,-30,o),
(142,373,o),
(142,718,q),
(142,718,l),
(142,1058,o),
(542,1462,o),
(850,1462,qs),
(991,1462,o),
(1185,1385,o),
(1317,1279,o),
(1373,1206,o),
(1373,1206,o),
(1373,1206,q),
(1320,1170,l),
(1320,1170,o),
(1320,1170,o),
(1262,1243,o),
(1137,1338,o),
(963,1400,o),
(848,1400,qs),
(572,1400,o),
(213,1030,o),
(213,716,q),
(213,716,l),
(213,400,o),
(573,32,o),
(835,32,qs),
(1096,32,o),
(1424,355,o),
(1424,649,qs),
(1424,651,l),
(870,651,l),
(870,651,o),
(870,651,o),
(870,651,q),
(870,714,l),
(870,714,o),
(870,714,o),
(870,714,q),
(1487,714,l),
(1487,714,o),
(1486,714,o),
(1487,714,q),
(1487,649,ls),
(1487,335,o),
(1122,-29,o),
(835,-29,q)
);
}
);
width = 1613;
},
{
anchors = (
{
name = b.uni0327;
position = "{549, 0}";
},
{
name = t.uni0302;
position = "{460, 1432}";
}
);
layerId = "6ABF3C13-8B80-436D-8B0B-86D4B5DD3694";
shapes = (
{
closed = 1;
nodes = (
(465,-26,o),
(141,331,o),
(141,663,qs),
(141,774,ls),
(141,1098,o),
(465,1458,o),
(720,1458,qs),
(848,1458,o),
(1017,1373,o),
(1123,1258,o),
(1165,1183,o),
(1165,1183,o),
(1165,1183,q),
(1110,1153,l),
(1110,1153,o),
(1110,1153,o),
(1066,1230,o),
(967,1331,o),
(820,1397,o),
(720,1397,qs),
(495,1397,o),
(211,1069,o),
(211,772,qs),
(211,659,ls),
(211,359,o),
(495,34,o),
(712,34,qs),
(926,34,o),
(1185,322,o),
(1186,590,q),
(1186,649,l),
(740,649,l),
(740,649,o),
(740,649,o),
(740,649,q),
(740,711,l),
(740,711,o),
(740,711,o),
(740,711,q),
(1249,711,l),
(1249,711,o),
(1249,711,o),
(1249,711,q),
(1249,594,ls),
(1249,297,o),
(953,-25,o),
(711,-25,q)
);
}
);
width = 1373;
}
);
leftKerningGroup = C2;
rightKerningGroup = G;
unicode = 71;
},
{
glyphname = H;
layers = (
{
anchors = (
{
name = b.uni0327;
position = "{843, 0}";
},
{
name = t.uni0335;
position = "{843, 1170}";
},
{
name = t.uni0302;
position = "{843, 1432}";
}
);
layerId = "FBB1375C-3A63-4BAF-915A-A70EF4A52AF6";
shapes = (
{
closed = 1;
nodes = (
(1071,0,l),
(1071,0,o),
(1071,0,o),
(1071,0,q),
(1071,1432,l),
(1071,1432,o),
(1071,1432,o),
(1071,1432,q),
(1511,1432,l),
(1511,1432,o),
(1511,1432,o),
(1511,1432,q),
(1511,0,l),
(1511,0,o),
(1511,0,o),
(1511,0,q)
);
},
{
closed = 1;
nodes = (
(174,0,l),
(174,0,o),
(174,0,o),
(174,0,q),
(174,1432,l),
(174,1432,o),
(174,1432,o),
(174,1432,q),
(613,1432,l),
(613,1432,o),
(613,1432,o),
(613,1432,q),
(613,0,l),
(613,0,o),
(613,0,o),
(613,0,q)
);
},
{
closed = 1;
nodes = (
(436,528,l),
(436,928,l),
(1269,928,l),
(1269,528,l)
);
}
);
width = 1685;
},
{
anchors = (
{
name = b.uni0327;
position = "{861, 0}";
},
{
name = t.uni0335;
position = "{860, 1210}";
},
{
name = t.uni0302;
position = "{861, 1432}";
}
);
layerId = "76B034D3-4D70-4D21-802E-5635595471DF";
shapes = (
{
closed = 1;
nodes = (
(973,0,l),
(973,0,o),
(973,0,o),
(973,0,q),
(973,1432,l),
(973,1432,o),
(973,1432,o),
(973,1432,q),
(1405,1432,l),
(1405,1432,o),
(1405,1432,o),
(1405,1432,q),
(1405,0,l),
(1405,0,o),
(1405,0,o),
(1405,0,q)
);
},
{
closed = 1;
nodes = (
(160,0,l),
(160,0,o),
(160,0,o),
(160,0,q),
(160,1432,l),
(160,1432,o),
(160,1432,o),
(160,1432,q),
(590,1432,l),
(590,1432,o),
(590,1432,o),
(590,1432,q),
(590,0,l),
(590,0,o),
(590,0,o),
(590,0,q)
);
},
{
closed = 1;
nodes = (
(418,532,l),
(418,924,l),
(1171,924,l),
(1171,532,l)
);
}
);
width = 1564;
},
{
anchors = (
{
name = b.uni0327;
position = "{861, 0}";
},
{
name = t.uni0335;
position = "{860, 1210}";
},
{
name = t.uni0302;
position = "{861, 1432}";
}
);
layerId = "B9481DB1-5939-4760-8C0A-E1CA4C5276BA";
shapes = (
{
closed = 1;
nodes = (
(1131,0,l),
(1131,0,o),
(1131,0,o),
(1131,0,q),
(1131,1432,l),
(1131,1432,o),
(1131,1432,o),
(1131,1432,q),
(1330,1432,l),
(1330,1432,o),
(1330,1432,o),
(1330,1432,q),
(1330,0,l),
(1330,0,o),
(1330,0,o),
(1330,0,q)
);
},
{
closed = 1;
nodes = (
(200,0,l),
(200,0,o),
(200,0,o),
(200,0,q),
(200,1432,l),
(200,1432,o),
(200,1432,o),
(200,1432,q),
(399,1432,l),
(399,1432,o),
(399,1432,o),
(399,1432,q),
(399,0,l),
(399,0,o),
(399,0,o),
(399,0,q)
);
},
{
closed = 1;
nodes = (
(321,641,l),
(321,825,l),
(1226,825,l),
(1226,641,l)
);
}
);
width = 1530;
},
{
anchors = (
{
name = b.uni0327;
position = "{772, 0}";
},
{
name = t.uni0335;
position = "{770, 1205}";
},
{
name = t.uni0302;
position = "{771, 1432}";
}
);
layerId = "2B9CF20A-12EE-404A-A917-16C5B0FAAE67";
shapes = (
{
closed = 1;
nodes = (
(974,0,l),
(974,0,o),
(974,0,o),
(974,0,q),
(974,1432,l),
(974,1432,o),
(974,1432,o),
(974,1432,q),
(1168,1432,l),
(1168,1432,o),
(1168,1432,o),
(1168,1432,q),
(1168,0,l),
(1168,0,o),
(1168,0,o),
(1168,0,q)
);
},
{
closed = 1;
nodes = (
(183,0,l),
(183,0,o),
(183,0,o),
(183,0,q),
(183,1432,l),
(183,1432,o),
(183,1432,o),
(183,1432,q),
(376,1432,l),
(376,1432,o),
(376,1432,o),
(376,1432,q),
(376,0,l),
(376,0,o),
(376,0,o),
(376,0,q)
);
},
{
closed = 1;
nodes = (
(302,644,l),
(302,823,l),
(1066,823,l),
(1066,644,l)
);
}
);
width = 1350;
},
{
anchors = (
{
name = b.uni0327;
position = "{736, 0}";
},
{
name = t.uni0335;
position = "{734, 1184}";
},
{
name = t.uni0302;
position = "{735, 1432}";
}
);
layerId = "B44B52C7-1267-447A-96E2-7C7AAD20E5C8";
shapes = (
{
closed = 1;
nodes = (
(1176,0,l),
(1176,0,o),
(1176,0,o),
(1176,0,q),
(1176,1432,l),
(1176,1432,o),
(1176,1432,o),
(1176,1432,q),
(1244,1432,l),
(1244,1432,o),
(1244,1432,o),
(1244,1432,q),
(1244,0,l),
(1244,0,o),
(1244,0,o),
(1244,0,q)
);
},
{
closed = 1;
nodes = (
(213,0,l),
(213,0,o),
(213,0,o),
(213,0,q),
(213,1432,l),
(213,1432,o),
(213,1432,o),
(213,1432,q),
(281,1432,l),
(281,1432,o),
(281,1432,o),
(281,1432,q),
(281,0,l),
(281,0,o),
(281,0,o),
(281,0,q)
);
},
{
closed = 1;
nodes = (
(253,702,l),
(253,766,l),
(1215,766,l),
(1215,702,l)
);
}
);
width = 1457;
},
{
anchors = (
{
name = b.uni0327;
position = "{615, 0}";
},
{
name = t.uni0335;
position = "{612, 1158}";
},
{
name = t.uni0302;
position = "{613, 1432}";
}
);
layerId = "6ABF3C13-8B80-436D-8B0B-86D4B5DD3694";
shapes = (
{
closed = 1;
nodes = (
(1017,0,l),
(1017,0,o),
(1017,0,o),
(1017,0,q),
(1017,1432,l),
(1017,1432,o),
(1017,1432,o),
(1017,1432,q),
(1084,1432,l),
(1084,1432,o),
(1084,1432,o),
(1084,1432,q),
(1084,0,l),
(1084,0,o),
(1084,0,o),
(1084,0,q)
);
},
{
closed = 1;
nodes = (
(202,0,l),
(202,0,o),
(202,0,o),
(202,0,q),
(202,1432,l),
(202,1432,o),
(202,1432,o),
(202,1432,q),
(269,1432,l),
(269,1432,o),
(269,1432,o),
(269,1432,q),
(269,0,l),
(269,0,o),
(269,0,o),
(269,0,q)
);
},
{
closed = 1;
nodes = (
(239,703,l),
(239,765,l),
(1054,765,l),
(1054,703,l)
);
}
);
width = 1285;
}
);
leftKerningGroup = B;
rightKerningGroup = H;
unicode = 72;
},
{
glyphname = I;
layers = (
{
anchors = (
{
name = b.uni0327;
position = "{393, 0}";
},
{
name = b.uni0328;
position = "{617, 0}";
},
{
name = t.uni0302;
position = "{398, 1432}";
}
);
layerId = "FBB1375C-3A63-4BAF-915A-A70EF4A52AF6";
shapes = (
{
closed = 1;
nodes = (
(174,0,l),
(174,0,o),
(174,0,o),
(174,0,q),
(174,1432,l),
(174,1432,o),
(174,1432,o),
(174,1432,q),
(617,1432,l),
(617,1432,o),
(617,1432,o),
(617,1432,q),
(617,0,l),
(617,0,o),
(617,0,o),
(617,0,q)
);
}
);
width = 791;
},
{
anchors = (
{
name = b.uni0327;
position = "{467, 0}";
},
{
name = b.uni0328;
position = "{811, 0}";
},
{
name = t.uni0302;
position = "{477, 1432}";
}
);
layerId = "76B034D3-4D70-4D21-802E-5635595471DF";
shapes = (
{
closed = 1;
nodes = (
(160,0,l),
(160,0,o),
(160,0,o),
(160,0,q),
(160,1432,l),
(160,1432,o),
(160,1432,o),
(160,1432,q),
(593,1432,l),
(593,1432,o),
(593,1432,o),
(593,1432,q),
(593,0,l),
(593,0,o),
(593,0,o),
(593,0,q)
);
}
);
width = 753;
},
{
anchors = (
{
name = b.uni0327;
position = "{467, 0}";
},
{
name = b.uni0328;
position = "{811, 0}";
},
{
name = t.uni0302;
position = "{477, 1432}";
}
);
layerId = "B9481DB1-5939-4760-8C0A-E1CA4C5276BA";
shapes = (
{
closed = 1;
nodes = (
(200,0,l),
(200,0,o),
(200,0,o),
(200,0,q),
(200,1432,l),
(200,1432,o),
(200,1432,o),
(200,1432,q),
(399,1432,l),
(399,1432,o),
(399,1432,o),
(399,1432,q),
(399,0,l),
(399,0,o),
(399,0,o),
(399,0,q)
);
}
);
width = 599;
},
{
anchors = (
{
name = b.uni0327;
position = "{447, 0}";
},
{
name = b.uni0328;
position = "{788, 0}";
},
{
name = t.uni0302;
position = "{457, 1432}";
}
);
layerId = "2B9CF20A-12EE-404A-A917-16C5B0FAAE67";
shapes = (
{
closed = 1;
nodes = (
(183,0,l),
(183,0,o),
(183,0,o),
(183,0,q),
(183,1432,l),
(183,1432,o),
(183,1432,o),
(183,1432,q),
(376,1432,l),
(376,1432,o),
(376,1432,o),
(376,1432,q),
(376,0,l),
(376,0,o),
(376,0,o),
(376,0,q)
);
}
);
width = 559;
},
{
anchors = (
{
name = b.uni0327;
position = "{394, 0}";
},
{
name = b.uni0328;
position = "{670, 0}";
},
{
name = t.uni0302;
position = "{406, 1432}";
}
);
layerId = "B44B52C7-1267-447A-96E2-7C7AAD20E5C8";
shapes = (
{
closed = 1;
nodes = (
(213,0,l),
(213,0,o),
(213,0,o),
(213,0,q),
(213,1432,l),
(213,1432,o),
(213,1432,o),
(213,1432,q),
(281,1432,l),
(281,1432,o),
(281,1432,o),
(281,1432,q),
(281,0,l),
(281,0,o),
(281,0,o),
(281,0,q)
);
}
);
width = 494;
},
{
anchors = (
{
name = b.uni0327;
position = "{330, 0}";
},
{
name = b.uni0328;
position = "{540, 0}";
},
{
name = t.uni0302;
position = "{343, 1432}";
}
);
layerId = "6ABF3C13-8B80-436D-8B0B-86D4B5DD3694";
shapes = (
{
closed = 1;
nodes = (
(202,0,l),
(202,0,o),
(202,0,o),
(202,0,q),
(202,1432,l),
(202,1432,o),
(202,1432,o),
(202,1432,q),
(269,1432,l),
(269,1432,o),
(269,1432,o),
(269,1432,q),
(269,0,l),
(269,0,o),
(269,0,o),
(269,0,q)
);
}
);
width = 471;
}
);
leftKerningGroup = B;
rightKerningGroup = H;
unicode = 73;
},
{
glyphname = J;
layers = (
{
layerId = "FBB1375C-3A63-4BAF-915A-A70EF4A52AF6";
shapes = (
{
closed = 1;
nodes = (
(415,-38,o),
(228,38,o),
(87,165,o),
(22,279,o),
(22,279,o),
(22,279,q),
(343,464,l),
(343,464,o),
(343,464,o),
(368,422,o),
(407,381,o),
(456,357,o),
(492,357,qs),
(552,357,o),
(631,439,o),
(631,522,qs),
(631,1432,l),
(631,1432,o),
(631,1432,o),
(631,1432,q),
(1071,1432,l),
(1071,1432,o),
(1071,1432,o),
(1071,1432,q),
(1071,477,ls),
(1071,235,o),
(786,-38,o),
(549,-38,qs)
);
}
);
width = 1223;
},
{
layerId = "76B034D3-4D70-4D21-802E-5635595471DF";
shapes = (
{
closed = 1;
nodes = (
(392,-36,o),
(206,47,o),
(77,185,o),
(20,317,o),
(20,317,o),
(20,317,q),
(350,472,l),
(350,472,o),
(350,472,o),
(370,427,o),
(403,384,o),
(447,358,o),
(482,358,qs),
(533,358,o),
(600,429,o),
(600,501,qs),
(600,1432,l),
(600,1432,o),
(600,1432,o),
(600,1432,q),
(1033,1432,l),
(1033,1432,o),
(1033,1432,o),
(1033,1432,q),
(1033,457,ls),
(1033,227,o),
(760,-36,o),
(530,-36,qs)
);
}
);
width = 1173;
},
{
layerId = "B9481DB1-5939-4760-8C0A-E1CA4C5276BA";
shapes = (
{
closed = 1;
nodes = (
(378,-33,o),
(226,27,o),
(110,138,o),
(52,246,o),
(52,246,o),
(52,246,q),
(210,343,l),
(210,343,o),
(210,343,o),
(251,268,o),
(316,194,o),
(411,149,o),
(476,149,qs),
(583,149,o),
(724,290,o),
(724,441,qs),
(724,1432,l),
(724,1432,o),
(724,1432,o),
(724,1432,q),
(923,1432,l),
(923,1432,o),
(923,1432,o),
(923,1432,q),
(923,443,ls),
(923,221,o),
(677,-33,o),
(476,-33,qs)
);
}
);
width = 1103;
},
{
layerId = "2B9CF20A-12EE-404A-A917-16C5B0FAAE67";
shapes = (
{
closed = 1;
nodes = (
(327,-30,o),
(183,35,o),
(82,152,o),
(37,272,o),
(37,272,o),
(37,272,q),
(199,351,l),
(199,351,o),
(199,351,o),
(231,266,o),
(285,191,o),
(367,148,o),
(422,148,qs),
(514,148,o),
(630,268,o),
(630,400,qs),
(630,1432,l),
(630,1432,o),
(630,1432,o),
(630,1432,q),
(824,1432,l),
(824,1432,o),
(824,1432,o),
(824,1432,q),
(824,402,ls),
(824,199,o),
(606,-30,o),
(423,-30,qs)
);
}
);
width = 990;
},
{
layerId = "B44B52C7-1267-447A-96E2-7C7AAD20E5C8";
shapes = (
{
closed = 1;
nodes = (
(387,-30,o),
(225,36,o),
(124,150,o),
(81,242,o),
(81,242,o),
(81,242,q),
(136,276,l),
(136,276,o),
(136,276,o),
(176,189,o),
(270,85,o),
(401,31,o),
(483,31,qs),
(635,31,o),
(816,229,o),
(816,429,qs),
(816,1432,l),
(816,1432,o),
(816,1432,o),
(816,1432,q),
(884,1432,l),
(884,1432,o),
(884,1432,o),
(884,1432,q),
(884,421,ls),
(884,207,o),
(673,-30,o),
(487,-30,qs)
);
}
);
width = 1084;
},
{
layerId = "6ABF3C13-8B80-436D-8B0B-86D4B5DD3694";
shapes = (
{
closed = 1;
nodes = (
(331,-26,o),
(191,37,o),
(104,150,o),
(70,254,o),
(70,254,o),
(70,254,q),
(127,282,l),
(127,282,o),
(127,282,o),
(160,182,o),
(237,85,o),
(349,35,o),
(418,35,qs),
(544,35,o),
(694,204,o),
(694,385,qs),
(694,1432,l),
(694,1432,o),
(694,1432,o),
(694,1432,q),
(761,1432,l),
(761,1432,o),
(761,1432,o),
(761,1432,q),
(761,379,ls),
(761,183,o),
(582,-26,o),
(420,-26,qs)
);
}
);
width = 952;
}
);
rightKerningGroup = J;
unicode = 74;
},
{
glyphname = K;
layers = (
{
anchors = (
{
name = b.uni0327;
position = "{763, 0}";
},
{
name = t.uni0302;
position = "{764, 1432}";
}
);
layerId = "FBB1375C-3A63-4BAF-915A-A70EF4A52AF6";
shapes = (
{
closed = 1;
nodes = (
(459,234,l),
(460,775,l),
(977,1432,l),
(977,1432,o),
(977,1432,o),
(977,1432,q),
(1479,1432,l),
(1479,1432,o),
(1479,1432,o),
(1479,1432,q),
(822,665,l)
);
},
{
closed = 1;
nodes = (
(174,0,l),
(174,0,o),
(174,0,o),
(174,0,q),
(174,1432,l),
(174,1432,o),
(174,1432,o),
(174,1432,q),
(613,1432,l),
(613,1432,o),
(613,1432,o),
(613,1432,q),
(613,0,l),
(613,0,o),
(613,0,o),
(613,0,q)
);
},
{
closed = 1;
nodes = (
(1007,0,l),
(1007,0,o),
(1007,0,o),
(1007,0,q),
(599,633,l),
(880,961,l),
(1519,0,l),
(1519,0,o),
(1519,0,o),
(1519,0,q)
);
}
);
width = 1544;
},
{
anchors = (
{
name = b.uni0327;
position = "{796, 0}";
},
{
name = t.uni0302;
position = "{800, 1432}";
}
);
layerId = "76B034D3-4D70-4D21-802E-5635595471DF";
shapes = (
{
closed = 1;
nodes = (
(448,263,l),
(449,773,l),
(906,1432,l),
(906,1432,o),
(906,1432,o),
(906,1432,q),
(1383,1432,l),
(1383,1432,o),
(1383,1432,o),
(1383,1432,q),
(794,664,l)
);
},
{
closed = 1;
nodes = (
(160,0,l),
(160,0,o),
(160,0,o),
(160,0,q),
(160,1432,l),
(160,1432,o),
(160,1432,o),
(160,1432,q),
(590,1432,l),
(590,1432,o),
(590,1432,o),
(590,1432,q),
(590,0,l),
(590,0,o),
(590,0,o),
(590,0,q)
);
},
{
closed = 1;
nodes = (
(921,0,l),
(921,0,o),
(921,0,o),
(921,0,q),
(565,644,l),
(836,994,l),
(1413,0,l),
(1413,0,o),
(1413,0,o),
(1413,0,q)
);
}
);
width = 1438;
},
{
anchors = (
{
name = b.uni0327;
position = "{796, 0}";
},
{
name = t.uni0302;
position = "{800, 1432}";
}
);
layerId = "B9481DB1-5939-4760-8C0A-E1CA4C5276BA";
shapes = (
{
closed = 1;
nodes = (
(312,333,l),
(294,596,l),
(986,1432,l),
(986,1432,o),
(986,1432,o),
(986,1432,q),
(1227,1432,l),
(1227,1432,o),
(1227,1432,o),
(1227,1432,q),
(668,760,l)
);
},
{
closed = 1;
nodes = (
(200,0,l),
(200,0,o),
(200,0,o),
(200,0,q),
(200,1432,l),
(200,1432,o),
(200,1432,o),
(200,1432,q),
(399,1432,l),
(399,1432,o),
(399,1432,o),
(399,1432,q),
(399,0,l),
(399,0,o),
(399,0,o),
(399,0,q)
);
},
{
closed = 1;
nodes = (
(1053,0,l),
(1053,0,o),
(1053,0,o),
(1053,0,q),
(548,748,l),
(682,900,l),
(1292,0,l),
(1292,0,o),
(1292,0,o),
(1292,0,q)
);
}
);
width = 1334;
},
{
anchors = (
{
name = b.uni0327;
position = "{728, 0}";
},
{
name = t.uni0302;
position = "{728, 1432}";
}
);
layerId = "2B9CF20A-12EE-404A-A917-16C5B0FAAE67";
shapes = (
{
closed = 1;
nodes = (
(290,325,l),
(278,609,l),
(864,1432,l),
(864,1432,o),
(864,1432,o),
(864,1432,q),
(1089,1432,l),
(1089,1432,o),
(1089,1432,o),
(1089,1432,q),
(602,758,l)
);
},
{
closed = 1;
nodes = (
(183,0,l),
(183,0,o),
(183,0,o),
(183,0,q),
(183,1432,l),
(183,1432,o),
(183,1432,o),
(183,1432,q),
(376,1432,l),
(376,1432,o),
(376,1432,o),
(376,1432,q),
(376,0,l),
(376,0,o),
(376,0,o),
(376,0,q)
);
},
{
closed = 1;
nodes = (
(913,0,l),
(913,0,o),
(913,0,o),
(913,0,q),
(489,751,l),
(613,916,l),
(1136,0,l),
(1136,0,o),
(1136,0,o),
(1136,0,q)
);
}
);
width = 1169;
},
{
anchors = (
{
name = b.uni0327;
position = "{699, 0}";
},
{
name = t.uni0302;
position = "{697, 1432}";
}
);
layerId = "B44B52C7-1267-447A-96E2-7C7AAD20E5C8";
shapes = (
{
closed = 1;
nodes = (
(249,369,l),
(250,464,l),
(1051,1432,l),
(1051,1432,o),
(1051,1432,o),
(1051,1432,q),
(1131,1432,l),
(1131,1432,o),
(1131,1432,o),
(1131,1432,q),
(610,804,l)
);
},
{
closed = 1;
nodes = (
(213,0,l),
(213,0,o),
(213,0,o),
(213,0,q),
(213,1432,l),
(213,1432,o),
(213,1432,o),
(213,1432,q),
(281,1432,l),
(281,1432,o),
(281,1432,o),
(281,1432,q),
(281,0,l),
(281,0,o),
(281,0,o),
(281,0,q)
);
},
{
closed = 1;
nodes = (
(1107,0,l),
(1107,0,o),
(1107,0,o),
(1107,0,q),
(572,799,l),
(617,852,l),
(1187,0,l),
(1187,0,o),
(1187,0,o),
(1187,0,q)
);
}
);
width = 1269;
},
{
anchors = (
{
name = b.uni0327;
position = "{599, 0}";
},
{
name = t.uni0302;
position = "{592, 1432}";
}
);
layerId = "6ABF3C13-8B80-436D-8B0B-86D4B5DD3694";
shapes = (
{
closed = 1;
nodes = (
(237,380,l),
(237,483,l),
(909,1432,l),
(909,1432,o),
(909,1432,o),
(909,1432,q),
(985,1432,l),
(985,1432,o),
(985,1432,o),
(985,1432,q),
(542,806,l)
);
},
{
closed = 1;
nodes = (
(202,0,l),
(202,0,o),
(202,0,o),
(202,0,q),
(202,1432,l),
(202,1432,o),
(202,1432,o),
(202,1432,q),
(269,1432,l),
(269,1432,o),
(269,1432,o),
(269,1432,q),
(269,0,l),
(269,0,o),
(269,0,o),
(269,0,q)
);
},
{
closed = 1;
nodes = (
(960,0,l),
(960,0,o),
(960,0,o),
(960,0,q),
(504,799,l),
(547,859,l),
(1036,0,l),
(1036,0,o),
(1036,0,o),
(1036,0,q)
);
}
);
width = 1106;
}
);
leftKerningGroup = B;
rightKerningGroup = K;
unicode = 75;
},
